<svg width="21" height="21" viewBox="0 0 21 21" fill="none" xmlns="http://www.w3.org/2000/svg">
<g clip-path="url(#clip0_148_3835)">
<path d="M8.55094 5.29964C9.27548 5.30273 9.97999 5.53779 10.5612 5.97036C11.1425 6.40294 11.5699 7.01029 11.7809 7.70344L13.6314 8.37579C13.5703 7.39606 13.2277 6.45479 12.6448 5.66496C12.0619 4.87513 11.2634 4.27031 10.3452 3.92309C9.42707 3.57587 8.4282 3.501 7.46852 3.70749C6.50885 3.91397 5.62916 4.39302 4.93504 5.08714C4.24092 5.78126 3.76187 6.66095 3.55539 7.62062C3.3489 8.5803 3.42377 9.57917 3.77099 10.4973C4.11821 11.4155 4.72303 12.214 5.51286 12.7969C6.30269 13.3798 7.24396 13.7224 8.22369 13.7835L7.55474 11.9296C6.77876 11.6911 6.11415 11.1821 5.68174 10.495C5.24934 9.80796 5.07786 8.98854 5.19848 8.18575C5.31911 7.38296 5.72382 6.65012 6.33905 6.12048C6.95427 5.59084 7.73914 5.29957 8.55094 5.29964Z" fill="#7649B3"/>
<path d="M8.55079 15.5C7.20588 15.5 5.89117 15.1012 4.77292 14.354C3.65466 13.6068 2.78309 12.5447 2.26841 11.3022C1.75374 10.0597 1.61908 8.69242 1.88145 7.37335C2.14383 6.05428 2.79147 4.84264 3.74247 3.89164C4.69347 2.94064 5.90511 2.293 7.22418 2.03062C8.54325 1.76824 9.9105 1.90291 11.153 2.41758C12.3956 2.93226 13.4576 3.80383 14.2048 4.92209C14.952 6.04034 15.3508 7.35505 15.3508 8.69996C15.3508 8.79941 15.3397 8.89631 15.3355 8.99492L17.0015 9.60096C17.1908 7.84921 16.8319 6.08187 15.9743 4.54268C15.1168 3.0035 13.8028 1.76831 12.2136 1.00744C10.6244 0.246582 8.83824 -0.00246233 7.10152 0.294657C5.36479 0.591776 3.76303 1.42042 2.51714 2.66631C1.27125 3.9122 0.442606 5.51396 0.145487 7.25069C-0.151632 8.98741 0.0974125 10.7735 0.858275 12.3627C1.61914 13.952 2.85433 15.2659 4.39351 16.1235C5.9327 16.9811 7.70004 17.34 9.45179 17.1507L8.84575 15.4847C8.74714 15.4889 8.65024 15.5 8.55079 15.5Z" fill="#7649B3"/>
<path d="M20.4509 12.7619L11.5582 9.53187C11.2542 9.42145 10.9251 9.4 10.6094 9.47006C10.2937 9.54011 10.0045 9.69875 9.7758 9.92737C9.54709 10.156 9.38834 10.4451 9.31816 10.7608C9.24798 11.0764 9.2693 11.4056 9.37961 11.7096L12.613 20.5997L15.928 17.2847L18.3021 19.6588L19.504 18.4569L17.1359 16.0803L20.4509 12.7619ZM13.299 17.51L10.9776 11.1265L17.3611 13.4478L13.299 17.51Z" fill="#7649B3"/>
</g>
<defs>
<clipPath id="clip0_148_3835">
<rect width="20.4" height="20.4" fill="white" transform="translate(0.0507812 0.199951)"/>
</clipPath>
</defs>
</svg>
