<svg width="57" height="57" viewBox="0 0 57 57" fill="none" xmlns="http://www.w3.org/2000/svg">
<rect x="0.457031" y="0.755127" width="55.925" height="55.925" rx="27.9625" fill="#CC1111" fill-opacity="0.960784"/>
<path d="M42.8959 43.862C42.8959 44.297 42.5542 44.6387 42.1192 44.6387H15.4305C14.9956 44.6387 14.6538 44.297 14.6538 43.862C14.6538 37.4306 20.992 32.2109 28.7749 32.2109C30.3749 32.2109 31.9284 32.4284 33.3576 32.8478C32.4411 33.9353 31.8818 35.349 31.8818 36.8714C31.8818 38.0365 32.208 39.1394 32.7828 40.0715C33.0935 40.5997 33.4974 41.0812 33.9635 41.4851C35.0509 42.4793 36.4956 43.0852 38.0957 43.0852C39.8356 43.0852 41.4046 42.3706 42.5231 41.2211C42.7717 42.0599 42.8959 42.9454 42.8959 43.862Z" fill="white" fill-opacity="0.8"/>
<path d="M42.2503 33.1279L42.2504 33.1279C41.2468 31.9849 39.7516 31.2701 38.0967 31.2701C36.5274 31.2701 35.0996 31.914 34.0771 32.9645L42.2503 33.1279ZM42.2503 33.1279L42.2557 33.1338M42.2503 33.1279L42.2557 33.1338M42.2557 33.1338C43.1532 34.1296 43.6983 35.4454 43.6983 36.8716C43.6983 37.3171 43.6427 37.7455 43.5325 38.1585L43.5294 38.1702L43.5268 38.1819C43.4019 38.7371 43.1792 39.2796 42.8886 39.75L42.8885 39.7499L42.8833 39.7587C41.9177 41.382 40.141 42.4732 38.0967 42.4732C36.6551 42.4732 35.3563 41.9283 34.3776 41.0334L34.3716 41.028L34.3655 41.0226C33.9483 40.6611 33.5877 40.2306 33.3116 39.7613L33.3117 39.7612M42.2557 33.1338L33.3117 39.7612M33.3117 39.7612L33.305 39.7503M33.3117 39.7612L33.305 39.7503M33.305 39.7503C32.7891 38.9138 32.4952 37.9219 32.4952 36.8716C32.4952 35.3584 33.0973 33.9724 34.077 32.9645L33.305 39.7503ZM39.8741 39.2174V38.6179H40.4269C41.402 38.6179 42.2044 37.8156 42.2044 36.8405C42.2044 35.8654 41.402 35.0631 40.4269 35.0631H39.8741V34.5725C39.8741 33.5974 39.0718 32.7951 38.0967 32.7951C37.1216 32.7951 36.3193 33.5974 36.3193 34.5725V35.0631H35.7665C34.7914 35.0631 33.9891 35.8654 33.9891 36.8405C33.9891 37.8156 34.7914 38.6179 35.7665 38.6179H36.3193V39.2174C36.3193 40.1925 37.1216 40.9948 38.0967 40.9948C39.0718 40.9948 39.8741 40.1925 39.8741 39.2174Z" fill="white" stroke="white" stroke-width="1.22468"/>
<path d="M35.6235 21.3367C35.6235 25.1192 32.5572 28.1856 28.7747 28.1856C24.9922 28.1856 21.9258 25.1192 21.9258 21.3367C21.9258 17.5542 24.9922 14.4878 28.7747 14.4878C32.5572 14.4878 35.6235 17.5542 35.6235 21.3367Z" stroke="white" stroke-width="1.83702"/>
</svg>
