<svg width="18" height="19" viewBox="0 0 18 19" fill="none" xmlns="http://www.w3.org/2000/svg">
<path fill-rule="evenodd" clip-rule="evenodd" d="M15.3591 1.97194H14.303V0.25H12.9255V1.97194H5.07344V0.25H3.69589V1.97194H2.63977C1.96996 1.97194 1.32759 2.23802 0.853962 2.71164C0.380338 3.18527 0.114258 3.82764 0.114258 4.49745V15.7245C0.114258 16.3943 0.380338 17.0367 0.853962 17.5103C1.32759 17.9839 1.96996 18.25 2.63977 18.25H15.3591C16.029 18.25 16.6713 17.9839 17.145 17.5103C17.6186 17.0367 17.8847 16.3943 17.8847 15.7245V4.49745C17.8847 3.82764 17.6186 3.18527 17.145 2.71164C16.6713 2.23802 16.029 1.97194 15.3591 1.97194ZM2.66273 3.34949H3.71885V4.84184H5.0964V3.34949H12.9255V4.84184H14.303V3.34949H15.3591C15.6636 3.34949 15.9556 3.47043 16.1709 3.68572C16.3862 3.901 16.5071 4.19299 16.5071 4.49745V5.89796H1.49181V4.49745C1.49181 4.19299 1.61275 3.901 1.82804 3.68572C2.04332 3.47043 2.33531 3.34949 2.63977 3.34949H2.66273ZM15.3591 16.8724H2.63977C2.33531 16.8724 2.04332 16.7515 1.82804 16.5362C1.61275 16.3209 1.49181 16.0289 1.49181 15.7245V7.27551H16.5071V15.7245C16.5071 15.8752 16.4774 16.0245 16.4197 16.1638C16.362 16.3031 16.2775 16.4296 16.1709 16.5362C16.0643 16.6428 15.9377 16.7274 15.7985 16.7851C15.6592 16.8427 15.5099 16.8724 15.3591 16.8724ZM10.515 8.60547H7.50737V11.6108H10.515V8.60547ZM3.23657 8.6084H6.24422V11.6138H3.23657V8.6084ZM14.785 8.60547H11.7774V11.6108H14.785V8.60547ZM7.50732 12.5107H10.515V15.5161H7.50732V12.5107ZM6.24422 12.5107H3.23657V15.5161H6.24422V12.5107ZM11.7773 12.5107H14.785V15.5161H11.7773V12.5107Z" fill="#FB8308"/>
<path d="M14.303 1.97194H14.1905V2.08444H14.303V1.97194ZM14.303 0.25H14.4155V0.1375H14.303V0.25ZM12.9255 0.25V0.1375H12.813V0.25H12.9255ZM12.9255 1.97194V2.08444H13.038V1.97194H12.9255ZM5.07344 1.97194H4.96094V2.08444H5.07344V1.97194ZM5.07344 0.25H5.18594V0.1375H5.07344V0.25ZM3.69589 0.25V0.1375H3.58339V0.25H3.69589ZM3.69589 1.97194V2.08444H3.80839V1.97194H3.69589ZM0.853962 2.71164L0.774413 2.63209H0.774413L0.853962 2.71164ZM0.853962 17.5103L0.933512 17.4307L0.853962 17.5103ZM17.145 2.71164L17.2245 2.63209L17.145 2.71164ZM3.71885 3.34949H3.83135V3.23699H3.71885V3.34949ZM3.71885 4.84184H3.60635V4.95434H3.71885V4.84184ZM5.0964 4.84184V4.95434H5.2089V4.84184H5.0964ZM5.0964 3.34949V3.23699H4.9839V3.34949H5.0964ZM12.9255 3.34949H13.038V3.23699H12.9255V3.34949ZM12.9255 4.84184H12.813V4.95434H12.9255V4.84184ZM14.303 4.84184V4.95434H14.4155V4.84184H14.303ZM14.303 3.34949V3.23699H14.1905V3.34949H14.303ZM16.1709 3.68572L16.0913 3.76527V3.76527L16.1709 3.68572ZM16.5071 5.89796V6.01046H16.6196V5.89796H16.5071ZM1.49181 5.89796H1.37931V6.01046H1.49181V5.89796ZM1.49181 7.27551V7.16301H1.37931V7.27551H1.49181ZM16.5071 7.27551H16.6196V7.16301H16.5071V7.27551ZM16.4197 16.1638L16.3158 16.1207L16.3158 16.1207L16.4197 16.1638ZM16.1709 16.5362L16.0913 16.4567L16.1709 16.5362ZM15.7985 16.7851L15.8415 16.889L15.7985 16.7851ZM7.50737 8.60547V8.49297H7.39487V8.60547H7.50737ZM10.515 8.60547H10.6275V8.49297H10.515V8.60547ZM7.50737 11.6108H7.39487V11.7233H7.50737V11.6108ZM10.515 11.6108V11.7233H10.6275V11.6108H10.515ZM6.24422 8.6084H6.35672V8.4959H6.24422V8.6084ZM3.23657 8.6084V8.4959H3.12407V8.6084H3.23657ZM6.24422 11.6138V11.7263H6.35672V11.6138H6.24422ZM3.23657 11.6138H3.12407V11.7263H3.23657V11.6138ZM11.7774 8.60547V8.49297H11.6649V8.60547H11.7774ZM14.785 8.60547H14.8975V8.49297H14.785V8.60547ZM11.7774 11.6108H11.6649V11.7233H11.7774V11.6108ZM14.785 11.6108V11.7233H14.8975V11.6108H14.785ZM10.515 12.5107H10.6275V12.3982H10.515V12.5107ZM7.50732 12.5107V12.3982H7.39482V12.5107H7.50732ZM10.515 15.5161V15.6286H10.6275V15.5161H10.515ZM7.50732 15.5161H7.39482V15.6286H7.50732V15.5161ZM3.23657 12.5107V12.3982H3.12407V12.5107H3.23657ZM6.24422 12.5107H6.35672V12.3982H6.24422V12.5107ZM3.23657 15.5161H3.12407V15.6286H3.23657V15.5161ZM6.24422 15.5161V15.6286H6.35672V15.5161H6.24422ZM14.785 12.5107H14.8975V12.3982H14.785V12.5107ZM11.7773 12.5107V12.3982H11.6648V12.5107H11.7773ZM14.785 15.5161V15.6286H14.8975V15.5161H14.785ZM11.7773 15.5161H11.6648V15.6286H11.7773V15.5161ZM14.303 2.08444H15.3591V1.85944H14.303V2.08444ZM14.1905 0.25V1.97194H14.4155V0.25H14.1905ZM12.9255 0.3625H14.303V0.1375H12.9255V0.3625ZM13.038 1.97194V0.25H12.813V1.97194H13.038ZM5.07344 2.08444H12.9255V1.85944H5.07344V2.08444ZM4.96094 0.25V1.97194H5.18594V0.25H4.96094ZM3.69589 0.3625H5.07344V0.1375H3.69589V0.3625ZM3.80839 1.97194V0.25H3.58339V1.97194H3.80839ZM2.63977 2.08444H3.69589V1.85944H2.63977V2.08444ZM0.933512 2.79119C1.38604 2.33867 1.9998 2.08444 2.63977 2.08444V1.85944C1.94012 1.85944 1.26914 2.13737 0.774413 2.63209L0.933512 2.79119ZM0.226758 4.49745C0.226758 3.85748 0.480985 3.24372 0.933512 2.79119L0.774413 2.63209C0.27969 3.12682 0.00175781 3.7978 0.00175781 4.49745H0.226758ZM0.226758 15.7245V4.49745H0.00175781V15.7245H0.226758ZM0.933512 17.4307C0.480985 16.9782 0.226758 16.3645 0.226758 15.7245H0.00175781C0.00175781 16.4241 0.27969 17.0951 0.774413 17.5898L0.933512 17.4307ZM2.63977 18.1375C1.9998 18.1375 1.38604 17.8833 0.933512 17.4307L0.774413 17.5898C1.26914 18.0846 1.94012 18.3625 2.63977 18.3625V18.1375ZM15.3591 18.1375H2.63977V18.3625H15.3591V18.1375ZM17.0654 17.4307C16.6129 17.8833 15.9991 18.1375 15.3591 18.1375V18.3625C16.0588 18.3625 16.7298 18.0846 17.2245 17.5898L17.0654 17.4307ZM17.7722 15.7245C17.7722 16.3645 17.5179 16.9782 17.0654 17.4307L17.2245 17.5898C17.7192 17.0951 17.9972 16.4241 17.9972 15.7245H17.7722ZM17.7722 4.49745V15.7245H17.9972V4.49745H17.7722ZM17.0654 2.79119C17.5179 3.24372 17.7722 3.85748 17.7722 4.49745H17.9972C17.9972 3.7978 17.7192 3.12682 17.2245 2.63209L17.0654 2.79119ZM15.3591 2.08444C15.9991 2.08444 16.6129 2.33867 17.0654 2.79119L17.2245 2.63209C16.7298 2.13737 16.0588 1.85944 15.3591 1.85944V2.08444ZM3.71885 3.23699H2.66273V3.46199H3.71885V3.23699ZM3.83135 4.84184V3.34949H3.60635V4.84184H3.83135ZM5.0964 4.72933H3.71885V4.95434H5.0964V4.72933ZM4.9839 3.34949V4.84184H5.2089V3.34949H4.9839ZM12.9255 3.23699H5.0964V3.46199H12.9255V3.23699ZM13.038 4.84184V3.34949H12.813V4.84184H13.038ZM14.303 4.72933H12.9255V4.95434H14.303V4.72933ZM14.1905 3.34949V4.84184H14.4155V3.34949H14.1905ZM15.3591 3.23699H14.303V3.46199H15.3591V3.23699ZM16.2504 3.60617C16.014 3.36979 15.6934 3.23699 15.3591 3.23699V3.46199C15.6338 3.46199 15.8971 3.57108 16.0913 3.76527L16.2504 3.60617ZM16.6196 4.49745C16.6196 4.16315 16.4868 3.84255 16.2504 3.60617L16.0913 3.76527C16.2855 3.95945 16.3946 4.22283 16.3946 4.49745H16.6196ZM16.6196 5.89796V4.49745H16.3946V5.89796H16.6196ZM1.49181 6.01046H16.5071V5.78546H1.49181V6.01046ZM1.37931 4.49745V5.89796H1.60431V4.49745H1.37931ZM1.74849 3.60617C1.51211 3.84255 1.37931 4.16315 1.37931 4.49745H1.60431C1.60431 4.22283 1.7134 3.95945 1.90759 3.76527L1.74849 3.60617ZM2.63977 3.23699C2.30547 3.23699 1.98487 3.36979 1.74849 3.60617L1.90759 3.76527C2.10177 3.57108 2.36515 3.46199 2.63977 3.46199V3.23699ZM2.66273 3.23699H2.63977V3.46199H2.66273V3.23699ZM2.63977 16.9849H15.3591V16.7599H2.63977V16.9849ZM1.74849 16.6158C1.98487 16.8521 2.30547 16.9849 2.63977 16.9849V16.7599C2.36515 16.7599 2.10177 16.6509 1.90759 16.4567L1.74849 16.6158ZM1.37931 15.7245C1.37931 16.0588 1.51211 16.3794 1.74849 16.6158L1.90759 16.4567C1.7134 16.2625 1.60431 15.9991 1.60431 15.7245H1.37931ZM1.37931 7.27551V15.7245H1.60431V7.27551H1.37931ZM16.5071 7.16301H1.49181V7.38801H16.5071V7.16301ZM16.6196 15.7245V7.27551H16.3946V15.7245H16.6196ZM16.5237 16.2068C16.587 16.0539 16.6196 15.89 16.6196 15.7245H16.3946C16.3946 15.8605 16.3678 15.9951 16.3158 16.1207L16.5237 16.2068ZM16.2504 16.6158C16.3675 16.4987 16.4603 16.3598 16.5237 16.2068L16.3158 16.1207C16.2638 16.2464 16.1875 16.3605 16.0913 16.4567L16.2504 16.6158ZM15.8415 16.889C15.9944 16.8257 16.1334 16.7328 16.2504 16.6158L16.0913 16.4567C15.9952 16.5528 15.881 16.6291 15.7554 16.6811L15.8415 16.889ZM15.3591 16.9849C15.5247 16.9849 15.6886 16.9523 15.8415 16.889L15.7554 16.6811C15.6298 16.7332 15.4951 16.7599 15.3591 16.7599V16.9849ZM7.50737 8.71797H10.515V8.49297H7.50737V8.71797ZM7.61987 11.6108V8.60547H7.39487V11.6108H7.61987ZM10.515 11.4983H7.50737V11.7233H10.515V11.4983ZM10.4025 8.60547V11.6108H10.6275V8.60547H10.4025ZM6.24422 8.4959H3.23657V8.7209H6.24422V8.4959ZM6.35672 11.6138V8.6084H6.13172V11.6138H6.35672ZM3.23657 11.7263H6.24422V11.5013H3.23657V11.7263ZM3.12407 8.6084V11.6138H3.34907V8.6084H3.12407ZM11.7774 8.71797H14.785V8.49297H11.7774V8.71797ZM11.8899 11.6108V8.60547H11.6649V11.6108H11.8899ZM14.785 11.4983H11.7774V11.7233H14.785V11.4983ZM14.6725 8.60547V11.6108H14.8975V8.60547H14.6725ZM10.515 12.3982H7.50732V12.6232H10.515V12.3982ZM10.6275 15.5161V12.5107H10.4025V15.5161H10.6275ZM7.50732 15.6286H10.515V15.4036H7.50732V15.6286ZM7.39482 12.5107V15.5161H7.61982V12.5107H7.39482ZM3.23657 12.6232H6.24422V12.3982H3.23657V12.6232ZM3.34907 15.5161V12.5107H3.12407V15.5161H3.34907ZM6.24422 15.4036H3.23657V15.6286H6.24422V15.4036ZM6.13172 12.5107V15.5161H6.35672V12.5107H6.13172ZM14.785 12.3982H11.7773V12.6232H14.785V12.3982ZM14.8975 15.5161V12.5107H14.6725V15.5161H14.8975ZM11.7773 15.6286H14.785V15.4036H11.7773V15.6286ZM11.6648 12.5107V15.5161H11.8898V12.5107H11.6648Z" fill="#FB8308"/>
</svg>
