<svg width="24" height="24" viewBox="0 0 24 24" fill="none" xmlns="http://www.w3.org/2000/svg">
<path fill-rule="evenodd" clip-rule="evenodd" d="M7.96834 2.0127H15.9827C18.9365 2.0127 20.5813 3.71482 20.5813 6.63138V16.5094C20.5813 19.4738 18.9365 21.1377 15.9827 21.1377H7.96834C5.06134 21.1377 3.36877 19.4738 3.36877 16.5094V6.63138C3.36877 3.71482 5.06134 2.0127 7.96834 2.0127ZM8.22662 6.46888V6.45932H11.0849C11.497 6.45932 11.8317 6.79401 11.8317 7.20424C11.8317 7.62595 11.497 7.96063 11.0849 7.96063H8.22662C7.81448 7.96063 7.48075 7.62595 7.48075 7.21476C7.48075 6.80357 7.81448 6.46888 8.22662 6.46888ZM8.22662 12.2829H15.7236C16.1348 12.2829 16.4695 11.9482 16.4695 11.537C16.4695 11.1258 16.1348 10.7901 15.7236 10.7901H8.22662C7.81448 10.7901 7.48075 11.1258 7.48075 11.537C7.48075 11.9482 7.81448 12.2829 8.22662 12.2829ZM8.22654 16.6529H15.7235C16.1051 16.6146 16.3929 16.2886 16.3929 15.907C16.3929 15.515 16.1051 15.1898 15.7235 15.1516H8.22654C7.93967 15.1229 7.66235 15.2568 7.50935 15.5054C7.35635 15.7445 7.35635 16.06 7.50935 16.3086C7.66235 16.5477 7.93967 16.6911 8.22654 16.6529Z" fill="#7649B3"/>
</svg>
