<svg width="60" height="60" viewBox="0 0 60 60" fill="none" xmlns="http://www.w3.org/2000/svg">
<path d="M25 40C25 35.85 25 32.5 32.5 32.5H42.5C50 32.5 50 30 50 25V20C50 15 50 12.5 42.5 12.5H40" stroke="white" stroke-width="2.5" stroke-linecap="round" stroke-linejoin="round"/>
<path d="M30 5H20C18.375 9.875 18.375 15.125 20 20H30C31.625 15.125 31.625 9.875 30 5Z" stroke="white" stroke-width="2.5" stroke-linecap="round" stroke-linejoin="round"/>
<path d="M20 5H17.5C12.5 5 10 7.5 10 12.5C10 17.5 12.5 20 17.5 20H20C17.5 15 17.5 10 20 5Z" stroke="white" stroke-width="2.5" stroke-linecap="round" stroke-linejoin="round"/>
<path d="M32.5 5H30C32.5 10 32.5 15 30 20H32.5C37.5 20 40 17.5 40 12.5C40 7.5 37.5 5 32.5 5Z" stroke="white" stroke-width="2.5" stroke-linecap="round" stroke-linejoin="round"/>
<path d="M23.75 55H26.25C30 55 30 52.5 30 51.25V43.75C30 42.5 30 40 26.25 40H23.75C20 40 20 42.5 20 43.75V51.25C20 52.5 20 55 23.75 55Z" stroke="white" stroke-width="2.5" stroke-linecap="round" stroke-linejoin="round"/>
</svg>
