<svg width="22" height="19" viewBox="0 0 22 19" fill="none" xmlns="http://www.w3.org/2000/svg">
<path d="M17.0228 4.54102H3.76729C2.42287 4.54102 1.33301 5.63088 1.33301 6.9753V16.315C1.33301 17.6595 2.42287 18.7493 3.76729 18.7493H17.0228C18.3672 18.7493 19.4571 17.6595 19.4571 16.315V6.9753C19.4571 5.63088 18.3672 4.54102 17.0228 4.54102Z" fill="#FB8308"/>
<path d="M20.7733 6.08395C20.7733 7.22904 19.8304 8.41715 17.9597 9.35251C16.1226 10.271 13.5454 10.8554 10.6679 10.8554C7.79043 10.8554 5.21318 10.271 3.37611 9.35251C1.5054 8.41715 0.5625 7.22904 0.5625 6.08395C0.5625 4.93886 1.5054 3.75075 3.37611 2.81539C5.21318 1.89686 7.79043 1.3125 10.6679 1.3125C13.5454 1.3125 16.1226 1.89686 17.9597 2.81539C19.8304 3.75075 20.7733 4.93886 20.7733 6.08395Z" stroke="white" stroke-width="1.125"/>
<path d="M12.8259 7.78406H8.18933C7.73616 7.78353 7.30171 7.60325 6.98133 7.28274C6.66095 6.96224 6.48082 6.52769 6.48047 6.07451V3.12752C6.48082 2.67435 6.66095 2.23983 6.98133 1.91933C7.30171 1.59883 7.73616 1.4185 8.18933 1.41797H12.8259C13.2791 1.4185 13.7136 1.5988 14.0341 1.91929C14.3546 2.23977 14.5349 2.67428 14.5354 3.12752V6.07451C14.5349 6.52775 14.3546 6.9623 14.0341 7.28278C13.7136 7.60327 13.2791 7.78353 12.8259 7.78406ZM8.18933 2.91684C8.1331 2.91684 8.07917 2.93918 8.03941 2.97894C7.99965 3.0187 7.97731 3.07263 7.97731 3.12886V6.07586C7.97731 6.13209 7.99965 6.18601 8.03941 6.22578C8.07917 6.26554 8.1331 6.28788 8.18933 6.28788H12.8259C12.882 6.2877 12.9359 6.2653 12.9756 6.22557C13.0153 6.18585 13.0377 6.13203 13.0379 6.07586V3.12886C13.0377 3.07268 13.0153 3.01883 12.9756 2.9791C12.9359 2.93938 12.882 2.91702 12.8259 2.91684H8.18933Z" fill="#FB8308"/>
</svg>
