<svg width="18" height="16" viewBox="0 0 18 16" fill="none" xmlns="http://www.w3.org/2000/svg">
<path d="M6.50003 15.501C7.1904 15.501 7.75005 14.9414 7.75005 14.251C7.75005 13.5606 7.1904 13.001 6.50003 13.001C5.80966 13.001 5.25 13.5606 5.25 14.251C5.25 14.9414 5.80966 15.501 6.50003 15.501Z" fill="white"/>
<path d="M15.25 15.501C15.9404 15.501 16.5001 14.9414 16.5001 14.251C16.5001 13.5606 15.9404 13.001 15.25 13.001C14.5597 13.001 14 13.5606 14 14.251C14 14.9414 14.5597 15.501 15.25 15.501Z" fill="white"/>
<path d="M17.4691 2.71801C17.3813 2.61061 17.2707 2.5241 17.1452 2.46478C17.0198 2.40545 16.8828 2.3748 16.7441 2.37504H4.85516L4.6157 1.01642C4.59017 0.871698 4.51446 0.740604 4.40187 0.646162C4.28928 0.55172 4.14702 0.499969 4.00006 0.5H1.50001C1.33425 0.5 1.17527 0.565849 1.05806 0.683062C0.940849 0.800275 0.875 0.959249 0.875 1.12501C0.875 1.29078 0.940849 1.44975 1.05806 1.56696C1.17527 1.68418 1.33425 1.75003 1.50001 1.75003H3.47583L5.25946 11.8588C5.285 12.0035 5.36071 12.1346 5.47329 12.2291C5.58588 12.3235 5.72815 12.3753 5.8751 12.3752H15.8753C16.0411 12.3752 16.2 12.3094 16.3173 12.1922C16.4345 12.075 16.5003 11.916 16.5003 11.7502C16.5003 11.5845 16.4345 11.4255 16.3173 11.3083C16.2 11.1911 16.0411 11.1252 15.8753 11.1252H6.39933L6.17901 9.87519H15.619C15.8358 9.87491 16.0458 9.79976 16.2135 9.66245C16.3812 9.52513 16.4963 9.33409 16.5394 9.12166L17.6644 3.49654C17.6915 3.36041 17.6881 3.21995 17.6543 3.08532C17.6205 2.95068 17.5572 2.82523 17.4691 2.71801V2.71801Z" fill="#FB8308"/>
</svg>
