<svg width="30" height="30" viewBox="0 0 30 30" fill="none" xmlns="http://www.w3.org/2000/svg">
<circle cx="15" cy="15" r="15" fill="#1A9717"/>
<path d="M13.2065 16.8L14.2065 17.8L16.8732 15.1333" stroke="white" stroke-linecap="round" stroke-linejoin="round"/>
<path d="M13.6663 11.0002H16.333C17.6663 11.0002 17.6663 10.3335 17.6663 9.66683C17.6663 8.3335 16.9997 8.3335 16.333 8.3335H13.6663C12.9997 8.3335 12.333 8.3335 12.333 9.66683C12.333 11.0002 12.9997 11.0002 13.6663 11.0002Z" stroke="white" stroke-miterlimit="10" stroke-linecap="round" stroke-linejoin="round"/>
<path d="M17.6667 9.67993C19.8867 9.79993 21 10.6199 21 13.6666V17.6666C21 20.3333 20.3333 21.6666 17 21.6666H13C9.66667 21.6666 9 20.3333 9 17.6666V13.6666C9 10.6266 10.1133 9.79993 12.3333 9.67993" stroke="white" stroke-miterlimit="10" stroke-linecap="round" stroke-linejoin="round"/>
</svg>
