<svg width="60" height="60" viewBox="0 0 60 60" fill="none" xmlns="http://www.w3.org/2000/svg">
<path d="M9 54C10.6569 54 12 52.6569 12 51C12 49.3431 10.6569 48 9 48C7.34315 48 6 49.3431 6 51C6 52.6569 7.34315 54 9 54Z" fill="white"/>
<path d="M11.75 51C11.75 52.5188 10.5188 53.75 9 53.75C7.48122 53.75 6.25 52.5188 6.25 51C6.25 49.4812 7.48122 48.25 9 48.25C10.5188 48.25 11.75 49.4812 11.75 51Z" stroke="#CC1111" stroke-opacity="0.960784" stroke-width="0.5"/>
<path d="M6 6H12V33H6V6Z" fill="white"/>
<path d="M6.25 6.25H11.75V32.75H6.25V6.25Z" stroke="#CC1111" stroke-opacity="0.960784" stroke-width="0.5"/>
<path d="M15 0H3C2.20435 0 1.44129 0.31607 0.87868 0.87868C0.31607 1.44129 0 2.20435 0 3V57C0 57.7956 0.31607 58.5587 0.87868 59.1213C1.44129 59.6839 2.20435 60 3 60H15C15.7956 60 16.5587 59.6839 17.1213 59.1213C17.6839 58.5587 18 57.7956 18 57V3C18 2.20435 17.6839 1.44129 17.1213 0.87868C16.5587 0.31607 15.7956 0 15 0ZM15 57H3V3H15V57ZM36 3V24H27V3H36ZM39 0H24V27H39V0ZM57 3V24H48V3H57ZM60 0H45V27H60V0ZM36 36V57H27V36H36ZM39 33H24V60H39V33ZM57 36V57H48V36H57ZM60 33H45V60H60V33Z" fill="white"/>
<path d="M15 57.25H15.25V57V3V2.75H15H3H2.75V3V57V57.25H3H15ZM36.25 3V2.75H36H27H26.75V3V24V24.25H27H36H36.25V24V3ZM57.25 3V2.75H57H48H47.75V3V24V24.25H48H57H57.25V24V3ZM36.25 36V35.75H36H27H26.75V36V57V57.25H27H36H36.25V57V36ZM57.25 36V35.75H57H48H47.75V36V57V57.25H48H57H57.25V57V36ZM3 0.25H15C15.7293 0.25 16.4288 0.539731 16.9445 1.05546C17.4603 1.57118 17.75 2.27065 17.75 3V57C17.75 57.7293 17.4603 58.4288 16.9445 58.9445C16.4288 59.4603 15.7293 59.75 15 59.75H3C2.27065 59.75 1.57118 59.4603 1.05546 58.9445C0.539731 58.4288 0.25 57.7293 0.25 57V3C0.25 2.27065 0.539731 1.57118 1.05546 1.05546C1.57118 0.539731 2.27065 0.25 3 0.25ZM24.25 26.75V0.25H38.75V26.75H24.25ZM45.25 26.75V0.25H59.75V26.75H45.25ZM24.25 59.75V33.25H38.75V59.75H24.25ZM45.25 59.75V33.25H59.75V59.75H45.25Z" stroke="#CC1111" stroke-opacity="0.960784" stroke-width="0.5"/>
</svg>
