<svg width="64" height="64" viewBox="0 0 64 64" fill="none" xmlns="http://www.w3.org/2000/svg">
<path d="M20.9966 27.4867L20.6499 25.8534M37.2999 24.0201L36.9533 22.3867M20.3333 43.9001C24.5266 44.9534 29.2866 44.9534 34.0766 43.6701C38.8633 42.3867 42.9832 40.0067 46.0899 37.0001" stroke="black" stroke-width="2.5" stroke-linecap="round" stroke-linejoin="round"/>
<path d="M33.9565 44.1233L35.5499 47.37C35.8381 47.9613 36.2402 48.4898 36.733 48.9254C37.2259 49.361 37.7998 49.6951 38.422 49.9085C39.0442 50.1219 39.7024 50.2104 40.3588 50.169C41.0153 50.1276 41.6571 49.9571 42.2476 49.6673C42.838 49.3774 43.3655 48.9739 43.7997 48.4799C44.234 47.9858 44.5665 47.411 44.7782 46.7882C44.9899 46.1655 45.0766 45.507 45.0334 44.8507C44.9903 44.1944 44.818 43.553 44.5265 42.9633L42.9932 39.8467" stroke="black" stroke-width="2.5" stroke-linecap="round" stroke-linejoin="round"/>
<path d="M32 62C48.5685 62 62 48.5685 62 32C62 15.4315 48.5685 2 32 2C15.4315 2 2 15.4315 2 32C2 48.5685 15.4315 62 32 62Z" stroke="black" stroke-width="2.5" stroke-linecap="round" stroke-linejoin="round"/>
</svg>
