<svg width="20" height="21" viewBox="0 0 20 21" fill="none" xmlns="http://www.w3.org/2000/svg">
<path d="M8.95924 4.6041L5.26758 2.7791C3.27591 1.8041 1.64258 2.79577 1.64258 4.9791V17.3458C1.64258 18.2958 2.43424 19.0708 3.40091 19.0708H9.58424C10.0426 19.0708 10.4176 18.6958 10.4176 18.2374V6.91243C10.4176 6.03743 9.75924 4.99577 8.95924 4.6041ZM7.47591 12.1958H4.58424C4.24258 12.1958 3.95924 11.9124 3.95924 11.5708C3.95924 11.2291 4.24258 10.9458 4.58424 10.9458H7.47591C7.81758 10.9458 8.10091 11.2291 8.10091 11.5708C8.10091 11.9124 7.82591 12.1958 7.47591 12.1958ZM7.47591 8.86243H4.58424C4.24258 8.86243 3.95924 8.5791 3.95924 8.23743C3.95924 7.89577 4.24258 7.61243 4.58424 7.61243H7.47591C7.81758 7.61243 8.10091 7.89577 8.10091 8.23743C8.10091 8.5791 7.82591 8.86243 7.47591 8.86243Z" fill="#7649B3"/>
<path d="M18.3327 15.771V16.9877C18.3327 18.1377 17.3993 19.071 16.2493 19.071H12.4743C12.0243 19.071 11.666 18.7127 11.666 18.2627V16.4627C12.5577 16.571 13.4993 16.3127 14.1743 15.771C14.741 16.2293 15.466 16.5043 16.2577 16.5043C17.0327 16.5043 17.7577 16.2293 18.3327 15.771Z" fill="#7649B3"/>
<path d="M18.3327 13.2793V13.2876C18.266 14.3793 17.3743 15.2543 16.2577 15.2543C15.0993 15.2543 14.1743 14.3126 14.1743 13.171C14.1743 14.446 12.9993 15.471 11.666 15.2126V10.7376C11.666 10.2043 12.1577 9.80432 12.6827 9.92098L14.1743 10.2543L14.5743 10.346L16.2743 10.7293C16.6827 10.8126 17.0577 10.9543 17.3827 11.1626C17.3827 11.171 17.391 11.171 17.391 11.171C17.4743 11.2293 17.5577 11.296 17.6327 11.371C18.016 11.7543 18.266 12.3126 18.3243 13.1293C18.3243 13.1793 18.3327 13.2293 18.3327 13.2793Z" fill="#7649B3"/>
</svg>
