<svg width="26" height="26" viewBox="0 0 26 26" fill="none" xmlns="http://www.w3.org/2000/svg">
<path d="M22.6653 23.1051C22.6653 23.406 22.4288 23.6425 22.1279 23.6425H3.66526C3.36436 23.6425 3.12793 23.406 3.12793 23.1051C3.12793 18.656 7.51254 15.0452 12.8966 15.0452C14.0035 15.0452 15.0782 15.1956 16.0669 15.4857C15.4328 16.238 15.0459 17.216 15.0459 18.2691C15.0459 19.0751 15.2716 19.8382 15.6692 20.4829C15.8841 20.8483 16.1636 21.1814 16.486 21.4609C17.2382 22.1486 18.2377 22.5678 19.3446 22.5678C20.5482 22.5678 21.6336 22.0734 22.4074 21.2782C22.5793 21.8585 22.6653 22.4711 22.6653 23.1051Z" fill="#CC1111" fill-opacity="0.960784"/>
<path d="M22.5343 15.3998C21.7606 14.5186 20.6107 13.9705 19.3426 13.9705C18.139 13.9705 17.0428 14.4648 16.2583 15.2708C15.5061 16.0446 15.0439 17.1085 15.0439 18.2691C15.0439 19.0751 15.2696 19.8381 15.6672 20.4829C15.8822 20.8483 16.1616 21.1814 16.484 21.4608C17.2362 22.1486 18.2357 22.5677 19.3426 22.5677C20.9116 22.5677 22.2764 21.7295 23.0179 20.4829C23.2436 20.1175 23.4156 19.6984 23.5123 19.2685C23.5983 18.9461 23.6412 18.613 23.6412 18.2691C23.6412 17.1729 23.2221 16.1628 22.5343 15.3998ZM20.9546 19.0536H20.1486V19.8919C20.1486 20.3325 19.7832 20.6978 19.3426 20.6978C18.902 20.6978 18.5366 20.3325 18.5366 19.8919V19.0536H17.7306C17.29 19.0536 16.9246 18.6882 16.9246 18.2476C16.9246 17.807 17.29 17.4416 17.7306 17.4416H18.5366V16.6786C18.5366 16.238 18.902 15.8726 19.3426 15.8726C19.7832 15.8726 20.1486 16.238 20.1486 16.6786V17.4416H20.9546C21.3952 17.4416 21.7606 17.807 21.7606 18.2476C21.7606 18.6882 21.3952 19.0536 20.9546 19.0536Z" fill="#CC1111" fill-opacity="0.960784"/>
<path d="M22.0742 15.8038L22.0742 15.8038C21.4154 15.0535 20.4325 14.5828 19.3426 14.5828C18.3097 14.5828 17.3703 15.0064 16.6974 15.6977L22.0742 15.8038ZM22.0742 15.8038L22.0795 15.8098M22.0742 15.8038L22.0795 15.8098M22.0795 15.8098C22.6706 16.4655 23.0289 17.3313 23.0289 18.2691C23.0289 18.5614 22.9924 18.8414 22.9206 19.1108L22.9175 19.1224L22.9149 19.1341C22.8331 19.4977 22.6869 19.8535 22.497 20.1611L22.4969 20.1611L22.4917 20.1699C21.8564 21.2378 20.6878 21.9554 19.3426 21.9554C18.3941 21.9554 17.5407 21.5973 16.8972 21.0089L16.8912 21.0034L16.885 20.9981C16.6115 20.761 16.3754 20.479 16.195 20.1724L16.1951 20.1724M22.0795 15.8098L16.1951 20.1724M16.1951 20.1724L16.1884 20.1615M16.1951 20.1724L16.1884 20.1615M16.1884 20.1615C15.8497 19.6122 15.6563 18.9603 15.6563 18.2691C15.6563 17.273 16.0526 16.361 16.6971 15.6979L16.1884 20.1615ZM20.7609 19.8919V19.6659H20.9546C21.7334 19.6659 22.3729 19.0264 22.3729 18.2476C22.3729 17.4688 21.7334 16.8293 20.9546 16.8293H20.7609V16.6786C20.7609 15.8998 20.1214 15.2603 19.3426 15.2603C18.5638 15.2603 17.9243 15.8998 17.9243 16.6786V16.8293H17.7306C16.9518 16.8293 16.3123 17.4688 16.3123 18.2476C16.3123 19.0264 16.9518 19.6659 17.7306 19.6659H17.9243V19.8919C17.9243 20.6706 18.5638 21.3102 19.3426 21.3102C20.1214 21.3102 20.7609 20.6706 20.7609 19.8919Z" stroke="#CC1111" stroke-opacity="0.960784" stroke-width="1.22468"/>
<path d="M17.3506 7.52272C17.3506 9.98304 15.3561 11.9775 12.8958 11.9775C10.4354 11.9775 8.44097 9.98304 8.44097 7.52272C8.44097 5.0624 10.4354 3.06792 12.8958 3.06792C15.3561 3.06792 17.3506 5.0624 17.3506 7.52272Z" stroke="#CC1111" stroke-opacity="0.960784" stroke-width="1.83702"/>
</svg>
