<svg width="22" height="22" viewBox="0 0 22 22" fill="none" xmlns="http://www.w3.org/2000/svg">
<path d="M14.6667 1.8335H7.33333C4.125 1.8335 2.75 3.66683 2.75 6.41683V15.5835C2.75 18.3335 4.125 20.1668 7.33333 20.1668H14.6667C17.875 20.1668 19.25 18.3335 19.25 15.5835V6.41683C19.25 3.66683 17.875 1.8335 14.6667 1.8335ZM7.33333 11.2293H11C11.3758 11.2293 11.6875 11.541 11.6875 11.9168C11.6875 12.2927 11.3758 12.6043 11 12.6043H7.33333C6.9575 12.6043 6.64583 12.2927 6.64583 11.9168C6.64583 11.541 6.9575 11.2293 7.33333 11.2293ZM14.6667 16.271H7.33333C6.9575 16.271 6.64583 15.9593 6.64583 15.5835C6.64583 15.2077 6.9575 14.896 7.33333 14.896H14.6667C15.0425 14.896 15.3542 15.2077 15.3542 15.5835C15.3542 15.9593 15.0425 16.271 14.6667 16.271ZM16.9583 8.47933H15.125C13.7317 8.47933 12.6042 7.35183 12.6042 5.9585V4.12516C12.6042 3.74933 12.9158 3.43766 13.2917 3.43766C13.6675 3.43766 13.9792 3.74933 13.9792 4.12516V5.9585C13.9792 6.591 14.4925 7.10433 15.125 7.10433H16.9583C17.3342 7.10433 17.6458 7.416 17.6458 7.79183C17.6458 8.16766 17.3342 8.47933 16.9583 8.47933Z" fill="#7649B3"/>
</svg>
