<svg width="74" height="56" viewBox="0 0 74 56" fill="none" xmlns="http://www.w3.org/2000/svg">
<mask id="path-1-inside-1_33_2543" fill="white">
<path d="M7.82481 20.5201C7.32849 20.5201 6.91177 20.3504 6.57465 20.0109C6.23753 19.6715 6.06897 19.2536 6.06897 18.7572C6.06897 18.2609 6.23753 17.8442 6.57465 17.5071C6.91177 17.17 7.32849 17.0026 7.82481 17.0049H18.7672C19.8886 17.0049 20.8894 17.3327 21.7697 17.9882C22.65 18.6437 23.2704 19.4865 23.6309 20.5166L7.82481 20.5201ZM14.9851 51.9848C18.1363 51.9848 20.8145 50.8833 23.0199 48.6803C25.2252 46.4773 26.3279 43.7979 26.3279 40.6421C26.3279 37.4862 25.2252 34.8068 23.0199 32.6038C20.8145 30.4008 18.1363 29.2982 14.9851 29.2958C11.834 29.2935 9.15457 30.3961 6.94689 32.6038C4.73921 34.8115 3.63654 37.4909 3.63888 40.6421C3.64123 43.7932 4.74389 46.4726 6.94689 48.6803C9.14989 50.888 11.8293 51.9907 14.9851 51.9883M63.3375 51.9883C65.2502 51.9883 66.8995 51.2953 68.2855 49.9094C69.6691 48.5258 70.3609 46.8776 70.3609 44.9649C70.3609 43.0522 69.6691 41.4029 68.2855 40.017C66.9019 38.631 65.2525 37.9392 63.3375 37.9416C61.4225 37.9439 59.7732 38.6357 58.3895 40.017C57.0059 41.3982 56.3141 43.0476 56.3141 44.9649C56.3141 46.8823 57.0059 48.5305 58.3895 49.9094C59.7732 51.2883 61.4225 51.9813 63.3375 51.9883ZM14.9676 44.5576C13.8743 44.5576 12.9507 44.176 12.1969 43.4128C11.443 42.6496 11.0661 41.7213 11.0661 40.628C11.0661 39.5347 11.4489 38.61 12.2144 37.8538C12.98 37.1023 13.9082 36.7265 14.9992 36.7265C16.0925 36.7265 17.0161 37.1081 17.7699 37.8713C18.5237 38.6369 18.9007 39.5651 18.9007 40.6561C18.9007 41.7494 18.5179 42.6742 17.7523 43.4303C16.9891 44.1842 16.0609 44.5576 14.9676 44.5576ZM64.9599 34.5177C65.6716 34.6745 66.2768 34.8443 66.7755 35.0269C67.2741 35.2095 67.8395 35.5197 68.4716 35.9575V17.4123C68.4716 15.8507 67.9156 14.5151 66.8035 13.4054C65.6915 12.2957 64.3571 11.7397 62.8002 11.7374H44.7256L41.0383 7.87454L45.9547 2.95818L43.4965 0.5L31.03 12.9665L33.6638 15.4247L38.5801 10.5083L42.2674 14.1956V19.572C42.2674 22.2455 41.3157 24.5351 39.4124 26.4408C37.5091 28.3465 35.2195 29.2982 32.5436 29.2958H24.5545C25.224 29.8858 25.766 30.4371 26.1804 30.9498C26.5948 31.4649 27.0536 32.0853 27.557 32.811H32.5436C36.2261 32.811 39.3527 31.5246 41.9233 28.9517C44.4938 26.3788 45.7791 23.2522 45.7791 19.572V15.2526H62.7967C63.4288 15.2526 63.9474 15.4539 64.3524 15.8566C64.7574 16.2616 64.9599 16.779 64.9599 17.4088V34.5177ZM53.0904 42.3979C53.3081 41.6722 53.5294 41.0576 53.7541 40.5543C53.9789 40.0509 54.3277 39.4949 54.8006 38.8862H29.6956C29.7939 39.5605 29.8431 40.1457 29.8431 40.6421C29.8431 41.1384 29.7939 41.7237 29.6956 42.3979H53.0904ZM63.3375 55.4965C60.3924 55.4965 57.9003 54.4781 55.8611 52.4413C53.822 50.3999 52.8025 47.9066 52.8025 44.9614C52.8025 42.0163 53.822 39.5253 55.8611 37.4886C57.9003 35.4518 60.3924 34.4322 63.3375 34.4299C66.2826 34.4276 68.7748 35.4471 70.8139 37.4886C72.853 39.53 73.8726 42.0222 73.8726 44.9649C73.8726 47.9077 72.853 50.3987 70.8139 52.4378C68.7748 54.4793 66.2826 55.5 63.3375 55.5M14.9816 55.5C10.873 55.5 7.37063 54.0508 4.47466 51.1525C1.5787 48.2542 0.129541 44.7507 0.1272 40.6421C0.124859 36.5334 1.57401 33.0299 4.47466 30.1316C7.37532 27.2333 10.8788 25.7841 14.9851 25.7841C19.0915 25.7841 22.595 27.2333 25.4956 30.1316C28.3963 33.0299 29.8454 36.5334 29.8431 40.6421C29.8407 44.7507 28.3916 48.2542 25.4956 51.1525C22.5996 54.0508 19.0926 55.5 14.9816 55.5Z"/>
</mask>
<path d="M7.82481 20.5201C7.32849 20.5201 6.91177 20.3504 6.57465 20.0109C6.23753 19.6715 6.06897 19.2536 6.06897 18.7572C6.06897 18.2609 6.23753 17.8442 6.57465 17.5071C6.91177 17.17 7.32849 17.0026 7.82481 17.0049H18.7672C19.8886 17.0049 20.8894 17.3327 21.7697 17.9882C22.65 18.6437 23.2704 19.4865 23.6309 20.5166L7.82481 20.5201ZM14.9851 51.9848C18.1363 51.9848 20.8145 50.8833 23.0199 48.6803C25.2252 46.4773 26.3279 43.7979 26.3279 40.6421C26.3279 37.4862 25.2252 34.8068 23.0199 32.6038C20.8145 30.4008 18.1363 29.2982 14.9851 29.2958C11.834 29.2935 9.15457 30.3961 6.94689 32.6038C4.73921 34.8115 3.63654 37.4909 3.63888 40.6421C3.64123 43.7932 4.74389 46.4726 6.94689 48.6803C9.14989 50.888 11.8293 51.9907 14.9851 51.9883M63.3375 51.9883C65.2502 51.9883 66.8995 51.2953 68.2855 49.9094C69.6691 48.5258 70.3609 46.8776 70.3609 44.9649C70.3609 43.0522 69.6691 41.4029 68.2855 40.017C66.9019 38.631 65.2525 37.9392 63.3375 37.9416C61.4225 37.9439 59.7732 38.6357 58.3895 40.017C57.0059 41.3982 56.3141 43.0476 56.3141 44.9649C56.3141 46.8823 57.0059 48.5305 58.3895 49.9094C59.7732 51.2883 61.4225 51.9813 63.3375 51.9883ZM14.9676 44.5576C13.8743 44.5576 12.9507 44.176 12.1969 43.4128C11.443 42.6496 11.0661 41.7213 11.0661 40.628C11.0661 39.5347 11.4489 38.61 12.2144 37.8538C12.98 37.1023 13.9082 36.7265 14.9992 36.7265C16.0925 36.7265 17.0161 37.1081 17.7699 37.8713C18.5237 38.6369 18.9007 39.5651 18.9007 40.6561C18.9007 41.7494 18.5179 42.6742 17.7523 43.4303C16.9891 44.1842 16.0609 44.5576 14.9676 44.5576ZM64.9599 34.5177C65.6716 34.6745 66.2768 34.8443 66.7755 35.0269C67.2741 35.2095 67.8395 35.5197 68.4716 35.9575V17.4123C68.4716 15.8507 67.9156 14.5151 66.8035 13.4054C65.6915 12.2957 64.3571 11.7397 62.8002 11.7374H44.7256L41.0383 7.87454L45.9547 2.95818L43.4965 0.5L31.03 12.9665L33.6638 15.4247L38.5801 10.5083L42.2674 14.1956V19.572C42.2674 22.2455 41.3157 24.5351 39.4124 26.4408C37.5091 28.3465 35.2195 29.2982 32.5436 29.2958H24.5545C25.224 29.8858 25.766 30.4371 26.1804 30.9498C26.5948 31.4649 27.0536 32.0853 27.557 32.811H32.5436C36.2261 32.811 39.3527 31.5246 41.9233 28.9517C44.4938 26.3788 45.7791 23.2522 45.7791 19.572V15.2526H62.7967C63.4288 15.2526 63.9474 15.4539 64.3524 15.8566C64.7574 16.2616 64.9599 16.779 64.9599 17.4088V34.5177ZM53.0904 42.3979C53.3081 41.6722 53.5294 41.0576 53.7541 40.5543C53.9789 40.0509 54.3277 39.4949 54.8006 38.8862H29.6956C29.7939 39.5605 29.8431 40.1457 29.8431 40.6421C29.8431 41.1384 29.7939 41.7237 29.6956 42.3979H53.0904ZM63.3375 55.4965C60.3924 55.4965 57.9003 54.4781 55.8611 52.4413C53.822 50.3999 52.8025 47.9066 52.8025 44.9614C52.8025 42.0163 53.822 39.5253 55.8611 37.4886C57.9003 35.4518 60.3924 34.4322 63.3375 34.4299C66.2826 34.4276 68.7748 35.4471 70.8139 37.4886C72.853 39.53 73.8726 42.0222 73.8726 44.9649C73.8726 47.9077 72.853 50.3987 70.8139 52.4378C68.7748 54.4793 66.2826 55.5 63.3375 55.5M14.9816 55.5C10.873 55.5 7.37063 54.0508 4.47466 51.1525C1.5787 48.2542 0.129541 44.7507 0.1272 40.6421C0.124859 36.5334 1.57401 33.0299 4.47466 30.1316C7.37532 27.2333 10.8788 25.7841 14.9851 25.7841C19.0915 25.7841 22.595 27.2333 25.4956 30.1316C28.3963 33.0299 29.8454 36.5334 29.8431 40.6421C29.8407 44.7507 28.3916 48.2542 25.4956 51.1525C22.5996 54.0508 19.0926 55.5 14.9816 55.5Z" fill="black"/>
<path d="M7.82481 20.5201V20.8201H7.82488L7.82481 20.5201ZM7.82481 17.0049L7.8234 17.3049H7.82481V17.0049ZM23.6309 20.5166L23.631 20.8166L24.0537 20.8165L23.9141 20.4175L23.6309 20.5166ZM63.3375 51.9883L63.3364 52.2883H63.3375V51.9883ZM12.2144 37.8538L12.0043 37.6397L12.0036 37.6404L12.2144 37.8538ZM17.7699 37.8713L17.9837 37.6609L17.9833 37.6605L17.7699 37.8713ZM17.7523 43.4303L17.9632 43.6438L17.9632 43.6438L17.7523 43.4303ZM64.9599 34.5177H64.6599V34.7588L64.8953 34.8106L64.9599 34.5177ZM68.4716 35.9575L68.3008 36.2041L68.7716 36.5302V35.9575H68.4716ZM62.8002 11.7374L62.8007 11.4374H62.8002V11.7374ZM44.7256 11.7374L44.5086 11.9445L44.5972 12.0374H44.7256V11.7374ZM41.0383 7.87454L40.8262 7.66241L40.6189 7.86966L40.8213 8.08168L41.0383 7.87454ZM45.9547 2.95818L46.1668 3.17031L46.3789 2.95818L46.1668 2.74605L45.9547 2.95818ZM43.4965 0.5L43.7086 0.287868L43.4965 0.0757359L43.2844 0.287868L43.4965 0.5ZM31.03 12.9665L30.8179 12.7543L30.5983 12.9739L30.8253 13.1858L31.03 12.9665ZM33.6638 15.4247L33.4591 15.644L33.671 15.8417L33.8759 15.6368L33.6638 15.4247ZM38.5801 10.5083L38.7923 10.2962L38.5801 10.084L38.368 10.2962L38.5801 10.5083ZM42.2674 14.1956H42.5674V14.0713L42.4795 13.9834L42.2674 14.1956ZM32.5436 29.2958L32.5438 28.9958H32.5436V29.2958ZM24.5545 29.2958V28.9958H23.7602L24.3561 29.5209L24.5545 29.2958ZM26.1804 30.9498L26.4141 30.7618L26.4137 30.7612L26.1804 30.9498ZM27.557 32.811L27.3105 32.982L27.3999 33.111H27.557V32.811ZM45.7791 19.572H46.0791H45.7791ZM45.7791 15.2526V14.9526H45.4791V15.2526H45.7791ZM64.3524 15.8566L64.5645 15.6445L64.5639 15.6438L64.3524 15.8566ZM53.0904 42.3979V42.6979H53.3136L53.3778 42.4841L53.0904 42.3979ZM54.8006 38.8862L55.0375 39.0703L55.4136 38.5862H54.8006V38.8862ZM29.6956 38.8862V38.5862H29.3487L29.3987 38.9295L29.6956 38.8862ZM29.6956 42.3979L29.3987 42.3546L29.3487 42.6979H29.6956V42.3979ZM55.8611 52.4413L55.6489 52.6533L55.6491 52.6536L55.8611 52.4413ZM70.8139 52.4378L70.6018 52.2257L70.6016 52.2258L70.8139 52.4378ZM7.82481 20.2201C7.40508 20.2201 7.06601 20.0799 6.78752 19.7995L6.36179 20.2223C6.75754 20.6208 7.25191 20.8201 7.82481 20.8201V20.2201ZM6.78752 19.7995C6.50849 19.5186 6.36897 19.1777 6.36897 18.7572H5.76897C5.76897 19.3295 5.96657 19.8243 6.36179 20.2223L6.78752 19.7995ZM6.36897 18.7572C6.36897 18.3369 6.50845 17.9976 6.78678 17.7192L6.36252 17.295C5.96661 17.6909 5.76897 18.185 5.76897 18.7572H6.36897ZM6.78678 17.7192C7.06475 17.4412 7.40346 17.3029 7.8234 17.3049L7.82623 16.7049C7.25352 16.7022 6.75879 16.8987 6.36252 17.295L6.78678 17.7192ZM7.82481 17.3049H18.7672V16.7049H7.82481V17.3049ZM18.7672 17.3049C19.8256 17.3049 20.7632 17.6127 21.5905 18.2288L21.9489 17.7476C21.0156 17.0526 19.9517 16.7049 18.7672 16.7049V17.3049ZM21.5905 18.2288C22.4231 18.8488 23.0071 19.6424 23.3477 20.6157L23.9141 20.4175C23.5336 19.3306 22.8769 18.4386 21.9489 17.7476L21.5905 18.2288ZM23.6308 20.2166L7.82474 20.2201L7.82488 20.8201L23.631 20.8166L23.6308 20.2166ZM14.9851 52.2848C18.2148 52.2848 20.9696 51.1524 23.2319 48.8925L22.8078 48.4681C20.6595 50.6142 18.0578 51.6848 14.9851 51.6848V52.2848ZM23.2319 48.8925C25.4943 46.6325 26.6279 43.8764 26.6279 40.6421H26.0279C26.0279 43.7194 24.9561 46.3221 22.8078 48.4681L23.2319 48.8925ZM26.6279 40.6421C26.6279 37.4077 25.4943 34.6516 23.2319 32.3916L22.8078 32.8161C24.9561 34.962 26.0279 37.5647 26.0279 40.6421H26.6279ZM23.2319 32.3916C20.9697 30.1318 18.215 28.9982 14.9854 28.9958L14.9849 29.5958C18.0576 29.5981 20.6594 30.6699 22.8078 32.8161L23.2319 32.3916ZM14.9854 28.9958C11.7554 28.9934 8.99934 30.1271 6.73476 32.3917L7.15902 32.8159C9.3098 30.6652 11.9126 29.5935 14.9849 29.5958L14.9854 28.9958ZM6.73476 32.3917C4.47018 34.6563 3.33648 37.4123 3.33888 40.6423L3.93888 40.6418C3.9366 37.5695 5.00825 34.9667 7.15902 32.8159L6.73476 32.3917ZM3.33888 40.6423C3.34128 43.8719 4.47482 46.6277 6.73453 48.8922L7.15925 48.4684C5.01297 46.3176 3.94117 43.7145 3.93888 40.6418L3.33888 40.6423ZM6.73453 48.8922C8.99461 51.1571 11.7508 52.2907 14.9854 52.2883L14.9849 51.6883C11.9078 51.6906 9.30516 50.6189 7.15925 48.4684L6.73453 48.8922ZM63.3375 52.2883C65.332 52.2883 67.057 51.5622 68.4976 50.1215L68.0733 49.6973C66.7421 51.0285 65.1685 51.6883 63.3375 51.6883V52.2883ZM68.4976 50.1215C69.936 48.6831 70.6609 46.9592 70.6609 44.9649H70.0609C70.0609 46.7961 69.4021 48.3685 68.0733 49.6973L68.4976 50.1215ZM70.6609 44.9649C70.6609 42.9707 69.936 41.2457 68.4978 39.805L68.0732 40.2289C69.4021 41.5601 70.0609 43.1338 70.0609 44.9649H70.6609ZM68.4978 39.805C67.0592 38.3641 65.334 37.6391 63.3371 37.6416L63.3379 38.2416C65.1711 38.2393 66.7445 38.898 68.0732 40.2289L68.4978 39.805ZM63.3371 37.6416C61.3409 37.644 59.616 38.3687 58.1776 39.8047L58.6015 40.2293C59.9303 38.9028 61.504 38.2438 63.3379 38.2416L63.3371 37.6416ZM58.1776 39.8047C56.7389 41.241 56.0141 42.9662 56.0141 44.9649H56.6141C56.6141 43.129 57.273 41.5555 58.6015 40.2293L58.1776 39.8047ZM56.0141 44.9649C56.0141 46.9637 56.7389 48.6879 58.1778 50.1219L58.6013 49.6969C57.273 48.3731 56.6141 46.8009 56.6141 44.9649H56.0141ZM58.1778 50.1219C59.6161 51.5553 61.3406 52.281 63.3364 52.2883L63.3386 51.6883C61.5043 51.6816 59.9302 51.0213 58.6013 49.6969L58.1778 50.1219ZM14.9676 44.2576C13.9528 44.2576 13.1066 43.9069 12.4103 43.202L11.9834 43.6236C12.7948 44.4451 13.7958 44.8576 14.9676 44.8576V44.2576ZM12.4103 43.202C11.7131 42.4961 11.3661 41.6441 11.3661 40.628H10.7661C10.7661 41.7985 11.1729 42.803 11.9834 43.6236L12.4103 43.202ZM11.3661 40.628C11.3661 39.6135 11.7178 38.766 12.4252 38.0672L12.0036 37.6404C11.18 38.4539 10.7661 39.456 10.7661 40.628H11.3661ZM12.4246 38.0679C13.133 37.3725 13.9853 37.0265 14.9992 37.0265V36.4265C13.8311 36.4265 12.827 36.8321 12.0043 37.6397L12.4246 38.0679ZM14.9992 37.0265C16.014 37.0265 16.8602 37.3772 17.5565 38.0822L17.9833 37.6605C17.1719 36.839 16.171 36.4265 14.9992 36.4265V37.0265ZM17.5561 38.0818C18.2538 38.7903 18.6007 39.6425 18.6007 40.6561H19.2007C19.2007 39.4877 18.7937 38.4835 17.9837 37.6609L17.5561 38.0818ZM18.6007 40.6561C18.6007 41.6707 18.249 42.5181 17.5415 43.2169L17.9632 43.6438C18.7868 42.8302 19.2007 41.8282 19.2007 40.6561H18.6007ZM17.5415 43.2169C16.8362 43.9136 15.9844 44.2576 14.9676 44.2576V44.8576C16.1374 44.8576 17.1421 44.4547 17.9632 43.6438L17.5415 43.2169ZM64.8953 34.8106C65.5984 34.9656 66.1899 35.1319 66.6723 35.3086L66.8786 34.7452C66.3637 34.5566 65.7448 34.3835 65.0245 34.2247L64.8953 34.8106ZM66.6723 35.3086C67.1389 35.4795 67.6812 35.775 68.3008 36.2041L68.6424 35.7108C67.9978 35.2644 67.4093 34.9395 66.8786 34.7452L66.6723 35.3086ZM68.7716 35.9575V17.4123H68.1716V35.9575H68.7716ZM68.7716 17.4123C68.7716 15.7705 68.1835 14.3587 67.0154 13.1931L66.5916 13.6178C67.6477 14.6716 68.1716 15.931 68.1716 17.4123H68.7716ZM67.0154 13.1931C65.8479 12.0279 64.4376 11.4399 62.8007 11.4374L62.7998 12.0374C64.2765 12.0396 65.5352 12.5635 66.5916 13.6178L67.0154 13.1931ZM62.8002 11.4374H44.7256V12.0374H62.8002V11.4374ZM44.9426 11.5302L41.2553 7.66739L40.8213 8.08168L44.5086 11.9445L44.9426 11.5302ZM41.2505 8.08667L46.1668 3.17031L45.7425 2.74605L40.8262 7.66241L41.2505 8.08667ZM46.1668 2.74605L43.7086 0.287868L43.2844 0.712132L45.7425 3.17031L46.1668 2.74605ZM43.2844 0.287868L30.8179 12.7543L31.2422 13.1786L43.7086 0.712132L43.2844 0.287868ZM30.8253 13.1858L33.4591 15.644L33.8685 15.2053L31.2347 12.7472L30.8253 13.1858ZM33.8759 15.6368L38.7923 10.7204L38.368 10.2962L33.4517 15.2125L33.8759 15.6368ZM38.368 10.7204L42.0553 14.4077L42.4795 13.9834L38.7923 10.2962L38.368 10.7204ZM41.9674 14.1956V19.572H42.5674V14.1956H41.9674ZM41.9674 19.572C41.9674 22.1654 41.0478 24.3789 39.2001 26.2288L39.6247 26.6528C41.5837 24.6914 42.5674 22.3257 42.5674 19.572H41.9674ZM39.2001 26.2288C37.3527 28.0785 35.1394 28.9981 32.5438 28.9958L32.5433 29.5958C35.2995 29.5982 37.6654 28.6145 39.6247 26.6528L39.2001 26.2288ZM32.5436 28.9958H24.5545V29.5958H32.5436V28.9958ZM24.3561 29.5209C25.0172 30.1033 25.5463 30.6425 25.9471 31.1384L26.4137 30.7612C25.9857 30.2317 25.4309 29.6682 24.7528 29.0707L24.3561 29.5209ZM25.9466 31.1379C26.3554 31.6459 26.8099 32.2603 27.3105 32.982L27.8035 32.64C27.2973 31.9102 26.8342 31.2838 26.4141 30.7618L25.9466 31.1379ZM27.557 33.111H32.5436V32.511H27.557V33.111ZM32.5436 33.111C36.3046 33.111 39.5079 31.7937 42.1355 29.1637L41.711 28.7396C39.1975 31.2554 36.1477 32.511 32.5436 32.511V33.111ZM42.1355 29.1637C44.763 26.5338 46.0791 23.3307 46.0791 19.572H45.4791C45.4791 23.1737 44.2246 26.2237 41.711 28.7396L42.1355 29.1637ZM46.0791 19.572V15.2526H45.4791V19.572H46.0791ZM45.7791 15.5526H62.7967V14.9526H45.7791V15.5526ZM62.7967 15.5526C63.3588 15.5526 63.7983 15.7288 64.1409 16.0693L64.5639 15.6438C64.0964 15.1791 63.4988 14.9526 62.7967 14.9526V15.5526ZM64.1403 16.0687C64.4831 16.4116 64.6599 16.8499 64.6599 17.4088H65.2599C65.2599 16.7081 65.0317 16.1116 64.5645 15.6445L64.1403 16.0687ZM64.6599 17.4088V34.5177H65.2599V17.4088H64.6599ZM53.3778 42.4841C53.5931 41.7665 53.8101 41.1648 54.0281 40.6766L53.4802 40.432C53.2487 40.9505 53.0232 41.5778 52.8031 42.3117L53.3778 42.4841ZM54.0281 40.6766C54.24 40.202 54.574 39.6669 55.0375 39.0703L54.5637 38.7022C54.0814 39.323 53.7178 39.8999 53.4802 40.432L54.0281 40.6766ZM54.8006 38.5862H29.6956V39.1862H54.8006V38.5862ZM29.3987 38.9295C29.4957 39.5943 29.5431 40.1644 29.5431 40.6421H30.1431C30.1431 40.127 30.0921 39.5266 29.9924 38.8429L29.3987 38.9295ZM29.5431 40.6421C29.5431 41.1197 29.4957 41.6898 29.3987 42.3546L29.9924 42.4412C30.0921 41.7575 30.1431 41.1571 30.1431 40.6421H29.5431ZM29.6956 42.6979H53.0904V42.0979H29.6956V42.6979ZM63.3375 55.1965C60.4699 55.1965 58.0547 54.2083 56.0732 52.2291L55.6491 52.6536C57.7459 54.7479 60.3148 55.7965 63.3375 55.7965V55.1965ZM56.0734 52.2293C54.0918 50.2454 53.1025 47.8289 53.1025 44.9614H52.5025C52.5025 47.9842 53.5523 50.5543 55.6489 52.6533L56.0734 52.2293ZM53.1025 44.9614C53.1025 42.094 54.0917 39.68 56.0732 37.7008L55.6491 37.2763C53.5523 39.3707 52.5025 41.9386 52.5025 44.9614H53.1025ZM56.0732 37.7008C58.0547 35.7215 60.4701 34.7322 63.3377 34.7299L63.3373 34.1299C60.3147 34.1323 57.7458 35.182 55.6491 37.2763L56.0732 37.7008ZM63.3377 34.7299C66.205 34.7276 68.6201 35.7168 70.6016 37.7006L71.0261 37.2766C68.9294 35.1774 66.3603 34.1275 63.3373 34.1299L63.3377 34.7299ZM70.6016 37.7006C72.5833 39.6845 73.5726 42.0999 73.5726 44.9649H74.1726C74.1726 41.9444 73.1227 39.3755 71.0261 37.2766L70.6016 37.7006ZM73.5726 44.9649C73.5726 47.83 72.5833 50.2441 70.6018 52.2257L71.026 52.6499C73.1227 50.5533 74.1726 47.9855 74.1726 44.9649H73.5726ZM70.6016 52.2258C68.6201 54.2096 66.2049 55.2 63.3375 55.2V55.8C66.3604 55.8 68.9295 54.7489 71.0261 52.6498L70.6016 52.2258ZM14.9816 55.2C10.9523 55.2 7.52641 53.7823 4.68688 50.9405L4.26245 51.3646C7.21486 54.3194 10.7936 55.8 14.9816 55.8V55.2ZM4.68688 50.9405C1.84726 48.0986 0.429496 44.6713 0.4272 40.6419L-0.1728 40.6422C-0.170414 44.8301 1.31013 48.4099 4.26245 51.3646L4.68688 50.9405ZM0.4272 40.6419C0.424904 36.6127 1.84254 33.1857 4.68671 30.3438L4.26262 29.9194C1.30549 32.8741 -0.175186 36.4541 -0.1728 40.6422L0.4272 40.6419ZM4.68671 30.3438C7.53102 27.5018 10.9582 26.0841 14.9851 26.0841V25.4841C10.7994 25.4841 7.21961 26.9648 4.26262 29.9194L4.68671 30.3438ZM14.9851 26.0841C19.0121 26.0841 22.4393 27.5018 25.2836 30.3438L25.7077 29.9194C22.7507 26.9648 19.1709 25.4841 14.9851 25.4841V26.0841ZM25.2836 30.3438C28.1277 33.1857 29.5454 36.6127 29.5431 40.6419L30.1431 40.6422C30.1455 36.4541 28.6648 32.8741 25.7077 29.9194L25.2836 30.3438ZM29.5431 40.6419C29.5408 44.6713 28.123 48.0986 25.2834 50.9405L25.7078 51.3646C28.6601 48.4099 30.1407 44.8301 30.1431 40.6422L29.5431 40.6419ZM25.2834 50.9405C22.444 53.7822 19.0134 55.2 14.9816 55.2V55.8C19.1719 55.8 22.7553 54.3195 25.7078 51.3646L25.2834 50.9405Z" fill="white" mask="url(#path-1-inside-1_33_2543)"/>
</svg>
