<svg width="74" height="56" viewBox="0 0 74 56" fill="none" xmlns="http://www.w3.org/2000/svg">
<mask id="path-1-inside-1_296_4805" fill="white">
<path d="M7.82506 20.5201C7.32874 20.5201 6.91202 20.3504 6.5749 20.0109C6.23777 19.6715 6.06921 19.2536 6.06921 18.7572C6.06921 18.2609 6.23777 17.8442 6.5749 17.5071C6.91202 17.17 7.32874 17.0026 7.82506 17.0049H18.7675C19.8889 17.0049 20.8897 17.3327 21.77 17.9882C22.6502 18.6437 23.2706 19.4865 23.6311 20.5166L7.82506 20.5201ZM14.9854 51.9848C18.1365 51.9848 20.8148 50.8833 23.0201 48.6803C25.2255 46.4773 26.3281 43.7979 26.3281 40.6421C26.3281 37.4862 25.2255 34.8068 23.0201 32.6038C20.8148 30.4008 18.1365 29.2982 14.9854 29.2958C11.8342 29.2935 9.15481 30.3961 6.94713 32.6038C4.73946 34.8115 3.63679 37.4909 3.63913 40.6421C3.64147 43.7932 4.74414 46.4726 6.94713 48.6803C9.15013 50.888 11.8295 51.9907 14.9854 51.9883M63.3378 51.9883C65.2505 51.9883 66.8998 51.2953 68.2857 49.9094C69.6693 48.5258 70.3611 46.8776 70.3611 44.9649C70.3611 43.0523 69.6693 41.4029 68.2857 40.017C66.9021 38.631 65.2528 37.9392 63.3378 37.9416C61.4227 37.9439 59.7734 38.6357 58.3898 40.017C57.0062 41.3982 56.3144 43.0476 56.3144 44.9649C56.3144 46.8823 57.0062 48.5305 58.3898 49.9094C59.7734 51.2883 61.4227 51.9813 63.3378 51.9883ZM14.9678 44.5576C13.8745 44.5576 12.9509 44.176 12.1971 43.4128C11.4433 42.6496 11.0663 41.7213 11.0663 40.628C11.0663 39.5347 11.4491 38.61 12.2147 37.8538C12.9802 37.1023 13.9085 36.7265 14.9994 36.7265C16.0927 36.7265 17.0163 37.1081 17.7701 37.8713C18.524 38.6369 18.9009 39.5651 18.9009 40.6561C18.9009 41.7494 18.5181 42.6742 17.7526 43.4303C16.9894 44.1842 16.0611 44.5576 14.9678 44.5576ZM64.9602 34.5177C65.6719 34.6745 66.277 34.8443 66.7757 35.0269C67.2744 35.2095 67.8397 35.5197 68.4718 35.9575V17.4123C68.4718 15.8507 67.9158 14.5151 66.8038 13.4054C65.6918 12.2957 64.3573 11.7397 62.8005 11.7374H44.7258L41.0386 7.87454L45.9549 2.95818L43.4967 0.5L31.0303 12.9665L33.664 15.4247L38.5804 10.5083L42.2677 14.1956V19.572C42.2677 22.2455 41.316 24.5351 39.4127 26.4408C37.5093 28.3465 35.2197 29.2982 32.5438 29.2958H24.5547C25.2243 29.8858 25.7662 30.4371 26.1806 30.9498C26.595 31.4649 27.0539 32.0853 27.5572 32.811H32.5438C36.2264 32.811 39.353 31.5246 41.9235 28.9517C44.4941 26.3788 45.7793 23.2522 45.7793 19.572V15.2526H62.797C63.4291 15.2526 63.9476 15.4539 64.3526 15.8566C64.7576 16.2616 64.9602 16.779 64.9602 17.4088V34.5177ZM53.0907 42.3979C53.3084 41.6722 53.5296 41.0576 53.7544 40.5543C53.9791 40.0509 54.3279 39.4949 54.8009 38.8862H29.6958C29.7942 39.5605 29.8433 40.1457 29.8433 40.6421C29.8433 41.1384 29.7942 41.7237 29.6958 42.3979H53.0907ZM63.3378 55.4965C60.3926 55.4965 57.9005 54.4781 55.8614 52.4413C53.8223 50.3999 52.8027 47.9066 52.8027 44.9614C52.8027 42.0163 53.8223 39.5253 55.8614 37.4886C57.9005 35.4518 60.3926 34.4322 63.3378 34.4299C66.2829 34.4276 68.775 35.4471 70.8141 37.4886C72.8532 39.53 73.8728 42.0222 73.8728 44.9649C73.8728 47.9077 72.8532 50.3987 70.8141 52.4378C68.775 54.4793 66.2829 55.5 63.3378 55.5M14.9819 55.5C10.8732 55.5 7.37088 54.0508 4.47491 51.1525C1.57894 48.2542 0.129785 44.7507 0.127444 40.6421C0.125103 36.5334 1.57426 33.0299 4.47491 30.1316C7.37556 27.2333 10.8791 25.7841 14.9854 25.7841C19.0917 25.7841 22.5952 27.2333 25.4959 30.1316C28.3965 33.0299 29.8457 36.5334 29.8433 40.6421C29.841 44.7507 28.3918 48.2542 25.4959 51.1525C22.5999 54.0508 19.0929 55.5 14.9819 55.5Z"/>
</mask>
<path d="M7.82506 20.5201C7.32874 20.5201 6.91202 20.3504 6.5749 20.0109C6.23777 19.6715 6.06921 19.2536 6.06921 18.7572C6.06921 18.2609 6.23777 17.8442 6.5749 17.5071C6.91202 17.17 7.32874 17.0026 7.82506 17.0049H18.7675C19.8889 17.0049 20.8897 17.3327 21.77 17.9882C22.6502 18.6437 23.2706 19.4865 23.6311 20.5166L7.82506 20.5201ZM14.9854 51.9848C18.1365 51.9848 20.8148 50.8833 23.0201 48.6803C25.2255 46.4773 26.3281 43.7979 26.3281 40.6421C26.3281 37.4862 25.2255 34.8068 23.0201 32.6038C20.8148 30.4008 18.1365 29.2982 14.9854 29.2958C11.8342 29.2935 9.15481 30.3961 6.94713 32.6038C4.73946 34.8115 3.63679 37.4909 3.63913 40.6421C3.64147 43.7932 4.74414 46.4726 6.94713 48.6803C9.15013 50.888 11.8295 51.9907 14.9854 51.9883M63.3378 51.9883C65.2505 51.9883 66.8998 51.2953 68.2857 49.9094C69.6693 48.5258 70.3611 46.8776 70.3611 44.9649C70.3611 43.0523 69.6693 41.4029 68.2857 40.017C66.9021 38.631 65.2528 37.9392 63.3378 37.9416C61.4227 37.9439 59.7734 38.6357 58.3898 40.017C57.0062 41.3982 56.3144 43.0476 56.3144 44.9649C56.3144 46.8823 57.0062 48.5305 58.3898 49.9094C59.7734 51.2883 61.4227 51.9813 63.3378 51.9883ZM14.9678 44.5576C13.8745 44.5576 12.9509 44.176 12.1971 43.4128C11.4433 42.6496 11.0663 41.7213 11.0663 40.628C11.0663 39.5347 11.4491 38.61 12.2147 37.8538C12.9802 37.1023 13.9085 36.7265 14.9994 36.7265C16.0927 36.7265 17.0163 37.1081 17.7701 37.8713C18.524 38.6369 18.9009 39.5651 18.9009 40.6561C18.9009 41.7494 18.5181 42.6742 17.7526 43.4303C16.9894 44.1842 16.0611 44.5576 14.9678 44.5576ZM64.9602 34.5177C65.6719 34.6745 66.277 34.8443 66.7757 35.0269C67.2744 35.2095 67.8397 35.5197 68.4718 35.9575V17.4123C68.4718 15.8507 67.9158 14.5151 66.8038 13.4054C65.6918 12.2957 64.3573 11.7397 62.8005 11.7374H44.7258L41.0386 7.87454L45.9549 2.95818L43.4967 0.5L31.0303 12.9665L33.664 15.4247L38.5804 10.5083L42.2677 14.1956V19.572C42.2677 22.2455 41.316 24.5351 39.4127 26.4408C37.5093 28.3465 35.2197 29.2982 32.5438 29.2958H24.5547C25.2243 29.8858 25.7662 30.4371 26.1806 30.9498C26.595 31.4649 27.0539 32.0853 27.5572 32.811H32.5438C36.2264 32.811 39.353 31.5246 41.9235 28.9517C44.4941 26.3788 45.7793 23.2522 45.7793 19.572V15.2526H62.797C63.4291 15.2526 63.9476 15.4539 64.3526 15.8566C64.7576 16.2616 64.9602 16.779 64.9602 17.4088V34.5177ZM53.0907 42.3979C53.3084 41.6722 53.5296 41.0576 53.7544 40.5543C53.9791 40.0509 54.3279 39.4949 54.8009 38.8862H29.6958C29.7942 39.5605 29.8433 40.1457 29.8433 40.6421C29.8433 41.1384 29.7942 41.7237 29.6958 42.3979H53.0907ZM63.3378 55.4965C60.3926 55.4965 57.9005 54.4781 55.8614 52.4413C53.8223 50.3999 52.8027 47.9066 52.8027 44.9614C52.8027 42.0163 53.8223 39.5253 55.8614 37.4886C57.9005 35.4518 60.3926 34.4322 63.3378 34.4299C66.2829 34.4276 68.775 35.4471 70.8141 37.4886C72.8532 39.53 73.8728 42.0222 73.8728 44.9649C73.8728 47.9077 72.8532 50.3987 70.8141 52.4378C68.775 54.4793 66.2829 55.5 63.3378 55.5M14.9819 55.5C10.8732 55.5 7.37088 54.0508 4.47491 51.1525C1.57894 48.2542 0.129785 44.7507 0.127444 40.6421C0.125103 36.5334 1.57426 33.0299 4.47491 30.1316C7.37556 27.2333 10.8791 25.7841 14.9854 25.7841C19.0917 25.7841 22.5952 27.2333 25.4959 30.1316C28.3965 33.0299 29.8457 36.5334 29.8433 40.6421C29.841 44.7507 28.3918 48.2542 25.4959 51.1525C22.5999 54.0508 19.0929 55.5 14.9819 55.5Z" fill="white"/>
<path d="M7.82506 20.5201L7.82506 20.8201L7.82512 20.8201L7.82506 20.5201ZM7.82506 17.0049L7.82364 17.3049H7.82506V17.0049ZM23.6311 20.5166L23.6312 20.8166L24.054 20.8165L23.9143 20.4175L23.6311 20.5166ZM63.3378 51.9883L63.3367 52.2883H63.3378V51.9883ZM12.2147 37.8538L12.0045 37.6397L12.0038 37.6404L12.2147 37.8538ZM17.7701 37.8713L17.9839 37.6609L17.9836 37.6605L17.7701 37.8713ZM17.7526 43.4303L17.9634 43.6438L17.9634 43.6438L17.7526 43.4303ZM64.9602 34.5177H64.6602V34.7588L64.8956 34.8107L64.9602 34.5177ZM68.4718 35.9575L68.301 36.2041L68.7718 36.5302V35.9575H68.4718ZM62.8005 11.7374L62.8009 11.4374H62.8005V11.7374ZM44.7258 11.7374L44.5088 11.9445L44.5975 12.0374H44.7258V11.7374ZM41.0386 7.87454L40.8264 7.66241L40.6192 7.86966L40.8216 8.08168L41.0386 7.87454ZM45.9549 2.95818L46.1671 3.17031L46.3792 2.95818L46.1671 2.74605L45.9549 2.95818ZM43.4967 0.5L43.7089 0.287868L43.4967 0.0757359L43.2846 0.287868L43.4967 0.5ZM31.0303 12.9665L30.8181 12.7543L30.5986 12.9739L30.8256 13.1858L31.0303 12.9665ZM33.664 15.4247L33.4593 15.644L33.6712 15.8417L33.8762 15.6368L33.664 15.4247ZM38.5804 10.5083L38.7925 10.2962L38.5804 10.084L38.3683 10.2962L38.5804 10.5083ZM42.2677 14.1956H42.5677V14.0713L42.4798 13.9834L42.2677 14.1956ZM32.5438 29.2958L32.5441 28.9958H32.5438V29.2958ZM24.5547 29.2958V28.9958H23.7605L24.3564 29.5209L24.5547 29.2958ZM26.1806 30.9498L26.4144 30.7618L26.414 30.7612L26.1806 30.9498ZM27.5572 32.811L27.3107 32.982L27.4002 33.111H27.5572V32.811ZM45.7793 19.572H46.0793H45.7793ZM45.7793 15.2526V14.9526H45.4793V15.2526H45.7793ZM64.3526 15.8566L64.5648 15.6445L64.5641 15.6438L64.3526 15.8566ZM53.0907 42.3979V42.6979H53.3139L53.378 42.4841L53.0907 42.3979ZM54.8009 38.8862L55.0378 39.0703L55.4138 38.5862H54.8009V38.8862ZM29.6958 38.8862V38.5862H29.3489L29.399 38.9295L29.6958 38.8862ZM29.6958 42.3979L29.399 42.3546L29.3489 42.6979H29.6958V42.3979ZM55.8614 52.4413L55.6491 52.6533L55.6494 52.6536L55.8614 52.4413ZM70.8141 52.4378L70.602 52.2257L70.6019 52.2258L70.8141 52.4378ZM7.82506 20.2201C7.40532 20.2201 7.06625 20.0799 6.78776 19.7995L6.36203 20.2223C6.75778 20.6208 7.25215 20.8201 7.82506 20.8201V20.2201ZM6.78776 19.7995C6.50874 19.5186 6.36921 19.1777 6.36921 18.7572H5.76921C5.76921 19.3295 5.96681 19.8243 6.36203 20.2223L6.78776 19.7995ZM6.36921 18.7572C6.36921 18.3369 6.50869 17.9976 6.78703 17.7192L6.36276 17.295C5.96686 17.6909 5.76921 18.185 5.76921 18.7572H6.36921ZM6.78703 17.7192C7.065 17.4412 7.40371 17.3029 7.82364 17.3049L7.82647 16.7049C7.25377 16.7022 6.75904 16.8987 6.36276 17.295L6.78703 17.7192ZM7.82506 17.3049H18.7675V16.7049H7.82506V17.3049ZM18.7675 17.3049C19.8258 17.3049 20.7635 17.6127 21.5908 18.2288L21.9491 17.7476C21.0159 17.0526 19.9519 16.7049 18.7675 16.7049V17.3049ZM21.5908 18.2288C22.4233 18.8488 23.0073 19.6424 23.348 20.6157L23.9143 20.4175C23.5339 19.3306 22.8771 18.4386 21.9491 17.7476L21.5908 18.2288ZM23.6311 20.2166L7.82499 20.2201L7.82512 20.8201L23.6312 20.8166L23.6311 20.2166ZM14.9854 52.2848C18.2151 52.2848 20.9699 51.1524 23.2321 48.8925L22.8081 48.4681C20.6597 50.6142 18.058 51.6848 14.9854 51.6848V52.2848ZM23.2321 48.8925C25.4946 46.6325 26.6281 43.8764 26.6281 40.6421H26.0281C26.0281 43.7194 24.9563 46.3221 22.8081 48.4681L23.2321 48.8925ZM26.6281 40.6421C26.6281 37.4077 25.4946 34.6516 23.2321 32.3916L22.8081 32.8161C24.9563 34.962 26.0281 37.5647 26.0281 40.6421H26.6281ZM23.2321 32.3916C20.9699 30.1318 18.2152 28.9982 14.9856 28.9958L14.9852 29.5958C18.0578 29.5981 20.6596 30.6699 22.8081 32.8161L23.2321 32.3916ZM14.9856 28.9958C11.7556 28.9934 8.99958 30.1271 6.735 32.3917L7.15927 32.8159C9.31004 30.6652 11.9128 29.5935 14.9852 29.5958L14.9856 28.9958ZM6.735 32.3917C4.47042 34.6563 3.33673 37.4123 3.33913 40.6423L3.93913 40.6418C3.93685 37.5695 5.00849 34.9667 7.15927 32.8159L6.735 32.3917ZM3.33913 40.6423C3.34153 43.8719 4.47506 46.6277 6.73478 48.8922L7.15949 48.4684C5.01321 46.3176 3.94141 43.7145 3.93913 40.6418L3.33913 40.6423ZM6.73478 48.8922C8.99485 51.1571 11.7511 52.2907 14.9856 52.2883L14.9852 51.6883C11.908 51.6906 9.30541 50.6189 7.15949 48.4684L6.73478 48.8922ZM63.3378 52.2883C65.3322 52.2883 67.0572 51.5622 68.4979 50.1215L68.0736 49.6973C66.7423 51.0285 65.1687 51.6883 63.3378 51.6883V52.2883ZM68.4979 50.1215C69.9363 48.6831 70.6611 46.9592 70.6611 44.9649H70.0611C70.0611 46.7961 69.4024 48.3685 68.0736 49.6973L68.4979 50.1215ZM70.6611 44.9649C70.6611 42.9707 69.9363 41.2457 68.498 39.805L68.0734 40.2289C69.4024 41.5601 70.0611 43.1338 70.0611 44.9649H70.6611ZM68.498 39.805C67.0595 38.3641 65.3342 37.6391 63.3374 37.6416L63.3381 38.2416C65.1714 38.2393 66.7447 38.898 68.0734 40.2289L68.498 39.805ZM63.3374 37.6416C61.3412 37.644 59.6163 38.3687 58.1778 39.8047L58.6017 40.2293C59.9305 38.9028 61.5043 38.2438 63.3381 38.2416L63.3374 37.6416ZM58.1778 39.8047C56.7391 41.241 56.0144 42.9662 56.0144 44.9649H56.6144C56.6144 43.129 57.2733 41.5555 58.6017 40.2293L58.1778 39.8047ZM56.0144 44.9649C56.0144 46.9637 56.7391 48.6879 58.178 50.1219L58.6016 49.6969C57.2733 48.3731 56.6144 46.8009 56.6144 44.9649H56.0144ZM58.178 50.1219C59.6163 51.5553 61.3409 52.281 63.3367 52.2883L63.3389 51.6883C61.5046 51.6816 59.9305 51.0213 58.6016 49.6969L58.178 50.1219ZM14.9678 44.2576C13.953 44.2576 13.1068 43.9069 12.4105 43.202L11.9837 43.6236C12.7951 44.4451 13.796 44.8576 14.9678 44.8576V44.2576ZM12.4105 43.202C11.7133 42.4961 11.3663 41.6441 11.3663 40.628H10.7663C10.7663 41.7985 11.1732 42.803 11.9837 43.6236L12.4105 43.202ZM11.3663 40.628C11.3663 39.6135 11.718 38.766 12.4255 38.0672L12.0038 37.6404C11.1802 38.4539 10.7663 39.456 10.7663 40.628H11.3663ZM12.4248 38.0679C13.1332 37.3725 13.9856 37.0265 14.9994 37.0265V36.4265C13.8314 36.4265 12.8272 36.8321 12.0045 37.6397L12.4248 38.0679ZM14.9994 37.0265C16.0143 37.0265 16.8604 37.3772 17.5567 38.0822L17.9836 37.6605C17.1722 36.839 16.1712 36.4265 14.9994 36.4265V37.0265ZM17.5564 38.0818C18.254 38.7903 18.6009 39.6425 18.6009 40.6561H19.2009C19.2009 39.4877 18.794 38.4835 17.9839 37.6609L17.5564 38.0818ZM18.6009 40.6561C18.6009 41.6707 18.2492 42.5181 17.5418 43.2169L17.9634 43.6438C18.787 42.8302 19.2009 41.8282 19.2009 40.6561H18.6009ZM17.5418 43.2169C16.8364 43.9136 15.9846 44.2576 14.9678 44.2576V44.8576C16.1376 44.8576 17.1424 44.4547 17.9634 43.6438L17.5418 43.2169ZM64.8956 34.8107C65.5986 34.9656 66.1901 35.1319 66.6725 35.3086L66.8789 34.7452C66.3639 34.5566 65.7451 34.3835 65.0247 34.2247L64.8956 34.8107ZM66.6725 35.3086C67.1392 35.4795 67.6814 35.775 68.301 36.2041L68.6426 35.7109C67.9981 35.2644 67.4095 34.9395 66.8789 34.7452L66.6725 35.3086ZM68.7718 35.9575V17.4123H68.1718V35.9575H68.7718ZM68.7718 17.4123C68.7718 15.7705 68.1837 14.3587 67.0157 13.1931L66.5919 13.6178C67.6479 14.6716 68.1718 15.931 68.1718 17.4123H68.7718ZM67.0157 13.1931C65.8481 12.0279 64.4379 11.4399 62.8009 11.4374L62.8 12.0374C64.2768 12.0396 65.5354 12.5635 66.5919 13.6178L67.0157 13.1931ZM62.8005 11.4374H44.7258V12.0374H62.8005V11.4374ZM44.9428 11.5302L41.2556 7.66739L40.8216 8.08168L44.5088 11.9445L44.9428 11.5302ZM41.2507 8.08667L46.1671 3.17031L45.7428 2.74605L40.8264 7.66241L41.2507 8.08667ZM46.1671 2.74605L43.7089 0.287868L43.2846 0.712132L45.7428 3.17031L46.1671 2.74605ZM43.2846 0.287868L30.8181 12.7543L31.2424 13.1786L43.7089 0.712132L43.2846 0.287868ZM30.8256 13.1858L33.4593 15.644L33.8687 15.2053L31.235 12.7472L30.8256 13.1858ZM33.8762 15.6368L38.7925 10.7204L38.3683 10.2962L33.4519 15.2125L33.8762 15.6368ZM38.3683 10.7204L42.0555 14.4077L42.4798 13.9834L38.7925 10.2962L38.3683 10.7204ZM41.9677 14.1956V19.572H42.5677V14.1956H41.9677ZM41.9677 19.572C41.9677 22.1654 41.048 24.3789 39.2004 26.2288L39.6249 26.6528C41.584 24.6914 42.5677 22.3257 42.5677 19.572H41.9677ZM39.2004 26.2288C37.353 28.0785 35.1397 28.9981 32.5441 28.9958L32.5435 29.5958C35.2997 29.5982 37.6657 28.6145 39.6249 26.6528L39.2004 26.2288ZM32.5438 28.9958H24.5547V29.5958H32.5438V28.9958ZM24.3564 29.5209C25.0174 30.1033 25.5465 30.6425 25.9473 31.1384L26.414 30.7612C25.986 30.2317 25.4312 29.6682 24.7531 29.0707L24.3564 29.5209ZM25.9469 31.1379C26.3556 31.6459 26.8102 32.2603 27.3107 32.982L27.8037 32.64C27.2976 31.9102 26.8344 31.2838 26.4144 30.7618L25.9469 31.1379ZM27.5572 33.111H32.5438V32.511H27.5572V33.111ZM32.5438 33.111C36.3049 33.111 39.5081 31.7937 42.1357 29.1637L41.7113 28.7396C39.1978 31.2554 36.1479 32.511 32.5438 32.511V33.111ZM42.1357 29.1637C44.7632 26.5338 46.0793 23.3307 46.0793 19.572H45.4793C45.4793 23.1737 44.2249 26.2237 41.7113 28.7396L42.1357 29.1637ZM46.0793 19.572V15.2526H45.4793V19.572H46.0793ZM45.7793 15.5526H62.797V14.9526H45.7793V15.5526ZM62.797 15.5526C63.3591 15.5526 63.7986 15.7288 64.1411 16.0693L64.5641 15.6438C64.0967 15.1791 63.4991 14.9526 62.797 14.9526V15.5526ZM64.1405 16.0687C64.4834 16.4116 64.6602 16.8499 64.6602 17.4088H65.2602C65.2602 16.7081 65.0319 16.1116 64.5648 15.6445L64.1405 16.0687ZM64.6602 17.4088V34.5177H65.2602V17.4088H64.6602ZM53.378 42.4841C53.5933 41.7665 53.8103 41.1648 54.0283 40.6766L53.4804 40.432C53.2489 40.9505 53.0235 41.5778 52.8033 42.3117L53.378 42.4841ZM54.0283 40.6766C54.2402 40.202 54.5743 39.6669 55.0378 39.0703L54.564 38.7022C54.0816 39.323 53.718 39.8999 53.4804 40.432L54.0283 40.6766ZM54.8009 38.5862H29.6958V39.1862H54.8009V38.5862ZM29.399 38.9295C29.4959 39.5943 29.5433 40.1644 29.5433 40.6421H30.1433C30.1433 40.127 30.0924 39.5266 29.9927 38.8429L29.399 38.9295ZM29.5433 40.6421C29.5433 41.1197 29.4959 41.6898 29.399 42.3546L29.9927 42.4412C30.0924 41.7575 30.1433 41.1571 30.1433 40.6421H29.5433ZM29.6958 42.6979H53.0907V42.0979H29.6958V42.6979ZM63.3378 55.1965C60.4702 55.1965 58.0549 54.2083 56.0734 52.2291L55.6494 52.6536C57.7461 54.7479 60.3151 55.7965 63.3378 55.7965V55.1965ZM56.0736 52.2293C54.092 50.2454 53.1027 47.8289 53.1027 44.9614H52.5027C52.5027 47.9842 53.5525 50.5543 55.6491 52.6533L56.0736 52.2293ZM53.1027 44.9614C53.1027 42.094 54.092 39.68 56.0734 37.7008L55.6494 37.2763C53.5526 39.3707 52.5027 41.9386 52.5027 44.9614H53.1027ZM56.0734 37.7008C58.055 35.7215 60.4703 34.7322 63.338 34.7299L63.3375 34.1299C60.3149 34.1323 57.746 35.1821 55.6494 37.2763L56.0734 37.7008ZM63.338 34.7299C66.2053 34.7276 68.6204 35.7168 70.6019 37.7006L71.0264 37.2766C68.9296 35.1774 66.3605 34.1275 63.3375 34.1299L63.338 34.7299ZM70.6019 37.7006C72.5836 39.6845 73.5728 42.0999 73.5728 44.9649H74.1728C74.1728 41.9444 73.1229 39.3755 71.0264 37.2766L70.6019 37.7006ZM73.5728 44.9649C73.5728 47.83 72.5836 50.2441 70.602 52.2257L71.0263 52.6499C73.1229 50.5533 74.1728 47.9855 74.1728 44.9649H73.5728ZM70.6019 52.2258C68.6203 54.2096 66.2051 55.2 63.3378 55.2V55.8C66.3607 55.8 68.9297 54.7489 71.0264 52.6498L70.6019 52.2258ZM14.9819 55.2C10.9526 55.2 7.52665 53.7823 4.68713 50.9405L4.26269 51.3646C7.21511 54.3194 10.7938 55.8 14.9819 55.8V55.2ZM4.68713 50.9405C1.8475 48.0986 0.42974 44.6713 0.427444 40.6419L-0.172556 40.6422C-0.170169 44.8301 1.31038 48.4099 4.26269 51.3646L4.68713 50.9405ZM0.427444 40.6419C0.425148 36.6127 1.84279 33.1857 4.68696 30.3438L4.26286 29.9194C1.30573 32.8741 -0.174942 36.4541 -0.172556 40.6422L0.427444 40.6419ZM4.68696 30.3438C7.53126 27.5018 10.9584 26.0841 14.9854 26.0841V25.4841C10.7997 25.4841 7.21986 26.9648 4.26286 29.9194L4.68696 30.3438ZM14.9854 26.0841C19.0123 26.0841 22.4395 27.5018 25.2838 30.3438L25.7079 29.9194C22.7509 26.9648 19.1711 25.4841 14.9854 25.4841V26.0841ZM25.2838 30.3438C28.128 33.1857 29.5456 36.6127 29.5433 40.6419L30.1433 40.6422C30.1457 36.4541 28.665 32.8741 25.7079 29.9194L25.2838 30.3438ZM29.5433 40.6419C29.541 44.6713 28.1233 48.0986 25.2836 50.9405L25.7081 51.3646C28.6604 48.4099 30.1409 44.8301 30.1433 40.6422L29.5433 40.6419ZM25.2836 50.9405C22.4442 53.7822 19.0137 55.2 14.9819 55.2V55.8C19.1721 55.8 22.7556 54.3195 25.7081 51.3646L25.2836 50.9405Z" fill="#CC1111" fill-opacity="0.960784" mask="url(#path-1-inside-1_296_4805)"/>
</svg>
