<svg width="54" height="60" viewBox="0 0 54 60" fill="none" xmlns="http://www.w3.org/2000/svg">
<path d="M32.0552 30.3275L32.0765 30.389L32.1056 30.4472C35.1793 36.5946 40.5223 42.6865 45.0429 47.2071C47.3119 49.4761 49.3913 51.3664 50.904 52.6901C51.3714 53.0991 51.785 53.4542 52.1336 53.7499C51.943 53.8318 51.7343 53.9199 51.5083 54.0135C50.1735 54.5658 48.2344 55.3047 45.8309 56.0442C41.0194 57.5247 34.3717 59 27 59C19.6283 59 12.9806 57.5247 8.16909 56.0442C5.76561 55.3047 3.82647 54.5658 2.49173 54.0135C2.37871 53.9667 2.27004 53.9213 2.1658 53.8773C2.64715 53.5853 3.21828 53.2341 3.85989 52.8313C5.8891 51.5571 8.62897 49.7622 11.4664 47.6814C14.3003 45.6032 17.251 43.2257 19.6915 40.7852C22.1101 38.3666 24.1228 35.7938 24.9487 33.3162L25.1367 32.7523L24.7311 32.3177L20.5311 27.8177L19.5532 26.77L18.9073 28.0493L15.9366 33.9337L9.57278 37.1156L9.56945 37.1173C9.27221 37.2673 8.92766 37.2934 8.61118 37.19C8.2947 37.0866 8.03207 36.8621 7.88075 36.5655L7.87957 36.5632C7.55259 35.9265 7.83831 35.1556 8.3975 34.8987L8.41247 34.8918L8.42721 34.8844L13.7672 32.2144L14.0642 32.0659L14.2134 31.7692L16.8834 26.4592L16.8844 26.4572C16.9118 26.4025 16.9644 26.3286 17.0592 26.2311C17.1422 26.1458 17.2267 26.0723 17.3331 25.9796C17.354 25.9614 17.3758 25.9425 17.3985 25.9226L17.4452 25.8817L24.5547 21.1421L25 20.8452V20.31V18.21C25 16.5076 26.1843 15.0351 27.7814 14.6874C27.7817 14.6873 27.7821 14.6873 27.7824 14.6872L35.1898 13.0977L35.1898 13.0978L35.2028 13.0949C36.8227 12.7246 38.4852 13.5798 39.1668 15.1074L39.1889 15.157L39.2162 15.2039L40.6862 17.7239L41.1586 18.5337L41.9972 18.1144L44.4572 16.8844L44.4572 16.8845L44.4639 16.8811C44.608 16.8076 44.7654 16.7638 44.9268 16.7522C45.0882 16.7406 45.2502 16.7615 45.4034 16.8136C45.5565 16.8657 45.6977 16.9479 45.8186 17.0554C45.9394 17.163 46.0375 17.2936 46.107 17.4397L46.1135 17.4534L46.1204 17.4668C46.4438 18.0965 46.1686 18.8412 45.6025 19.1013L45.5875 19.1082L45.5728 19.1156L39.3039 22.25H30.66H29.2549L29.7152 23.5775L32.0552 30.3275ZM40.59 28.75H40.8261L41.0372 28.6444L41.1322 28.5969L41.951 33.8648C40.6726 32.1936 39.5175 30.4611 38.5752 28.75H40.59ZM32 4.5C32 6.43772 30.4377 8 28.5 8C26.5623 8 25 6.43772 25 4.5C25 2.56228 26.5623 1 28.5 1C30.4377 1 32 2.56228 32 4.5ZM13 13.5C13 11.5623 14.5623 10 16.5 10C18.4377 10 20 11.5623 20 13.5C20 15.4377 18.4377 17 16.5 17C14.5623 17 13 15.4377 13 13.5Z" stroke="black" stroke-width="2"/>
</svg>
