<svg width="24" height="24" viewBox="0 0 24 24" fill="none" xmlns="http://www.w3.org/2000/svg">
<path fill-rule="evenodd" clip-rule="evenodd" d="M7.50965 2.21289H16.4401C19.6923 2.21289 21.5283 4.0575 21.5378 7.3097V16.2411C21.5378 19.4923 19.6923 21.3379 16.4401 21.3379H7.50965C4.25745 21.3379 2.41284 19.4923 2.41284 16.2411V7.3097C2.41284 4.0575 4.25745 2.21289 7.50965 2.21289ZM12.0222 17.379C12.4344 17.379 12.7777 17.073 12.8159 16.6618V6.91766C12.8542 6.62122 12.7117 6.32383 12.4535 6.16222C12.1848 5.99966 11.8597 5.99966 11.6024 6.16222C11.3433 6.32383 11.2008 6.62122 11.2285 6.91766V16.6618C11.2773 17.073 11.6206 17.379 12.0222 17.379ZM16.4219 17.379C16.8236 17.379 17.1669 17.073 17.2156 16.6618V13.5253C17.2434 13.2184 17.1009 12.9325 16.8417 12.7699C16.5845 12.6073 16.2594 12.6073 15.9916 12.7699C15.7325 12.9325 15.59 13.2184 15.6283 13.5253V16.6618C15.6665 17.073 16.0098 17.379 16.4219 17.379ZM8.35977 16.6618C8.32152 17.073 7.97822 17.379 7.56608 17.379C7.15489 17.379 6.81064 17.073 6.77335 16.6618V10.0541C6.74466 9.75672 6.88714 9.46124 7.14629 9.29867C7.40352 9.13611 7.7296 9.13611 7.98779 9.29867C8.24502 9.46124 8.38941 9.75672 8.35977 10.0541V16.6618Z" fill="#7649B3"/>
</svg>
