<svg width="17" height="18" viewBox="0 0 17 18" fill="none" xmlns="http://www.w3.org/2000/svg">
<path fill-rule="evenodd" clip-rule="evenodd" d="M15.444 2.78248C15.7899 2.78248 16.0779 3.05961 16.0779 3.41224V3.73828C16.0779 4.08234 15.7899 4.36805 15.444 4.36805H0.707026C0.360243 4.36805 0.0722656 4.08234 0.0722656 3.73828V3.41224C0.0722656 3.05961 0.360243 2.78248 0.707026 2.78248H3.29969C3.82635 2.78248 4.28469 2.42126 4.40317 1.91161L4.53894 1.32646C4.74995 0.529383 5.44438 0 6.23913 0H9.91106C10.6972 0 11.3994 0.529383 11.6026 1.28442L11.7479 1.91075C11.8655 2.42126 12.3238 2.78248 12.8514 2.78248H15.444ZM14.1266 14.6994C14.3973 12.2653 14.8712 6.48243 14.8712 6.42408C14.8885 6.24734 14.8288 6.08003 14.7104 5.94532C14.5832 5.8192 14.4224 5.74455 14.2451 5.74455H1.91137C1.73322 5.74455 1.56372 5.8192 1.44611 5.94532C1.32677 6.08003 1.26796 6.24734 1.27661 6.42408C1.2782 6.4348 1.29521 6.6385 1.32364 6.97906C1.44993 8.49192 1.80169 12.7056 2.02899 14.6994C2.18984 16.1683 3.18868 17.0915 4.63548 17.125C5.75194 17.1499 6.90211 17.1585 8.07824 17.1585C9.18604 17.1585 10.3111 17.1499 11.4622 17.125C12.9592 17.1001 13.9571 16.1932 14.1266 14.6994Z" fill="#FB8308"/>
</svg>
