<svg width="64" height="83" viewBox="0 0 64 83" fill="none" xmlns="http://www.w3.org/2000/svg">
<path d="M63.7509 13.4414V79.8584C63.7509 81.4323 62.4666 82.7164 60.8921 82.7164H8.19084C6.61643 82.7164 5.33203 81.4323 5.33203 79.8584V3.7906C5.33203 2.21664 6.61643 0.932617 8.19084 0.932617H51.2178L63.7509 13.4414Z" fill="#D9DCE0" fill-opacity="0.45"/>
<path d="M63.7507 13.4414V79.8584C63.7507 81.4323 62.4663 82.7164 60.8919 82.7164H56.8108C58.3853 82.7164 59.6697 81.4323 59.6697 79.8584V13.4414L47.1572 0.932617H51.2383L63.7507 13.4414Z" fill="#E5E5E5"/>
<path d="M63.7509 13.4414H54.0766C52.5022 13.4414 51.2178 12.1574 51.2178 10.5835V0.932617L63.7509 13.4414Z" fill="#CECECE"/>
<path d="M51.6732 39.6601H17.7405C16.6012 39.6601 15.6689 38.7281 15.6689 37.5891C15.6689 36.45 16.6012 35.5181 17.7405 35.5181H51.6732C52.8126 35.5181 53.7448 36.45 53.7448 37.5891C53.7448 38.7488 52.8333 39.6601 51.6732 39.6601Z" fill="#CECECE"/>
<path d="M51.6732 50.2841H17.7405C16.6012 50.2841 15.6689 49.3521 15.6689 48.2131C15.6689 47.074 16.6012 46.1421 17.7405 46.1421H51.6732C52.8126 46.1421 53.7448 47.074 53.7448 48.2131C53.7448 49.3728 52.8333 50.2841 51.6732 50.2841Z" fill="#CECECE"/>
<path d="M51.6732 60.9081H17.7405C16.6012 60.9081 15.6689 59.9762 15.6689 58.8371C15.6689 57.6981 16.6012 56.7661 17.7405 56.7661H51.6732C52.8126 56.7661 53.7448 57.6981 53.7448 58.8371C53.7448 59.9969 52.8333 60.9081 51.6732 60.9081Z" fill="#CECECE"/>
<path d="M29.2179 28.8912H0.526367V17.2729C0.526367 16.4031 1.2307 15.6782 2.12148 15.6782H29.2179C30.088 15.6782 30.813 16.3824 30.813 17.2729V27.2965C30.813 28.1663 30.1087 28.8912 29.2179 28.8912Z" fill="#F55B4B"/>
<path d="M30.813 27.0894V27.2965C30.813 28.1663 30.1087 28.8912 29.2179 28.8912H0.526367V17.2729C0.526367 16.4031 1.2307 15.6782 2.12148 15.6782H2.92941V19.8202C2.92941 23.838 6.18181 27.1101 10.2214 27.1101H30.813V27.0894Z" fill="#DD4E43"/>
<path d="M0.526367 28.8906L5.33245 34.3581V28.8906H0.526367Z" fill="#DB1B1B"/>
<path d="M8.29545 24.7904V26.1779H3.96582V24.7904H5.02233V19.3436H3.96582V17.9561H8.29545C9.31054 17.9561 10.077 18.1839 10.6364 18.6602C11.1957 19.1365 11.465 19.7785 11.465 20.5655C11.465 21.0211 11.3614 21.4353 11.175 21.8081C10.9885 22.1809 10.7399 22.4708 10.4292 22.6572C10.1185 22.8643 9.787 22.9886 9.3934 23.0714C8.99979 23.1543 8.52333 23.175 7.94328 23.175H7.15608V24.7696H8.29545V24.7904ZM7.15608 21.8081H7.46682C8.19187 21.8081 8.66834 21.6839 8.8755 21.456C9.08266 21.2282 9.18624 20.9176 9.18624 20.5655C9.18624 20.2756 9.10337 20.0063 8.95835 19.7992C8.81334 19.5921 8.64762 19.4679 8.46118 19.4058C8.27474 19.3643 7.964 19.3229 7.52896 19.3229H7.13535V21.8081H7.15608Z" fill="#D9DCE0" fill-opacity="0.45"/>
<path d="M11.9609 26.1779V24.7904H13.2039V19.3436H11.9609V17.9561H15.8555C16.6842 17.9561 17.3264 17.9975 17.8443 18.101C18.3414 18.2046 18.8179 18.4324 19.2737 18.7637C19.7294 19.1158 20.1023 19.5714 20.3716 20.1513C20.6409 20.7312 20.7859 21.3732 20.7859 22.0773C20.7859 22.6572 20.6823 23.1957 20.4959 23.7134C20.3095 24.2312 20.0609 24.6454 19.7708 24.9767C19.4808 25.2874 19.1494 25.5566 18.735 25.743C18.3414 25.9294 17.9686 26.0537 17.6371 26.1158C17.3057 26.1779 16.7878 26.1986 16.0834 26.1986H11.9609V26.1779ZM15.3584 24.7904H15.8763C16.4977 24.7904 16.9949 24.7075 17.3678 24.5418C17.7407 24.3762 18.0307 24.0862 18.2379 23.6927C18.4657 23.2785 18.5693 22.7608 18.5693 22.0981C18.5693 21.4768 18.4657 20.9383 18.2379 20.5034C18.01 20.0685 17.72 19.7578 17.3264 19.5921C16.9535 19.4265 16.4563 19.3436 15.8763 19.3436H15.3584V24.7904Z" fill="#D9DCE0" fill-opacity="0.45"/>
<path d="M21.7393 26.1779V24.7904H22.9201V19.3436H21.7393V17.9561H29.1141V20.5034H27.5397V19.3643H25.0745V21.2697H26.8561V22.6572H25.0745V24.7904H26.3382V26.1779H21.7393Z" fill="#D9DCE0" fill-opacity="0.45"/>
<path d="M26.0694 32.7427H5.35352V28.8906H29.3218V29.5119C29.3011 31.293 27.851 32.7427 26.0694 32.7427Z" fill="#E5E5E5"/>
</svg>
