<svg width="19" height="19" viewBox="0 0 19 19" fill="none" xmlns="http://www.w3.org/2000/svg">
<path d="M9.66699 18.25C14.6376 18.25 18.667 14.2206 18.667 9.25C18.667 4.27944 14.6376 0.25 9.66699 0.25C4.69643 0.25 0.666992 4.27944 0.666992 9.25C0.666992 14.2206 4.69643 18.25 9.66699 18.25Z" fill="#FB8308"/>
<path d="M10.134 8.11555V5.65756C10.5595 5.84664 10.7958 6.17752 10.8903 6.65021L12.4975 6.41387C12.4029 5.79937 12.1193 5.27941 11.7412 4.90126C11.363 4.52311 10.7958 4.28676 10.134 4.2395V3.625H9.23593V4.2395C6.73067 4.47584 6.30525 7.1229 7.43971 8.4937C7.81786 8.96639 8.43235 9.34454 9.23593 9.58088V12.2279C8.81051 11.9916 8.38509 11.5189 8.24328 10.8099L6.58887 10.9989C6.82521 12.7006 7.81786 13.5515 9.23593 13.7405V14.875H10.134V13.6933C12.9702 13.2679 13.2065 10.3372 12.2139 9.15546C11.8357 8.73004 11.1267 8.35189 10.134 8.11555ZM9.23593 7.78466C8.95231 7.69013 8.76324 7.50105 8.62143 7.31197C8.19601 6.69748 8.47962 5.84664 9.23593 5.61029V7.78466ZM10.134 12.3225V9.8645C10.5122 9.95903 10.7958 10.1481 10.9376 10.3372C11.5048 10.9989 11.1267 12.1334 10.134 12.3225Z" fill="white"/>
</svg>
