<svg width="18" height="18" viewBox="0 0 18 18" fill="none" xmlns="http://www.w3.org/2000/svg">
<path d="M16.9958 9.9975V12.9375C17.0293 14.5171 15.7778 15.8256 14.1983 15.8625L4.29831 15.81C2.71763 15.7691 1.46726 14.4584 1.50081 12.8775V9.9375C1.4827 9.1776 1.76731 8.44164 2.29199 7.89164C2.81666 7.34164 3.5384 7.02269 4.29831 7.005H8.60331V10.6425L6.84081 8.895C6.71974 8.77317 6.55507 8.70466 6.38331 8.70466C6.21155 8.70466 6.04689 8.77317 5.92581 8.895C5.80013 9.01398 5.72894 9.17943 5.72894 9.3525C5.72894 9.52557 5.80013 9.69102 5.92581 9.81L8.79081 12.675C9.04472 12.9247 9.45191 12.9247 9.70581 12.675L12.5708 9.81C12.6965 9.69102 12.7677 9.52557 12.7677 9.3525C12.7677 9.17943 12.6965 9.01398 12.5708 8.895C12.4497 8.77317 12.2851 8.70466 12.1133 8.70466C11.9416 8.70466 11.7769 8.77317 11.6558 8.895L9.89331 10.665V7.035H14.1983C14.9636 7.05258 15.69 7.37568 16.2155 7.93222C16.7411 8.48877 17.0221 9.23248 16.9958 9.9975Z" fill="#FB8308"/>
<path d="M9.89332 2.895L9.89331 7.035H8.60331V2.895C8.60331 2.53878 8.89209 2.25 9.24831 2.25C9.60454 2.25 9.89332 2.53878 9.89332 2.895Z" fill="#FB8308"/>
</svg>
