<svg width="18" height="19" viewBox="0 0 18 19" fill="none" xmlns="http://www.w3.org/2000/svg">
<path d="M9 0.599976C11.3869 0.599976 13.6761 1.54819 15.364 3.23601C17.0518 4.92384 18 7.21303 18 9.59998C18 11.9869 17.0518 14.2761 15.364 15.9639C13.6761 17.6518 11.3869 18.6 9 18.6C6.61305 18.6 4.32387 17.6518 2.63604 15.9639C0.948212 14.2761 0 11.9869 0 9.59998C0 7.21303 0.948212 4.92384 2.63604 3.23601C4.32387 1.54819 6.61305 0.599976 9 0.599976ZM4.27725 8.85073C4.31201 8.62963 4.25752 8.40379 4.12576 8.22288C3.99401 8.04196 3.79578 7.9208 3.57469 7.88604C3.3536 7.85128 3.12775 7.90577 2.94684 8.03753C2.76592 8.16928 2.64476 8.36751 2.61 8.5886C2.50486 9.25875 2.50486 9.9412 2.61 10.6114C2.64476 10.8324 2.76592 11.0307 2.94684 11.1624C3.12775 11.2942 3.3536 11.3487 3.57469 11.3139C3.79578 11.2792 3.99401 11.158 4.12576 10.9771C4.25752 10.7962 4.31201 10.5703 4.27725 10.3492C4.19942 9.85276 4.19942 9.34719 4.27725 8.85073ZM9 3.13123C8.66138 3.13207 8.3233 3.15839 7.98862 3.20998C7.76753 3.24474 7.56931 3.3659 7.43755 3.54681C7.30579 3.72773 7.2513 3.95357 7.28606 4.17466C7.32082 4.39575 7.44199 4.59398 7.6229 4.72574C7.80381 4.85749 8.02966 4.91199 8.25075 4.87723C8.74722 4.79939 9.25278 4.79939 9.74925 4.87723C9.97034 4.91199 10.1962 4.85749 10.3771 4.72574C10.558 4.59398 10.6792 4.39575 10.7139 4.17466C10.7487 3.95357 10.6942 3.72773 10.5625 3.54681C10.4307 3.3659 10.2325 3.24474 10.0114 3.20998C9.6767 3.15839 9.33862 3.13207 9 3.13123ZM8.25075 14.3227C8.02966 14.288 7.80381 14.3425 7.6229 14.4742C7.44199 14.606 7.32082 14.8042 7.28606 15.0253C7.2513 15.2464 7.30579 15.4722 7.43755 15.6531C7.56931 15.8341 7.76753 15.9552 7.98862 15.99C8.65878 16.0951 9.34122 16.0951 10.0114 15.99C10.2325 15.9552 10.4307 15.8341 10.5625 15.6531C10.6942 15.4722 10.7487 15.2464 10.7139 15.0253C10.6792 14.8042 10.558 14.606 10.3771 14.4742C10.1962 14.3425 9.97034 14.288 9.74925 14.3227C9.25278 14.4006 8.74722 14.4006 8.25075 14.3227ZM15.39 8.5886C15.3728 8.47913 15.3342 8.37412 15.2764 8.27956C15.2186 8.18501 15.1427 8.10277 15.0532 8.03753C14.9636 7.97229 14.862 7.92533 14.7543 7.89934C14.6466 7.87335 14.5348 7.86883 14.4253 7.88604C14.3158 7.90325 14.2108 7.94185 14.1163 7.99965C14.0217 8.05744 13.9395 8.1333 13.8742 8.22288C13.7425 8.40379 13.688 8.62963 13.7227 8.85073C13.8006 9.34719 13.8006 9.85276 13.7227 10.3492C13.7055 10.4587 13.7101 10.5705 13.7361 10.6782C13.762 10.7859 13.809 10.8875 13.8742 10.9771C13.9395 11.0667 14.0217 11.1425 14.1163 11.2003C14.2108 11.2581 14.3158 11.2967 14.4253 11.3139C14.6464 11.3487 14.8722 11.2942 15.0532 11.1624C15.2341 11.0307 15.3552 10.8324 15.39 10.6114C15.4951 9.9412 15.4951 9.25875 15.39 8.5886ZM6.18975 5.7311C6.36631 5.59787 6.48349 5.40064 6.51608 5.18187C6.54866 4.96309 6.49403 4.74027 6.36395 4.56138C6.23387 4.38249 6.03875 4.26182 5.82059 4.22537C5.60242 4.18892 5.37867 4.23959 5.1975 4.36648C4.64898 4.76615 4.16618 5.24896 3.7665 5.79748C3.70135 5.88708 3.65448 5.98864 3.62858 6.09635C3.60268 6.20407 3.59824 6.31583 3.61553 6.42525C3.65045 6.64626 3.77173 6.84433 3.95269 6.97591C4.13365 7.10749 4.35947 7.1618 4.58047 7.12688C4.80147 7.09196 4.99954 6.97069 5.13112 6.78973C5.427 6.3836 5.78362 6.02698 6.18975 5.7311ZM5.13112 12.4102C4.9979 12.2337 4.80066 12.1165 4.58189 12.0839C4.36312 12.0513 4.1403 12.106 3.96141 12.236C3.78251 12.3661 3.66185 12.5612 3.6254 12.7794C3.58894 12.9976 3.63961 13.2213 3.7665 13.4025C4.16618 13.951 4.64898 14.4338 5.1975 14.8335C5.37846 14.9651 5.60428 15.0194 5.82528 14.9844C6.04628 14.9495 6.24436 14.8282 6.37594 14.6473C6.50752 14.4663 6.56182 14.2405 6.52691 14.0195C6.49199 13.7985 6.37071 13.6004 6.18975 13.4689C5.78408 13.173 5.42693 12.8159 5.13112 12.4102ZM12.8025 4.36648C12.7129 4.30132 12.6113 4.25446 12.5036 4.22855C12.3959 4.20265 12.2841 4.19822 12.1747 4.21551C12.0653 4.2328 11.9603 4.27147 11.8659 4.32932C11.7714 4.38717 11.6892 4.46306 11.6241 4.55266C11.4925 4.73362 11.4382 4.95944 11.4731 5.18044C11.508 5.40144 11.6293 5.59952 11.8103 5.7311C12.2153 6.02698 12.5741 6.3836 12.8689 6.78973C13.0021 6.96629 13.1993 7.08347 13.4181 7.11605C13.6369 7.14863 13.8597 7.094 14.0386 6.96392C14.2175 6.83385 14.3382 6.63872 14.3746 6.42056C14.4111 6.2024 14.3604 5.97865 14.2335 5.79748C13.8338 5.24896 13.351 4.76615 12.8025 4.36648ZM14.2335 13.4025C14.3651 13.2215 14.4194 12.9957 14.3845 12.7747C14.3496 12.5537 14.2283 12.3556 14.0473 12.224C13.8664 12.0925 13.6405 12.0382 13.4195 12.0731C13.1985 12.108 13.0005 12.2293 12.8689 12.4102C12.5741 12.8152 12.2153 13.1741 11.8103 13.4689C11.6337 13.6021 11.5165 13.7993 11.4839 14.0181C11.4513 14.2369 11.506 14.4597 11.6361 14.6386C11.7661 14.8175 11.9613 14.9381 12.1794 14.9746C12.3976 15.011 12.6213 14.9604 12.8025 14.8335C13.351 14.4338 13.8338 13.951 14.2335 13.4025Z" fill="#7649B3"/>
</svg>
