<svg width="18" height="18" viewBox="0 0 18 18" fill="none" xmlns="http://www.w3.org/2000/svg">
<path d="M17.2641 6.22524L6.64878 16.4985C6.09672 17.0159 5.37115 17.3051 4.61404 17.3051H0.907353C0.702302 17.3051 0.513025 17.229 0.371066 17.092C0.229108 16.955 0.166016 16.7724 0.166016 16.5745L0.260654 12.9675C0.276428 12.2522 0.576117 11.5825 1.09663 11.0803L8.62042 3.82055C8.7466 3.69879 8.96743 3.69879 9.09361 3.82055L11.7277 6.347C11.9012 6.51441 12.1536 6.62095 12.4217 6.62095C13.0054 6.62095 13.4628 6.16436 13.4628 5.61646C13.4628 5.3425 13.3524 5.09899 13.1789 4.91636C13.1315 4.85548 10.6236 2.45078 10.6236 2.45078C10.4659 2.29859 10.4659 2.03986 10.6236 1.88766L11.6804 0.85273C12.6583 -0.0908838 14.2357 -0.0908838 15.2136 0.85273L17.2641 2.83127C18.2263 3.75967 18.2263 5.28163 17.2641 6.22524" fill="#FB8308"/>
</svg>
