<svg width="60" height="60" viewBox="0 0 60 60" fill="none" xmlns="http://www.w3.org/2000/svg">
<path d="M52.5 17.5V42.5C52.5 50 48.75 55 40 55H20C11.25 55 7.5 50 7.5 42.5V17.5C7.5 10 11.25 5 20 5H40C48.75 5 52.5 10 52.5 17.5Z" stroke="white" stroke-width="2.5" stroke-miterlimit="10" stroke-linecap="round" stroke-linejoin="round"/>
<path d="M38.75 5V24.65C38.75 25.75 37.4499 26.3 36.6499 25.575L30.8501 20.2251C30.3751 19.7751 29.6249 19.7751 29.1499 20.2251L23.3501 25.575C22.5501 26.3 21.25 25.75 21.25 24.65V5H38.75Z" stroke="white" stroke-width="2.5" stroke-miterlimit="10" stroke-linecap="round" stroke-linejoin="round"/>
<path d="M33.125 35H43.75" stroke="white" stroke-width="2.5" stroke-miterlimit="10" stroke-linecap="round" stroke-linejoin="round"/>
<path d="M22.5 45H43.75" stroke="white" stroke-width="2.5" stroke-miterlimit="10" stroke-linecap="round" stroke-linejoin="round"/>
</svg>
