<svg width="625" height="216" viewBox="0 0 625 216" fill="none" xmlns="http://www.w3.org/2000/svg">
<path opacity="0.5" d="M76.9589 3H601.151" stroke="#E1E7EC" stroke-width="0.726027"/>
<path opacity="0.5" d="M76.9589 34.9453H601.151" stroke="#E1E7EC" stroke-width="0.726027"/>
<path opacity="0.5" d="M76.9589 63.9863H601.151" stroke="#E1E7EC" stroke-width="0.726027"/>
<path opacity="0.5" d="M76.9589 93.0273H601.151" stroke="#E1E7EC" stroke-width="0.726027"/>
<path opacity="0.5" d="M76.9589 122.069H601.151" stroke="#E1E7EC" stroke-width="0.726027"/>
<path opacity="0.5" d="M76.9589 151.11H601.151" stroke="#E1E7EC" stroke-width="0.726027"/>
<path opacity="0.5" d="M94.8723 3L94.8723 151.11" stroke="#E1E7EC" stroke-width="0.726027"/>
<path opacity="0.5" d="M181.507 3L181.507 151.11" stroke="#E1E7EC" stroke-width="0.726027"/>
<path opacity="0.5" d="M268.63 3L268.63 151.11" stroke="#E1E7EC" stroke-width="0.726027"/>
<path opacity="0.5" d="M355.753 3L355.753 151.11" stroke="#E1E7EC" stroke-width="0.726027"/>
<path opacity="0.5" d="M442.877 3L442.877 151.11" stroke="#E1E7EC" stroke-width="0.726027"/>
<path opacity="0.5" d="M530 3L530 151.11" stroke="#E1E7EC" stroke-width="0.726027"/>
<path d="M50.8043 11.3661C50.1073 11.3661 49.5023 11.2403 48.9893 10.9886C48.4762 10.7369 48.0648 10.3933 47.755 9.95765C47.4549 9.51235 47.271 9.00897 47.2032 8.44751H48.3939C48.5101 9.00897 48.7811 9.46395 49.2071 9.81244C49.633 10.1513 50.1703 10.3207 50.8189 10.3207C51.3029 10.3207 51.7191 10.2093 52.0676 9.98669C52.4161 9.75436 52.6823 9.44459 52.8663 9.05737C53.0599 8.67016 53.1567 8.23938 53.1567 7.76504C53.1567 7.00998 52.9437 6.40011 52.5178 5.93546C52.0918 5.4708 51.54 5.23847 50.8624 5.23847C50.301 5.23847 49.8218 5.36431 49.4249 5.616C49.028 5.86769 48.7376 6.19683 48.5536 6.6034H47.392L48.2632 1.02751H53.5923V2.08751H49.2071L48.6117 5.18039C48.8441 4.89966 49.1635 4.66733 49.5701 4.4834C49.9863 4.29947 50.4607 4.20751 50.9931 4.20751C51.661 4.20751 52.2419 4.3624 52.7356 4.67217C53.2389 4.98194 53.631 5.40304 53.9117 5.93546C54.1925 6.46788 54.3328 7.0729 54.3328 7.75052C54.3328 8.39911 54.1925 8.99929 53.9117 9.55107C53.6407 10.1029 53.2389 10.5433 52.7065 10.8724C52.1838 11.2016 51.5497 11.3661 50.8043 11.3661ZM60.2036 11.3661C59.3033 11.3661 58.524 11.1483 57.8657 10.7127C57.2172 10.2674 56.7186 9.65272 56.3701 8.86861C56.0216 8.07482 55.8474 7.15518 55.8474 6.1097C55.8474 5.06422 56.0216 4.14943 56.3701 3.36532C56.7186 2.57153 57.2172 1.95683 57.8657 1.52121C58.524 1.07591 59.3033 0.853264 60.2036 0.853264C61.1038 0.853264 61.8783 1.07591 62.5268 1.52121C63.1754 1.95683 63.674 2.57153 64.0225 3.36532C64.3709 4.14943 64.5452 5.06422 64.5452 6.1097C64.5452 7.15518 64.3709 8.07482 64.0225 8.86861C63.674 9.65272 63.1754 10.2674 62.5268 10.7127C61.8783 11.1483 61.1038 11.3661 60.2036 11.3661ZM60.2036 10.2916C60.7941 10.2916 61.3216 10.1271 61.7863 9.79792C62.2606 9.45911 62.6285 8.97993 62.8899 8.36039C63.1609 7.73116 63.2964 6.98094 63.2964 6.1097C63.2964 5.23847 63.1609 4.49308 62.8899 3.87354C62.6285 3.25399 62.2606 2.77966 61.7863 2.45052C61.3216 2.11171 60.7941 1.94231 60.2036 1.94231C59.6034 1.94231 59.0709 2.11171 58.6063 2.45052C58.1416 2.77966 57.7738 3.25399 57.5027 3.87354C57.2317 4.49308 57.0962 5.23847 57.0962 6.1097C57.0962 6.98094 57.2317 7.73116 57.5027 8.36039C57.7738 8.97993 58.1416 9.45911 58.6063 9.79792C59.0709 10.1271 59.6034 10.2916 60.2036 10.2916Z" fill="#B8C4CE"/>
<path d="M51.8589 40.2329V38.0548H46.7042V37.111L51.6411 30.0685H53.0642V36.9803H54.5743V38.0548H53.0642V40.2329H51.8589ZM48.0546 36.9803H51.917V31.4189L48.0546 36.9803ZM60.0118 40.4072C59.1115 40.4072 58.3322 40.1893 57.674 39.7537C57.0254 39.3084 56.5268 38.6937 56.1784 37.9096C55.8299 37.1158 55.6556 36.1962 55.6556 35.1507C55.6556 34.1052 55.8299 33.1904 56.1784 32.4063C56.5268 31.6125 57.0254 30.9978 57.674 30.5622C58.3322 30.1169 59.1115 29.8943 60.0118 29.8943C60.9121 29.8943 61.6865 30.1169 62.3351 30.5622C62.9837 30.9978 63.4822 31.6125 63.8307 32.4063C64.1792 33.1904 64.3534 34.1052 64.3534 35.1507C64.3534 36.1962 64.1792 37.1158 63.8307 37.9096C63.4822 38.6937 62.9837 39.3084 62.3351 39.7537C61.6865 40.1893 60.9121 40.4072 60.0118 40.4072ZM60.0118 39.3326C60.6023 39.3326 61.1299 39.1681 61.5945 38.8389C62.0689 38.5001 62.4367 38.0209 62.6981 37.4014C62.9691 36.7722 63.1047 36.022 63.1047 35.1507C63.1047 34.2795 62.9691 33.5341 62.6981 32.9146C62.4367 32.295 62.0689 31.8207 61.5945 31.4915C61.1299 31.1527 60.6023 30.9833 60.0118 30.9833C59.4116 30.9833 58.8792 31.1527 58.4145 31.4915C57.9499 31.8207 57.582 32.295 57.311 32.9146C57.0399 33.5341 56.9044 34.2795 56.9044 35.1507C56.9044 36.022 57.0399 36.7722 57.311 37.4014C57.582 38.0209 57.9499 38.5001 58.4145 38.8389C58.8792 39.1681 59.4116 39.3326 60.0118 39.3326Z" fill="#B8C4CE"/>
<path d="M51.6767 69.4482C51.0281 69.4482 50.4424 69.332 49.9197 69.0997C49.3969 68.8577 48.9758 68.4995 48.6564 68.0252C48.3466 67.5508 48.182 66.9603 48.1627 66.2537H49.3969C49.4066 66.8345 49.6099 67.3379 50.0068 67.7638C50.4037 68.18 50.9603 68.3882 51.6767 68.3882C52.393 68.3882 52.9303 68.1897 53.2884 67.7928C53.6563 67.3959 53.8402 66.9168 53.8402 66.3553C53.8402 65.881 53.7241 65.4937 53.4917 65.1937C53.2691 64.8936 52.9641 64.6709 52.5769 64.5257C52.1994 64.3805 51.7831 64.3079 51.3282 64.3079H50.5731V63.2769H51.3282C51.9864 63.2769 52.4995 63.1269 52.8673 62.8268C53.2449 62.5267 53.4336 62.1056 53.4336 61.5635C53.4336 61.1085 53.2836 60.7358 52.9835 60.4454C52.6931 60.1453 52.2575 59.9953 51.6767 59.9953C51.1152 59.9953 50.6651 60.1647 50.3262 60.5035C49.9874 60.8326 49.7987 61.2489 49.7599 61.7523H48.5257C48.5547 61.2005 48.6999 60.7116 48.9613 60.2857C49.2324 59.8598 49.6002 59.5306 50.0649 59.2983C50.5295 59.0563 51.0668 58.9353 51.6767 58.9353C52.3349 58.9353 52.8819 59.0515 53.3175 59.2838C53.7628 59.5161 54.0967 59.8259 54.3194 60.2131C54.5517 60.6003 54.6679 61.0263 54.6679 61.4909C54.6679 62.004 54.5275 62.4735 54.2468 62.8994C53.9661 63.3157 53.545 63.5964 52.9835 63.7416C53.5837 63.8674 54.0822 64.153 54.4791 64.5983C54.876 65.0436 55.0745 65.6293 55.0745 66.3553C55.0745 66.9168 54.9438 67.4347 54.6824 67.909C54.4307 68.3737 54.0532 68.7463 53.5498 69.0271C53.0464 69.3078 52.422 69.4482 51.6767 69.4482ZM61.0118 69.4482C60.1115 69.4482 59.3322 69.2304 58.674 68.7947C58.0254 68.3495 57.5268 67.7347 57.1784 66.9506C56.8299 66.1568 56.6556 65.2372 56.6556 64.1917C56.6556 63.1463 56.8299 62.2315 57.1784 61.4473C57.5268 60.6536 58.0254 60.0389 58.674 59.6032C59.3322 59.1579 60.1115 58.9353 61.0118 58.9353C61.9121 58.9353 62.6865 59.1579 63.3351 59.6032C63.9837 60.0389 64.4822 60.6536 64.8307 61.4473C65.1792 62.2315 65.3534 63.1463 65.3534 64.1917C65.3534 65.2372 65.1792 66.1568 64.8307 66.9506C64.4822 67.7347 63.9837 68.3495 63.3351 68.7947C62.6865 69.2304 61.9121 69.4482 61.0118 69.4482ZM61.0118 68.3737C61.6023 68.3737 62.1299 68.2091 62.5945 67.88C63.0689 67.5411 63.4367 67.062 63.6981 66.4424C63.9691 65.8132 64.1047 65.063 64.1047 64.1917C64.1047 63.3205 63.9691 62.5751 63.6981 61.9556C63.4367 61.336 63.0689 60.8617 62.5945 60.5326C62.1299 60.1937 61.6023 60.0243 61.0118 60.0243C60.4116 60.0243 59.8792 60.1937 59.4145 60.5326C58.9499 60.8617 58.582 61.336 58.311 61.9556C58.0399 62.5751 57.9044 63.3205 57.9044 64.1917C57.9044 65.063 58.0399 65.8132 58.311 66.4424C58.582 67.062 58.9499 67.5411 59.4145 67.88C59.8792 68.2091 60.4116 68.3737 61.0118 68.3737Z" fill="#B8C4CE"/>
<path d="M47.7201 98.3152V97.4585C48.4074 96.9164 49.056 96.3694 49.6659 95.8177C50.2854 95.2562 50.8324 94.7044 51.3067 94.1623C51.7907 93.6202 52.1683 93.0878 52.4393 92.565C52.72 92.0423 52.8604 91.5389 52.8604 91.0549C52.8604 90.6967 52.7975 90.3628 52.6716 90.053C52.5555 89.7432 52.3619 89.4964 52.0908 89.3124C51.8198 89.1188 51.4519 89.022 50.9873 89.022C50.542 89.022 50.1693 89.1237 49.8692 89.327C49.5691 89.5206 49.3416 89.7819 49.1867 90.1111C49.0415 90.4402 48.9689 90.7935 48.9689 91.1711H47.7927C47.7927 90.5031 47.9331 89.932 48.2138 89.4577C48.4946 88.9736 48.8769 88.6058 49.361 88.3541C49.845 88.1024 50.3919 87.9766 51.0018 87.9766C51.9021 87.9766 52.6378 88.2331 53.2089 88.7461C53.7897 89.2495 54.0801 90.0046 54.0801 91.0113C54.0801 91.6115 53.9301 92.2069 53.63 92.7974C53.3299 93.3782 52.9475 93.9445 52.4829 94.4963C52.0182 95.0384 51.5197 95.5466 50.9873 96.0209C50.4645 96.4953 49.9757 96.9212 49.5207 97.2987H54.4286V98.3152H47.7201ZM60.0118 98.4894C59.1115 98.4894 58.3322 98.2716 57.674 97.836C57.0254 97.3907 56.5268 96.776 56.1784 95.9919C55.8299 95.1981 55.6556 94.2785 55.6556 93.233C55.6556 92.1875 55.8299 91.2727 56.1784 90.4886C56.5268 89.6948 57.0254 89.0801 57.674 88.6445C58.3322 88.1992 59.1115 87.9766 60.0118 87.9766C60.9121 87.9766 61.6865 88.1992 62.3351 88.6445C62.9837 89.0801 63.4822 89.6948 63.8307 90.4886C64.1792 91.2727 64.3534 92.1875 64.3534 93.233C64.3534 94.2785 64.1792 95.1981 63.8307 95.9919C63.4822 96.776 62.9837 97.3907 62.3351 97.836C61.6865 98.2716 60.9121 98.4894 60.0118 98.4894ZM60.0118 97.4149C60.6023 97.4149 61.1299 97.2503 61.5945 96.9212C62.0689 96.5824 62.4367 96.1032 62.6981 95.4837C62.9691 94.8545 63.1047 94.1042 63.1047 93.233C63.1047 92.3618 62.9691 91.6164 62.6981 90.9968C62.4367 90.3773 62.0689 89.9029 61.5945 89.5738C61.1299 89.235 60.6023 89.0656 60.0118 89.0656C59.4116 89.0656 58.8792 89.235 58.4145 89.5738C57.9499 89.9029 57.582 90.3773 57.311 90.9968C57.0399 91.6164 56.9044 92.3618 56.9044 93.233C56.9044 94.1042 57.0399 94.8545 57.311 95.4837C57.582 96.1032 57.9499 96.5824 58.4145 96.9212C58.8792 97.2503 59.4116 97.4149 60.0118 97.4149Z" fill="#B8C4CE"/>
<path d="M52.6679 127.356V118.557L51.0271 118.92V118.078L53.0745 117.192H53.9021V127.356H52.6679ZM60.0118 127.53C59.1115 127.53 58.3322 127.313 57.674 126.877C57.0254 126.432 56.5268 125.817 56.1784 125.033C55.8299 124.239 55.6556 123.319 55.6556 122.274C55.6556 121.229 55.8299 120.314 56.1784 119.53C56.5268 118.736 57.0254 118.121 57.674 117.686C58.3322 117.24 59.1115 117.018 60.0118 117.018C60.9121 117.018 61.6865 117.24 62.3351 117.686C62.9837 118.121 63.4822 118.736 63.8307 119.53C64.1792 120.314 64.3534 121.229 64.3534 122.274C64.3534 123.319 64.1792 124.239 63.8307 125.033C63.4822 125.817 62.9837 126.432 62.3351 126.877C61.6865 127.313 60.9121 127.53 60.0118 127.53ZM60.0118 126.456C60.6023 126.456 61.1299 126.291 61.5945 125.962C62.0689 125.623 62.4367 125.144 62.6981 124.525C62.9691 123.895 63.1047 123.145 63.1047 122.274C63.1047 121.403 62.9691 120.657 62.6981 120.038C62.4367 119.418 62.0689 118.944 61.5945 118.615C61.1299 118.276 60.6023 118.107 60.0118 118.107C59.4116 118.107 58.8792 118.276 58.4145 118.615C57.9499 118.944 57.582 119.418 57.311 120.038C57.0399 120.657 56.9044 121.403 56.9044 122.274C56.9044 123.145 57.0399 123.895 57.311 124.525C57.582 125.144 57.9499 125.623 58.4145 125.962C58.8792 126.291 59.4116 126.456 60.0118 126.456Z" fill="#B8C4CE"/>
<path d="M60.4364 156.571C59.5362 156.571 58.7569 156.354 58.0986 155.918C57.45 155.473 56.9515 154.858 56.603 154.074C56.2545 153.28 56.0803 152.361 56.0803 151.315C56.0803 150.27 56.2545 149.355 56.603 148.571C56.9515 147.777 57.45 147.162 58.0986 146.727C58.7569 146.281 59.5362 146.059 60.4364 146.059C61.3367 146.059 62.1111 146.281 62.7597 146.727C63.4083 147.162 63.9068 147.777 64.2553 148.571C64.6038 149.355 64.7781 150.27 64.7781 151.315C64.7781 152.361 64.6038 153.28 64.2553 154.074C63.9068 154.858 63.4083 155.473 62.7597 155.918C62.1111 156.354 61.3367 156.571 60.4364 156.571ZM60.4364 155.497C61.0269 155.497 61.5545 155.332 62.0192 155.003C62.4935 154.664 62.8614 154.185 63.1227 153.566C63.3938 152.936 63.5293 152.186 63.5293 151.315C63.5293 150.444 63.3938 149.698 63.1227 149.079C62.8614 148.459 62.4935 147.985 62.0192 147.656C61.5545 147.317 61.0269 147.148 60.4364 147.148C59.8362 147.148 59.3038 147.317 58.8392 147.656C58.3745 147.985 58.0067 148.459 57.7356 149.079C57.4646 149.698 57.329 150.444 57.329 151.315C57.329 152.186 57.4646 152.936 57.7356 153.566C58.0067 154.185 58.3745 154.664 58.8392 155.003C59.3038 155.332 59.8362 155.497 60.4364 155.497Z" fill="#B8C4CE"/>
<path d="M88.5753 42.2054C88.5753 40.6015 89.8756 39.3013 91.4795 39.3013H169.6C171.204 39.3013 172.504 40.6015 172.504 42.2054V151.109H88.5753V42.2054Z" fill="#08B564" fill-opacity="0.65"/>
<path d="M189.929 8.80817C189.929 7.20427 191.229 5.90405 192.833 5.90405H270.953C272.557 5.90405 273.858 7.20427 273.858 8.80816V151.11H189.929V8.80817Z" fill="#FB8308" fill-opacity="0.65"/>
<path d="M291.282 49.4656C291.282 47.8617 292.582 46.5615 294.186 46.5615H372.307C373.911 46.5615 375.211 47.8617 375.211 49.4656V151.109H291.282V49.4656Z" fill="#4285F4" fill-opacity="0.65"/>
<path d="M392.636 72.6985C392.636 71.0946 393.936 69.7944 395.54 69.7944H473.66C475.264 69.7944 476.564 71.0946 476.564 72.6985V151.11H392.636V72.6985Z" fill="#7649B3" fill-opacity="0.65"/>
<path d="M493.989 42.0137C493.989 40.4098 495.289 39.1096 496.893 39.1096H575.014C576.618 39.1096 577.918 40.4098 577.918 42.0137V151.11H493.989V42.0137Z" fill="#EF1D9B" fill-opacity="0.65"/>
<g clip-path="url(#clip0_186_2513)">
<rect x="24.3944" y="201.929" width="9.29315" height="9.29315" rx="4.64657" fill="#08B564" fill-opacity="0.65"/>
<path d="M41.0931 211.575L44.8394 201.411H46.1318L49.8636 211.575H48.5712L47.6419 208.961H43.3148L42.371 211.575H41.0931ZM43.6778 207.974H47.2789L45.4784 202.95L43.6778 207.974ZM54.2156 211.749C53.5283 211.749 52.9088 211.595 52.357 211.285C51.8149 210.965 51.3841 210.525 51.0647 209.963C50.7549 209.392 50.6 208.729 50.6 207.974C50.6 207.219 50.7549 206.561 51.0647 205.999C51.3841 205.428 51.8149 204.988 52.357 204.678C52.9088 204.358 53.5283 204.199 54.2156 204.199C55.0675 204.199 55.7839 204.421 56.3647 204.867C56.9552 205.312 57.3279 205.907 57.4828 206.653H56.234C56.1372 206.207 55.9 205.864 55.5225 205.622C55.145 205.37 54.7045 205.244 54.2011 205.244C53.7945 205.244 53.4122 205.346 53.054 205.549C52.6958 205.752 52.4054 206.057 52.1828 206.464C51.9601 206.871 51.8488 207.374 51.8488 207.974C51.8488 208.574 51.9601 209.078 52.1828 209.484C52.4054 209.891 52.6958 210.201 53.054 210.414C53.4122 210.617 53.7945 210.718 54.2011 210.718C54.7045 210.718 55.145 210.597 55.5225 210.355C55.9 210.104 56.1372 209.75 56.234 209.295H57.4828C57.3376 210.021 56.9697 210.612 56.3792 211.067C55.7887 211.522 55.0675 211.749 54.2156 211.749ZM61.8337 211.575C61.1754 211.575 60.6575 211.415 60.28 211.096C59.9025 210.777 59.7137 210.201 59.7137 209.368V205.404H58.4649V204.373H59.7137L59.8734 202.645H60.9334V204.373H63.0534V205.404H60.9334V209.368C60.9334 209.823 61.0254 210.133 61.2093 210.297C61.3933 210.452 61.7175 210.53 62.1822 210.53H62.9373V211.575H61.8337ZM65.3436 202.776C65.1016 202.776 64.8983 202.698 64.7337 202.543C64.5788 202.379 64.5014 202.176 64.5014 201.934C64.5014 201.701 64.5788 201.508 64.7337 201.353C64.8983 201.198 65.1016 201.12 65.3436 201.12C65.5759 201.12 65.7744 201.198 65.9389 201.353C66.1035 201.508 66.1858 201.701 66.1858 201.934C66.1858 202.176 66.1035 202.379 65.9389 202.543C65.7744 202.698 65.5759 202.776 65.3436 202.776ZM64.7337 211.575V204.373H65.9535V211.575H64.7337ZM70.1536 211.575L67.4238 204.373H68.7016L70.8651 210.399L73.0432 204.373H74.292L71.5621 211.575H70.1536ZM78.5188 211.749C77.8315 211.749 77.2217 211.595 76.6893 211.285C76.1568 210.965 75.7357 210.525 75.426 209.963C75.1259 209.402 74.9758 208.739 74.9758 207.974C74.9758 207.219 75.1259 206.561 75.426 205.999C75.7261 205.428 76.1423 204.988 76.6747 204.678C77.2168 204.358 77.8412 204.199 78.5479 204.199C79.2449 204.199 79.845 204.358 80.3484 204.678C80.8615 204.988 81.2535 205.399 81.5246 205.912C81.7956 206.425 81.9312 206.977 81.9312 207.568C81.9312 207.674 81.9263 207.78 81.9166 207.887C81.9166 207.993 81.9166 208.114 81.9166 208.25H76.181C76.2101 208.802 76.3359 209.262 76.5586 209.629C76.7909 209.988 77.0765 210.259 77.4153 210.443C77.7638 210.627 78.1316 210.718 78.5188 210.718C79.0222 210.718 79.4433 210.602 79.7821 210.37C80.1209 210.138 80.3678 209.823 80.5227 209.426H81.7279C81.5343 210.094 81.1616 210.651 80.6098 211.096C80.0677 211.532 79.3707 211.749 78.5188 211.749ZM78.5188 205.23C77.938 205.23 77.4201 205.409 76.9651 205.767C76.5198 206.115 76.2633 206.629 76.1956 207.306H80.726C80.6969 206.658 80.4743 206.149 80.058 205.781C79.6418 205.414 79.1287 205.23 78.5188 205.23ZM89.7285 211.749C88.8088 211.749 88.0877 211.493 87.5649 210.98C87.0422 210.467 86.7808 209.755 86.7808 208.845H88.015C88.015 209.358 88.1409 209.789 88.3926 210.138C88.6443 210.486 89.0847 210.66 89.714 210.66C90.3238 210.66 90.7449 210.491 90.9772 210.152C91.2193 209.813 91.3403 209.392 91.3403 208.889V201.411H92.56V208.889C92.56 209.789 92.3083 210.491 91.8049 210.994C91.3112 211.498 90.6191 211.749 89.7285 211.749ZM97.9184 211.749C97.2408 211.749 96.6309 211.595 96.0888 211.285C95.5467 210.975 95.1159 210.539 94.7965 209.978C94.4867 209.407 94.3318 208.739 94.3318 207.974C94.3318 207.209 94.4916 206.546 94.811 205.985C95.1305 205.414 95.5612 204.973 96.1033 204.663C96.6551 204.354 97.2698 204.199 97.9474 204.199C98.6251 204.199 99.2349 204.354 99.777 204.663C100.319 204.973 100.745 205.414 101.055 205.985C101.374 206.546 101.534 207.209 101.534 207.974C101.534 208.739 101.374 209.407 101.055 209.978C100.735 210.539 100.3 210.975 99.748 211.285C99.2059 211.595 98.596 211.749 97.9184 211.749ZM97.9184 210.704C98.3347 210.704 98.7219 210.602 99.08 210.399C99.4382 210.196 99.7286 209.891 99.9513 209.484C100.174 209.078 100.285 208.574 100.285 207.974C100.285 207.374 100.174 206.871 99.9513 206.464C99.7383 206.057 99.4527 205.752 99.0946 205.549C98.7364 205.346 98.354 205.244 97.9474 205.244C97.5312 205.244 97.144 205.346 96.7858 205.549C96.4276 205.752 96.1372 206.057 95.9146 206.464C95.6919 206.871 95.5806 207.374 95.5806 207.974C95.5806 208.574 95.6919 209.078 95.9146 209.484C96.1372 209.891 96.4228 210.196 96.7713 210.399C97.1295 210.602 97.5118 210.704 97.9184 210.704ZM107.078 211.749C106.487 211.749 105.96 211.628 105.495 211.386C105.04 211.144 104.692 210.806 104.45 210.37L104.334 211.575H103.23V201.12H104.45V205.564C104.682 205.215 105.011 204.901 105.437 204.62C105.873 204.339 106.424 204.199 107.092 204.199C107.809 204.199 108.433 204.363 108.966 204.692C109.498 205.022 109.909 205.472 110.2 206.043C110.5 206.614 110.65 207.263 110.65 207.989C110.65 208.715 110.5 209.363 110.2 209.934C109.909 210.496 109.493 210.941 108.951 211.27C108.419 211.59 107.794 211.749 107.078 211.749ZM106.947 210.689C107.431 210.689 107.857 210.578 108.225 210.355C108.593 210.123 108.883 209.804 109.096 209.397C109.309 208.991 109.416 208.516 109.416 207.974C109.416 207.432 109.309 206.958 109.096 206.551C108.883 206.145 108.593 205.83 108.225 205.607C107.857 205.375 107.431 205.259 106.947 205.259C106.463 205.259 106.037 205.375 105.669 205.607C105.302 205.83 105.011 206.145 104.798 206.551C104.585 206.958 104.479 207.432 104.479 207.974C104.479 208.516 104.585 208.991 104.798 209.397C105.011 209.804 105.302 210.123 105.669 210.355C106.037 210.578 106.463 210.689 106.947 210.689ZM115.107 211.749C114.245 211.749 113.529 211.532 112.958 211.096C112.387 210.66 112.053 210.07 111.956 209.325H113.205C113.282 209.702 113.48 210.031 113.8 210.312C114.129 210.583 114.57 210.718 115.121 210.718C115.634 210.718 116.012 210.612 116.254 210.399C116.496 210.176 116.617 209.915 116.617 209.615C116.617 209.179 116.457 208.889 116.138 208.744C115.828 208.598 115.387 208.468 114.816 208.352C114.429 208.274 114.042 208.163 113.655 208.018C113.267 207.872 112.943 207.669 112.682 207.408C112.42 207.137 112.29 206.783 112.29 206.348C112.29 205.719 112.522 205.206 112.987 204.809C113.461 204.402 114.1 204.199 114.903 204.199C115.668 204.199 116.293 204.392 116.777 204.78C117.27 205.157 117.556 205.699 117.633 206.406H116.428C116.38 206.038 116.22 205.752 115.949 205.549C115.688 205.336 115.334 205.23 114.889 205.23C114.453 205.23 114.115 205.322 113.873 205.506C113.64 205.69 113.524 205.932 113.524 206.232C113.524 206.522 113.674 206.75 113.974 206.914C114.284 207.079 114.7 207.219 115.223 207.335C115.668 207.432 116.089 207.553 116.486 207.698C116.893 207.834 117.222 208.042 117.474 208.323C117.735 208.594 117.866 208.991 117.866 209.513C117.875 210.162 117.628 210.699 117.125 211.125C116.631 211.541 115.959 211.749 115.107 211.749Z" fill="#8C97A7"/>
</g>
<g clip-path="url(#clip1_186_2513)">
<rect x="143.052" y="201.928" width="9.29315" height="9.29315" rx="4.64658" fill="#FB8308" fill-opacity="0.65"/>
<path d="M160.39 211.575V201.411H163.512C165.302 201.411 166.619 201.866 167.461 202.776C168.313 203.686 168.739 204.934 168.739 206.522C168.739 208.081 168.313 209.315 167.461 210.225C166.619 211.125 165.302 211.575 163.512 211.575H160.39ZM161.609 210.559H163.482C164.47 210.559 165.254 210.399 165.835 210.08C166.425 209.75 166.846 209.286 167.098 208.686C167.35 208.076 167.476 207.355 167.476 206.522C167.476 205.67 167.35 204.939 167.098 204.329C166.846 203.72 166.425 203.25 165.835 202.921C165.254 202.592 164.47 202.427 163.482 202.427H161.609V210.559ZM170.427 211.575V204.373H171.531L171.633 205.752C171.855 205.278 172.194 204.901 172.649 204.62C173.104 204.339 173.666 204.199 174.334 204.199V205.477H174C173.574 205.477 173.182 205.554 172.823 205.709C172.465 205.854 172.18 206.106 171.967 206.464C171.754 206.822 171.647 207.316 171.647 207.945V211.575H170.427ZM178.098 211.749C177.498 211.749 177 211.648 176.603 211.445C176.206 211.241 175.911 210.97 175.717 210.631C175.523 210.293 175.427 209.925 175.427 209.528C175.427 208.792 175.707 208.226 176.269 207.829C176.83 207.432 177.595 207.234 178.563 207.234H180.509V207.146C180.509 206.517 180.344 206.043 180.015 205.723C179.686 205.394 179.246 205.23 178.694 205.23C178.219 205.23 177.808 205.351 177.46 205.593C177.121 205.825 176.908 206.169 176.821 206.624H175.572C175.62 206.101 175.794 205.66 176.095 205.302C176.404 204.944 176.787 204.673 177.242 204.489C177.697 204.296 178.181 204.199 178.694 204.199C179.701 204.199 180.456 204.47 180.959 205.012C181.472 205.544 181.729 206.256 181.729 207.146V211.575H180.64L180.567 210.283C180.364 210.689 180.064 211.038 179.667 211.328C179.279 211.609 178.757 211.749 178.098 211.749ZM178.287 210.718C178.752 210.718 179.149 210.597 179.478 210.355C179.817 210.113 180.073 209.799 180.247 209.412C180.422 209.024 180.509 208.618 180.509 208.192V208.177H178.665C177.948 208.177 177.44 208.303 177.14 208.555C176.85 208.797 176.704 209.102 176.704 209.47C176.704 209.847 176.84 210.152 177.111 210.385C177.392 210.607 177.784 210.718 178.287 210.718ZM183.95 211.575V205.404H182.861V204.373H183.95V203.124C183.95 202.427 184.125 201.919 184.473 201.6C184.822 201.28 185.33 201.12 185.998 201.12H186.724V202.166H186.187C185.819 202.166 185.557 202.243 185.402 202.398C185.248 202.543 185.17 202.795 185.17 203.153V204.373H186.942V205.404H185.17V211.575H183.95ZM191.24 211.575C190.582 211.575 190.064 211.415 189.686 211.096C189.309 210.777 189.12 210.201 189.12 209.368V205.404H187.871V204.373H189.12L189.28 202.645H190.34V204.373H192.46V205.404H190.34V209.368C190.34 209.823 190.432 210.133 190.615 210.297C190.799 210.452 191.124 210.53 191.588 210.53H192.343V211.575H191.24ZM200.19 211.749C199.27 211.749 198.549 211.493 198.026 210.98C197.504 210.467 197.242 209.755 197.242 208.845H198.476C198.476 209.358 198.602 209.789 198.854 210.138C199.106 210.486 199.546 210.66 200.175 210.66C200.785 210.66 201.206 210.491 201.439 210.152C201.681 209.813 201.802 209.392 201.802 208.889V201.411H203.021V208.889C203.021 209.789 202.77 210.491 202.266 210.994C201.773 211.498 201.08 211.749 200.19 211.749ZM208.38 211.749C207.702 211.749 207.092 211.595 206.55 211.285C206.008 210.975 205.577 210.539 205.258 209.978C204.948 209.407 204.793 208.739 204.793 207.974C204.793 207.209 204.953 206.546 205.272 205.985C205.592 205.414 206.023 204.973 206.565 204.663C207.116 204.354 207.731 204.199 208.409 204.199C209.086 204.199 209.696 204.354 210.238 204.663C210.78 204.973 211.206 205.414 211.516 205.985C211.836 206.546 211.995 207.209 211.995 207.974C211.995 208.739 211.836 209.407 211.516 209.978C211.197 210.539 210.761 210.975 210.209 211.285C209.667 211.595 209.057 211.749 208.38 211.749ZM208.38 210.704C208.796 210.704 209.183 210.602 209.541 210.399C209.9 210.196 210.19 209.891 210.413 209.484C210.635 209.078 210.747 208.574 210.747 207.974C210.747 207.374 210.635 206.871 210.413 206.464C210.2 206.057 209.914 205.752 209.556 205.549C209.198 205.346 208.815 205.244 208.409 205.244C207.993 205.244 207.605 205.346 207.247 205.549C206.889 205.752 206.599 206.057 206.376 206.464C206.153 206.871 206.042 207.374 206.042 207.974C206.042 208.574 206.153 209.078 206.376 209.484C206.599 209.891 206.884 210.196 207.233 210.399C207.591 210.602 207.973 210.704 208.38 210.704ZM217.539 211.749C216.949 211.749 216.421 211.628 215.957 211.386C215.502 211.144 215.153 210.806 214.911 210.37L214.795 211.575H213.691V201.12H214.911V205.564C215.143 205.215 215.473 204.901 215.898 204.62C216.334 204.339 216.886 204.199 217.554 204.199C218.27 204.199 218.895 204.363 219.427 204.692C219.959 205.022 220.371 205.472 220.661 206.043C220.961 206.614 221.111 207.263 221.111 207.989C221.111 208.715 220.961 209.363 220.661 209.934C220.371 210.496 219.955 210.941 219.412 211.27C218.88 211.59 218.256 211.749 217.539 211.749ZM217.409 210.689C217.893 210.689 218.319 210.578 218.686 210.355C219.054 210.123 219.345 209.804 219.558 209.397C219.771 208.991 219.877 208.516 219.877 207.974C219.877 207.432 219.771 206.958 219.558 206.551C219.345 206.145 219.054 205.83 218.686 205.607C218.319 205.375 217.893 205.259 217.409 205.259C216.925 205.259 216.499 205.375 216.131 205.607C215.763 205.83 215.473 206.145 215.26 206.551C215.047 206.958 214.94 207.432 214.94 207.974C214.94 208.516 215.047 208.991 215.26 209.397C215.473 209.804 215.763 210.123 216.131 210.355C216.499 210.578 216.925 210.689 217.409 210.689ZM225.568 211.749C224.707 211.749 223.99 211.532 223.419 211.096C222.848 210.66 222.514 210.07 222.417 209.325H223.666C223.743 209.702 223.942 210.031 224.261 210.312C224.59 210.583 225.031 210.718 225.583 210.718C226.096 210.718 226.473 210.612 226.715 210.399C226.957 210.176 227.078 209.915 227.078 209.615C227.078 209.179 226.919 208.889 226.599 208.744C226.289 208.598 225.849 208.468 225.278 208.352C224.891 208.274 224.503 208.163 224.116 208.018C223.729 207.872 223.405 207.669 223.143 207.408C222.882 207.137 222.751 206.783 222.751 206.348C222.751 205.719 222.983 205.206 223.448 204.809C223.922 204.402 224.561 204.199 225.365 204.199C226.13 204.199 226.754 204.392 227.238 204.78C227.732 205.157 228.017 205.699 228.095 206.406H226.889C226.841 206.038 226.681 205.752 226.41 205.549C226.149 205.336 225.796 205.23 225.35 205.23C224.915 205.23 224.576 205.322 224.334 205.506C224.102 205.69 223.985 205.932 223.985 206.232C223.985 206.522 224.135 206.75 224.436 206.914C224.745 207.079 225.162 207.219 225.684 207.335C226.13 207.432 226.551 207.553 226.948 207.698C227.354 207.834 227.683 208.042 227.935 208.323C228.196 208.594 228.327 208.991 228.327 209.513C228.337 210.162 228.09 210.699 227.586 211.125C227.093 211.541 226.42 211.749 225.568 211.749Z" fill="#8C97A7"/>
</g>
<g clip-path="url(#clip2_186_2513)">
<rect x="253.709" y="201.928" width="9.29315" height="9.29315" rx="4.64658" fill="#4285F4" fill-opacity="0.65"/>
<path d="M274.285 211.749C273.54 211.749 272.891 211.614 272.339 211.343C271.788 211.072 271.362 210.694 271.062 210.21C270.762 209.726 270.612 209.165 270.612 208.526H271.889C271.889 208.923 271.981 209.291 272.165 209.629C272.349 209.959 272.615 210.225 272.964 210.428C273.322 210.622 273.762 210.718 274.285 210.718C274.973 210.718 275.505 210.554 275.882 210.225C276.26 209.896 276.449 209.484 276.449 208.991C276.449 208.584 276.362 208.26 276.187 208.018C276.013 207.766 275.776 207.563 275.476 207.408C275.185 207.253 274.847 207.117 274.459 207.001C274.082 206.885 273.685 206.754 273.269 206.609C272.485 206.338 271.904 206.004 271.526 205.607C271.149 205.201 270.96 204.673 270.96 204.025C270.95 203.482 271.076 203.003 271.338 202.587C271.599 202.161 271.967 201.832 272.441 201.6C272.925 201.358 273.496 201.237 274.155 201.237C274.803 201.237 275.365 201.358 275.839 201.6C276.323 201.842 276.696 202.176 276.957 202.601C277.228 203.027 277.368 203.511 277.378 204.054H276.1C276.1 203.773 276.028 203.497 275.882 203.226C275.737 202.945 275.515 202.718 275.215 202.543C274.924 202.369 274.556 202.282 274.111 202.282C273.559 202.272 273.104 202.413 272.746 202.703C272.398 202.994 272.223 203.395 272.223 203.908C272.223 204.344 272.344 204.678 272.586 204.91C272.838 205.143 273.186 205.336 273.632 205.491C274.077 205.636 274.59 205.806 275.171 205.999C275.655 206.174 276.091 206.377 276.478 206.609C276.865 206.841 277.165 207.142 277.378 207.509C277.601 207.877 277.712 208.347 277.712 208.918C277.712 209.402 277.586 209.862 277.335 210.297C277.083 210.723 276.7 211.072 276.187 211.343C275.684 211.614 275.05 211.749 274.285 211.749ZM281.765 211.749C281.165 211.749 280.666 211.648 280.269 211.445C279.873 211.241 279.577 210.97 279.384 210.631C279.19 210.293 279.093 209.925 279.093 209.528C279.093 208.792 279.374 208.226 279.936 207.829C280.497 207.432 281.262 207.234 282.23 207.234H284.176V207.146C284.176 206.517 284.011 206.043 283.682 205.723C283.353 205.394 282.912 205.23 282.36 205.23C281.886 205.23 281.475 205.351 281.126 205.593C280.787 205.825 280.574 206.169 280.487 206.624H279.239C279.287 206.101 279.461 205.66 279.761 205.302C280.071 204.944 280.453 204.673 280.908 204.489C281.363 204.296 281.847 204.199 282.36 204.199C283.367 204.199 284.122 204.47 284.626 205.012C285.139 205.544 285.395 206.256 285.395 207.146V211.575H284.306L284.234 210.283C284.03 210.689 283.73 211.038 283.333 211.328C282.946 211.609 282.423 211.749 281.765 211.749ZM281.954 210.718C282.419 210.718 282.815 210.597 283.145 210.355C283.483 210.113 283.74 209.799 283.914 209.412C284.088 209.024 284.176 208.618 284.176 208.192V208.177H282.331C281.615 208.177 281.107 208.303 280.807 208.555C280.516 208.797 280.371 209.102 280.371 209.47C280.371 209.847 280.507 210.152 280.778 210.385C281.058 210.607 281.45 210.718 281.954 210.718ZM289.032 211.575L286.302 204.373H287.58L289.744 210.399L291.922 204.373H293.17L290.441 211.575H289.032ZM297.397 211.749C296.71 211.749 296.1 211.595 295.568 211.285C295.035 210.965 294.614 210.525 294.304 209.963C294.004 209.402 293.854 208.739 293.854 207.974C293.854 207.219 294.004 206.561 294.304 205.999C294.604 205.428 295.021 204.988 295.553 204.678C296.095 204.358 296.72 204.199 297.426 204.199C298.123 204.199 298.723 204.358 299.227 204.678C299.74 204.988 300.132 205.399 300.403 205.912C300.674 206.425 300.81 206.977 300.81 207.568C300.81 207.674 300.805 207.78 300.795 207.887C300.795 207.993 300.795 208.114 300.795 208.25H295.059C295.089 208.802 295.214 209.262 295.437 209.629C295.669 209.988 295.955 210.259 296.294 210.443C296.642 210.627 297.01 210.718 297.397 210.718C297.901 210.718 298.322 210.602 298.661 210.37C298.999 210.138 299.246 209.823 299.401 209.426H300.606C300.413 210.094 300.04 210.651 299.488 211.096C298.946 211.532 298.249 211.749 297.397 211.749ZM297.397 205.23C296.816 205.23 296.299 205.409 295.844 205.767C295.398 206.115 295.142 206.629 295.074 207.306H299.604C299.575 206.658 299.353 206.149 298.936 205.781C298.52 205.414 298.007 205.23 297.397 205.23ZM305.693 211.749C304.977 211.749 304.348 211.585 303.806 211.256C303.273 210.927 302.857 210.476 302.557 209.905C302.267 209.334 302.121 208.686 302.121 207.96C302.121 207.234 302.271 206.59 302.571 206.028C302.872 205.457 303.288 205.012 303.82 204.692C304.353 204.363 304.982 204.199 305.708 204.199C306.298 204.199 306.821 204.32 307.276 204.562C307.731 204.804 308.084 205.143 308.336 205.578V201.12H309.556V211.575H308.452L308.336 210.385C308.104 210.733 307.77 211.048 307.334 211.328C306.899 211.609 306.352 211.749 305.693 211.749ZM305.824 210.689C306.308 210.689 306.734 210.578 307.102 210.355C307.479 210.123 307.77 209.804 307.973 209.397C308.186 208.991 308.293 208.516 308.293 207.974C308.293 207.432 308.186 206.958 307.973 206.551C307.77 206.145 307.479 205.83 307.102 205.607C306.734 205.375 306.308 205.259 305.824 205.259C305.35 205.259 304.924 205.375 304.546 205.607C304.178 205.83 303.888 206.145 303.675 206.551C303.472 206.958 303.37 207.432 303.37 207.974C303.37 208.516 303.472 208.991 303.675 209.397C303.888 209.804 304.178 210.123 304.546 210.355C304.924 210.578 305.35 210.689 305.824 210.689ZM317.725 211.749C316.805 211.749 316.084 211.493 315.561 210.98C315.038 210.467 314.777 209.755 314.777 208.845H316.011C316.011 209.358 316.137 209.789 316.389 210.138C316.641 210.486 317.081 210.66 317.71 210.66C318.32 210.66 318.741 210.491 318.974 210.152C319.216 209.813 319.337 209.392 319.337 208.889V201.411H320.556V208.889C320.556 209.789 320.305 210.491 319.801 210.994C319.308 211.498 318.615 211.749 317.725 211.749ZM325.915 211.749C325.237 211.749 324.627 211.595 324.085 211.285C323.543 210.975 323.112 210.539 322.793 209.978C322.483 209.407 322.328 208.739 322.328 207.974C322.328 207.209 322.488 206.546 322.807 205.985C323.127 205.414 323.558 204.973 324.1 204.663C324.651 204.354 325.266 204.199 325.944 204.199C326.621 204.199 327.231 204.354 327.773 204.663C328.315 204.973 328.741 205.414 329.051 205.985C329.371 206.546 329.53 207.209 329.53 207.974C329.53 208.739 329.371 209.407 329.051 209.978C328.732 210.539 328.296 210.975 327.744 211.285C327.202 211.595 326.592 211.749 325.915 211.749ZM325.915 210.704C326.331 210.704 326.718 210.602 327.076 210.399C327.435 210.196 327.725 209.891 327.948 209.484C328.17 209.078 328.282 208.574 328.282 207.974C328.282 207.374 328.17 206.871 327.948 206.464C327.735 206.057 327.449 205.752 327.091 205.549C326.733 205.346 326.35 205.244 325.944 205.244C325.528 205.244 325.14 205.346 324.782 205.549C324.424 205.752 324.134 206.057 323.911 206.464C323.688 206.871 323.577 207.374 323.577 207.974C323.577 208.574 323.688 209.078 323.911 209.484C324.134 209.891 324.419 210.196 324.768 210.399C325.126 210.602 325.508 210.704 325.915 210.704ZM335.074 211.749C334.484 211.749 333.956 211.628 333.492 211.386C333.037 211.144 332.688 210.806 332.446 210.37L332.33 211.575H331.226V201.12H332.446V205.564C332.678 205.215 333.007 204.901 333.433 204.62C333.869 204.339 334.421 204.199 335.089 204.199C335.805 204.199 336.429 204.363 336.962 204.692C337.494 205.022 337.906 205.472 338.196 206.043C338.496 206.614 338.646 207.263 338.646 207.989C338.646 208.715 338.496 209.363 338.196 209.934C337.906 210.496 337.489 210.941 336.947 211.27C336.415 211.59 335.791 211.749 335.074 211.749ZM334.944 210.689C335.428 210.689 335.854 210.578 336.221 210.355C336.589 210.123 336.88 209.804 337.093 209.397C337.306 208.991 337.412 208.516 337.412 207.974C337.412 207.432 337.306 206.958 337.093 206.551C336.88 206.145 336.589 205.83 336.221 205.607C335.854 205.375 335.428 205.259 334.944 205.259C334.46 205.259 334.034 205.375 333.666 205.607C333.298 205.83 333.007 206.145 332.795 206.551C332.582 206.958 332.475 207.432 332.475 207.974C332.475 208.516 332.582 208.991 332.795 209.397C333.007 209.804 333.298 210.123 333.666 210.355C334.034 210.578 334.46 210.689 334.944 210.689ZM343.103 211.749C342.242 211.749 341.525 211.532 340.954 211.096C340.383 210.66 340.049 210.07 339.952 209.325H341.201C341.278 209.702 341.477 210.031 341.796 210.312C342.125 210.583 342.566 210.718 343.118 210.718C343.631 210.718 344.008 210.612 344.25 210.399C344.492 210.176 344.613 209.915 344.613 209.615C344.613 209.179 344.453 208.889 344.134 208.744C343.824 208.598 343.384 208.468 342.813 208.352C342.425 208.274 342.038 208.163 341.651 208.018C341.264 207.872 340.94 207.669 340.678 207.408C340.417 207.137 340.286 206.783 340.286 206.348C340.286 205.719 340.518 205.206 340.983 204.809C341.457 204.402 342.096 204.199 342.9 204.199C343.665 204.199 344.289 204.392 344.773 204.78C345.267 205.157 345.552 205.699 345.63 206.406H344.424C344.376 206.038 344.216 205.752 343.945 205.549C343.684 205.336 343.331 205.23 342.885 205.23C342.45 205.23 342.111 205.322 341.869 205.506C341.637 205.69 341.52 205.932 341.52 206.232C341.52 206.522 341.67 206.75 341.97 206.914C342.28 207.079 342.697 207.219 343.219 207.335C343.665 207.432 344.086 207.553 344.483 207.698C344.889 207.834 345.218 208.042 345.47 208.323C345.731 208.594 345.862 208.991 345.862 209.513C345.872 210.162 345.625 210.699 345.121 211.125C344.628 211.541 343.955 211.749 343.103 211.749Z" fill="#8C97A7"/>
</g>
<g clip-path="url(#clip3_186_2513)">
<rect x="371.367" y="201.928" width="9.29315" height="9.29315" rx="4.64658" fill="#7649B3" fill-opacity="0.65"/>
<path d="M388.705 211.575V201.411H391.986C392.78 201.411 393.429 201.541 393.932 201.803C394.435 202.064 394.808 202.422 395.05 202.877C395.292 203.332 395.413 203.836 395.413 204.388C395.413 205.026 395.239 205.602 394.89 206.115C394.552 206.629 394.019 206.992 393.293 207.205L395.515 211.575H394.077L392.015 207.379H391.928H389.924V211.575H388.705ZM389.924 206.42H391.899C392.683 206.42 393.254 206.232 393.613 205.854C393.971 205.477 394.15 204.993 394.15 204.402C394.15 203.802 393.971 203.328 393.613 202.979C393.264 202.621 392.688 202.442 391.885 202.442H389.924V206.42ZM400.038 211.749C399.351 211.749 398.741 211.595 398.208 211.285C397.676 210.965 397.255 210.525 396.945 209.963C396.645 209.402 396.495 208.739 396.495 207.974C396.495 207.219 396.645 206.561 396.945 205.999C397.245 205.428 397.661 204.988 398.194 204.678C398.736 204.358 399.36 204.199 400.067 204.199C400.764 204.199 401.364 204.358 401.868 204.678C402.381 204.988 402.773 205.399 403.044 205.912C403.315 206.425 403.45 206.977 403.45 207.568C403.45 207.674 403.445 207.78 403.436 207.887C403.436 207.993 403.436 208.114 403.436 208.25H397.7C397.729 208.802 397.855 209.262 398.078 209.629C398.31 209.988 398.596 210.259 398.934 210.443C399.283 210.627 399.651 210.718 400.038 210.718C400.541 210.718 400.962 210.602 401.301 210.37C401.64 210.138 401.887 209.823 402.042 209.426H403.247C403.053 210.094 402.681 210.651 402.129 211.096C401.587 211.532 400.89 211.749 400.038 211.749ZM400.038 205.23C399.457 205.23 398.939 205.409 398.484 205.767C398.039 206.115 397.782 206.629 397.715 207.306H402.245C402.216 206.658 401.993 206.149 401.577 205.781C401.161 205.414 400.648 205.23 400.038 205.23ZM407.826 211.749C406.964 211.749 406.248 211.532 405.677 211.096C405.106 210.66 404.772 210.07 404.675 209.325H405.924C406.001 209.702 406.2 210.031 406.519 210.312C406.848 210.583 407.289 210.718 407.84 210.718C408.353 210.718 408.731 210.612 408.973 210.399C409.215 210.176 409.336 209.915 409.336 209.615C409.336 209.179 409.176 208.889 408.857 208.744C408.547 208.598 408.107 208.468 407.535 208.352C407.148 208.274 406.761 208.163 406.374 208.018C405.987 207.872 405.662 207.669 405.401 207.408C405.14 207.137 405.009 206.783 405.009 206.348C405.009 205.719 405.241 205.206 405.706 204.809C406.18 204.402 406.819 204.199 407.623 204.199C408.387 204.199 409.012 204.392 409.496 204.78C409.989 205.157 410.275 205.699 410.352 206.406H409.147C409.099 206.038 408.939 205.752 408.668 205.549C408.407 205.336 408.053 205.23 407.608 205.23C407.172 205.23 406.834 205.322 406.592 205.506C406.359 205.69 406.243 205.932 406.243 206.232C406.243 206.522 406.393 206.75 406.693 206.914C407.003 207.079 407.419 207.219 407.942 207.335C408.387 207.432 408.808 207.553 409.205 207.698C409.612 207.834 409.941 208.042 410.193 208.323C410.454 208.594 410.585 208.991 410.585 209.513C410.594 210.162 410.348 210.699 409.844 211.125C409.35 211.541 408.678 211.749 407.826 211.749ZM414.955 211.749C414.104 211.749 413.426 211.493 412.923 210.98C412.419 210.457 412.167 209.658 412.167 208.584V204.373H413.387V208.453C413.387 209.954 414.002 210.704 415.231 210.704C415.861 210.704 416.378 210.481 416.785 210.036C417.201 209.581 417.409 208.937 417.409 208.105V204.373H418.629V211.575H417.526L417.438 210.283C417.216 210.738 416.882 211.096 416.437 211.357C416.001 211.619 415.507 211.749 414.955 211.749ZM420.637 211.575V204.373H421.74L421.827 205.418C422.06 205.031 422.37 204.731 422.757 204.518C423.144 204.305 423.58 204.199 424.064 204.199C424.635 204.199 425.124 204.315 425.53 204.547C425.946 204.78 426.266 205.133 426.489 205.607C426.74 205.172 427.084 204.828 427.52 204.576C427.965 204.325 428.444 204.199 428.957 204.199C429.819 204.199 430.506 204.46 431.019 204.983C431.532 205.496 431.789 206.29 431.789 207.364V211.575H430.583V207.495C430.583 206.75 430.433 206.188 430.133 205.811C429.833 205.433 429.402 205.244 428.841 205.244C428.26 205.244 427.776 205.472 427.389 205.927C427.011 206.372 426.823 207.011 426.823 207.843V211.575H425.603V207.495C425.603 206.75 425.453 206.188 425.153 205.811C424.853 205.433 424.422 205.244 423.86 205.244C423.289 205.244 422.81 205.472 422.423 205.927C422.045 206.372 421.857 207.011 421.857 207.843V211.575H420.637ZM436.864 211.749C436.177 211.749 435.567 211.595 435.034 211.285C434.502 210.965 434.081 210.525 433.771 209.963C433.471 209.402 433.321 208.739 433.321 207.974C433.321 207.219 433.471 206.561 433.771 205.999C434.071 205.428 434.487 204.988 435.02 204.678C435.562 204.358 436.186 204.199 436.893 204.199C437.59 204.199 438.19 204.358 438.694 204.678C439.207 204.988 439.599 205.399 439.87 205.912C440.141 206.425 440.276 206.977 440.276 207.568C440.276 207.674 440.271 207.78 440.262 207.887C440.262 207.993 440.262 208.114 440.262 208.25H434.526C434.555 208.802 434.681 209.262 434.904 209.629C435.136 209.988 435.422 210.259 435.76 210.443C436.109 210.627 436.477 210.718 436.864 210.718C437.367 210.718 437.788 210.602 438.127 210.37C438.466 210.138 438.713 209.823 438.868 209.426H440.073C439.879 210.094 439.507 210.651 438.955 211.096C438.413 211.532 437.716 211.749 436.864 211.749ZM436.864 205.23C436.283 205.23 435.765 205.409 435.31 205.767C434.865 206.115 434.608 206.629 434.541 207.306H439.071C439.042 206.658 438.819 206.149 438.403 205.781C437.987 205.414 437.474 205.23 436.864 205.23ZM444.652 211.749C443.79 211.749 443.074 211.532 442.503 211.096C441.932 210.66 441.598 210.07 441.501 209.325H442.75C442.827 209.702 443.026 210.031 443.345 210.312C443.674 210.583 444.115 210.718 444.666 210.718C445.179 210.718 445.557 210.612 445.799 210.399C446.041 210.176 446.162 209.915 446.162 209.615C446.162 209.179 446.002 208.889 445.683 208.744C445.373 208.598 444.933 208.468 444.361 208.352C443.974 208.274 443.587 208.163 443.2 208.018C442.813 207.872 442.488 207.669 442.227 207.408C441.966 207.137 441.835 206.783 441.835 206.348C441.835 205.719 442.067 205.206 442.532 204.809C443.006 204.402 443.645 204.199 444.449 204.199C445.213 204.199 445.838 204.392 446.322 204.78C446.815 205.157 447.101 205.699 447.178 206.406H445.973C445.925 206.038 445.765 205.752 445.494 205.549C445.233 205.336 444.879 205.23 444.434 205.23C443.998 205.23 443.66 205.322 443.418 205.506C443.185 205.69 443.069 205.932 443.069 206.232C443.069 206.522 443.219 206.75 443.519 206.914C443.829 207.079 444.245 207.219 444.768 207.335C445.213 207.432 445.634 207.553 446.031 207.698C446.438 207.834 446.767 208.042 447.019 208.323C447.28 208.594 447.411 208.991 447.411 209.513C447.42 210.162 447.174 210.699 446.67 211.125C446.177 211.541 445.504 211.749 444.652 211.749Z" fill="#8C97A7"/>
<rect x="461.408" y="201.928" width="9.29315" height="9.29315" rx="4.64658" fill="#EF1D9B" fill-opacity="0.65"/>
<path d="M478.746 211.575V201.411H484.932V202.413H479.965V205.985H484.191V206.972H479.965V211.575H478.746ZM488.329 211.749C487.729 211.749 487.231 211.648 486.834 211.445C486.437 211.241 486.142 210.97 485.948 210.631C485.754 210.293 485.658 209.925 485.658 209.528C485.658 208.792 485.938 208.226 486.5 207.829C487.061 207.432 487.826 207.234 488.794 207.234H490.74V207.146C490.74 206.517 490.575 206.043 490.246 205.723C489.917 205.394 489.476 205.23 488.925 205.23C488.45 205.23 488.039 205.351 487.69 205.593C487.352 205.825 487.139 206.169 487.052 206.624H485.803C485.851 206.101 486.025 205.66 486.325 205.302C486.635 204.944 487.018 204.673 487.473 204.489C487.928 204.296 488.412 204.199 488.925 204.199C489.931 204.199 490.686 204.47 491.19 205.012C491.703 205.544 491.959 206.256 491.959 207.146V211.575H490.87L490.798 210.283C490.595 210.689 490.294 211.038 489.898 211.328C489.51 211.609 488.988 211.749 488.329 211.749ZM488.518 210.718C488.983 210.718 489.38 210.597 489.709 210.355C490.048 210.113 490.304 209.799 490.478 209.412C490.653 209.024 490.74 208.618 490.74 208.192V208.177H488.896C488.179 208.177 487.671 208.303 487.371 208.555C487.081 208.797 486.935 209.102 486.935 209.47C486.935 209.847 487.071 210.152 487.342 210.385C487.623 210.607 488.015 210.718 488.518 210.718ZM495.596 211.575L492.866 204.373H494.144L496.308 210.399L498.486 204.373H499.735L497.005 211.575H495.596ZM504.005 211.749C503.327 211.749 502.718 211.595 502.175 211.285C501.633 210.975 501.203 210.539 500.883 209.978C500.573 209.407 500.418 208.739 500.418 207.974C500.418 207.209 500.578 206.546 500.898 205.985C501.217 205.414 501.648 204.973 502.19 204.663C502.742 204.354 503.356 204.199 504.034 204.199C504.712 204.199 505.322 204.354 505.864 204.663C506.406 204.973 506.832 205.414 507.141 205.985C507.461 206.546 507.621 207.209 507.621 207.974C507.621 208.739 507.461 209.407 507.141 209.978C506.822 210.539 506.386 210.975 505.835 211.285C505.293 211.595 504.683 211.749 504.005 211.749ZM504.005 210.704C504.421 210.704 504.809 210.602 505.167 210.399C505.525 210.196 505.815 209.891 506.038 209.484C506.261 209.078 506.372 208.574 506.372 207.974C506.372 207.374 506.261 206.871 506.038 206.464C505.825 206.057 505.539 205.752 505.181 205.549C504.823 205.346 504.441 205.244 504.034 205.244C503.618 205.244 503.231 205.346 502.872 205.549C502.514 205.752 502.224 206.057 502.001 206.464C501.779 206.871 501.667 207.374 501.667 207.974C501.667 208.574 501.779 209.078 502.001 209.484C502.224 209.891 502.509 210.196 502.858 210.399C503.216 210.602 503.598 210.704 504.005 210.704ZM511.945 211.749C511.093 211.749 510.415 211.493 509.912 210.98C509.409 210.457 509.157 209.658 509.157 208.584V204.373H510.377V208.453C510.377 209.954 510.991 210.704 512.221 210.704C512.85 210.704 513.368 210.481 513.774 210.036C514.191 209.581 514.399 208.937 514.399 208.105V204.373H515.619V211.575H514.515L514.428 210.283C514.205 210.738 513.871 211.096 513.426 211.357C512.99 211.619 512.497 211.749 511.945 211.749ZM517.626 211.575V204.373H518.73L518.831 205.752C519.054 205.278 519.393 204.901 519.848 204.62C520.303 204.339 520.864 204.199 521.532 204.199V205.477H521.198C520.772 205.477 520.38 205.554 520.022 205.709C519.664 205.854 519.378 206.106 519.165 206.464C518.952 206.822 518.846 207.316 518.846 207.945V211.575H517.626ZM523.642 202.776C523.4 202.776 523.197 202.698 523.032 202.543C522.877 202.379 522.8 202.176 522.8 201.934C522.8 201.701 522.877 201.508 523.032 201.353C523.197 201.198 523.4 201.12 523.642 201.12C523.874 201.12 524.073 201.198 524.237 201.353C524.402 201.508 524.484 201.701 524.484 201.934C524.484 202.176 524.402 202.379 524.237 202.543C524.073 202.698 523.874 202.776 523.642 202.776ZM523.032 211.575V204.373H524.252V211.575H523.032ZM529.221 211.575C528.563 211.575 528.045 211.415 527.668 211.096C527.29 210.777 527.101 210.201 527.101 209.368V205.404H525.853V204.373H527.101L527.261 202.645H528.321V204.373H530.441V205.404H528.321V209.368C528.321 209.823 528.413 210.133 528.597 210.297C528.781 210.452 529.105 210.53 529.57 210.53H530.325V211.575H529.221ZM535.03 211.749C534.343 211.749 533.733 211.595 533.201 211.285C532.668 210.965 532.247 210.525 531.937 209.963C531.637 209.402 531.487 208.739 531.487 207.974C531.487 207.219 531.637 206.561 531.937 205.999C532.238 205.428 532.654 204.988 533.186 204.678C533.728 204.358 534.353 204.199 535.059 204.199C535.756 204.199 536.357 204.358 536.86 204.678C537.373 204.988 537.765 205.399 538.036 205.912C538.307 206.425 538.443 206.977 538.443 207.568C538.443 207.674 538.438 207.78 538.428 207.887C538.428 207.993 538.428 208.114 538.428 208.25H532.693C532.722 208.802 532.847 209.262 533.07 209.629C533.302 209.988 533.588 210.259 533.927 210.443C534.275 210.627 534.643 210.718 535.03 210.718C535.534 210.718 535.955 210.602 536.294 210.37C536.632 210.138 536.879 209.823 537.034 209.426H538.239C538.046 210.094 537.673 210.651 537.121 211.096C536.579 211.532 535.882 211.749 535.03 211.749ZM535.03 205.23C534.45 205.23 533.932 205.409 533.477 205.767C533.031 206.115 532.775 206.629 532.707 207.306H537.237C537.208 206.658 536.986 206.149 536.57 205.781C536.153 205.414 535.64 205.23 535.03 205.23ZM546.24 211.749C545.32 211.749 544.599 211.493 544.076 210.98C543.554 210.467 543.292 209.755 543.292 208.845H544.527C544.527 209.358 544.652 209.789 544.904 210.138C545.156 210.486 545.596 210.66 546.225 210.66C546.835 210.66 547.256 210.491 547.489 210.152C547.731 209.813 547.852 209.392 547.852 208.889V201.411H549.071V208.889C549.071 209.789 548.82 210.491 548.316 210.994C547.823 211.498 547.131 211.749 546.24 211.749ZM554.43 211.749C553.752 211.749 553.142 211.595 552.6 211.285C552.058 210.975 551.627 210.539 551.308 209.978C550.998 209.407 550.843 208.739 550.843 207.974C550.843 207.209 551.003 206.546 551.323 205.985C551.642 205.414 552.073 204.973 552.615 204.663C553.167 204.354 553.781 204.199 554.459 204.199C555.137 204.199 555.746 204.354 556.289 204.663C556.831 204.973 557.257 205.414 557.566 205.985C557.886 206.546 558.046 207.209 558.046 207.974C558.046 208.739 557.886 209.407 557.566 209.978C557.247 210.539 556.811 210.975 556.26 211.285C555.717 211.595 555.108 211.749 554.43 211.749ZM554.43 210.704C554.846 210.704 555.233 210.602 555.592 210.399C555.95 210.196 556.24 209.891 556.463 209.484C556.685 209.078 556.797 208.574 556.797 207.974C556.797 207.374 556.685 206.871 556.463 206.464C556.25 206.057 555.964 205.752 555.606 205.549C555.248 205.346 554.866 205.244 554.459 205.244C554.043 205.244 553.655 205.346 553.297 205.549C552.939 205.752 552.649 206.057 552.426 206.464C552.203 206.871 552.092 207.374 552.092 207.974C552.092 208.574 552.203 209.078 552.426 209.484C552.649 209.891 552.934 210.196 553.283 210.399C553.641 210.602 554.023 210.704 554.43 210.704ZM563.589 211.749C562.999 211.749 562.471 211.628 562.007 211.386C561.552 211.144 561.203 210.806 560.961 210.37L560.845 211.575H559.741V201.12H560.961V205.564C561.194 205.215 561.523 204.901 561.949 204.62C562.384 204.339 562.936 204.199 563.604 204.199C564.32 204.199 564.945 204.363 565.477 204.692C566.01 205.022 566.421 205.472 566.711 206.043C567.011 206.614 567.161 207.263 567.161 207.989C567.161 208.715 567.011 209.363 566.711 209.934C566.421 210.496 566.005 210.941 565.463 211.27C564.93 211.59 564.306 211.749 563.589 211.749ZM563.459 210.689C563.943 210.689 564.369 210.578 564.737 210.355C565.104 210.123 565.395 209.804 565.608 209.397C565.821 208.991 565.927 208.516 565.927 207.974C565.927 207.432 565.821 206.958 565.608 206.551C565.395 206.145 565.104 205.83 564.737 205.607C564.369 205.375 563.943 205.259 563.459 205.259C562.975 205.259 562.549 205.375 562.181 205.607C561.813 205.83 561.523 206.145 561.31 206.551C561.097 206.958 560.99 207.432 560.99 207.974C560.99 208.516 561.097 208.991 561.31 209.397C561.523 209.804 561.813 210.123 562.181 210.355C562.549 210.578 562.975 210.689 563.459 210.689ZM571.618 211.749C570.757 211.749 570.04 211.532 569.469 211.096C568.898 210.66 568.564 210.07 568.467 209.325H569.716C569.794 209.702 569.992 210.031 570.311 210.312C570.641 210.583 571.081 210.718 571.633 210.718C572.146 210.718 572.523 210.612 572.765 210.399C573.007 210.176 573.128 209.915 573.128 209.615C573.128 209.179 572.969 208.889 572.649 208.744C572.339 208.598 571.899 208.468 571.328 208.352C570.941 208.274 570.553 208.163 570.166 208.018C569.779 207.872 569.455 207.669 569.193 207.408C568.932 207.137 568.801 206.783 568.801 206.348C568.801 205.719 569.034 205.206 569.498 204.809C569.973 204.402 570.612 204.199 571.415 204.199C572.18 204.199 572.804 204.392 573.288 204.78C573.782 205.157 574.067 205.699 574.145 206.406H572.94C572.891 206.038 572.732 205.752 572.46 205.549C572.199 205.336 571.846 205.23 571.4 205.23C570.965 205.23 570.626 205.322 570.384 205.506C570.152 205.69 570.036 205.932 570.036 206.232C570.036 206.522 570.186 206.75 570.486 206.914C570.795 207.079 571.212 207.219 571.734 207.335C572.18 207.432 572.601 207.553 572.998 207.698C573.404 207.834 573.733 208.042 573.985 208.323C574.246 208.594 574.377 208.991 574.377 209.513C574.387 210.162 574.14 210.699 573.637 211.125C573.143 211.541 572.47 211.749 571.618 211.749Z" fill="#8C97A7"/>
</g>
<defs>
<clipPath id="clip0_186_2513">
<rect width="95.4247" height="18" fill="white" transform="translate(23.2329 197.575)"/>
</clipPath>
<clipPath id="clip1_186_2513">
<rect width="87.4247" height="18" fill="white" transform="translate(141.89 197.575)"/>
</clipPath>
<clipPath id="clip2_186_2513">
<rect width="94.4247" height="18" fill="white" transform="translate(252.548 197.575)"/>
</clipPath>
<clipPath id="clip3_186_2513">
<rect width="205.466" height="18" fill="white" transform="translate(370.205 197.575)"/>
</clipPath>
</defs>
</svg>
