<svg width="20" height="21" viewBox="0 0 20 21" fill="none" xmlns="http://www.w3.org/2000/svg">
<path d="M15 1.76685H5C3.61667 1.76685 2.5 2.87518 2.5 4.24185V13.3335C2.5 14.7002 3.61667 15.8085 5 15.8085H5.63333C6.3 15.8085 6.93333 16.0668 7.4 16.5335L8.825 17.9418C9.475 18.5835 10.5333 18.5835 11.1833 17.9418L12.6083 16.5335C13.075 16.0668 13.7167 15.8085 14.375 15.8085H15C16.3833 15.8085 17.5 14.7002 17.5 13.3335V4.24185C17.5 2.87518 16.3833 1.76685 15 1.76685ZM13.9 8.85018L12.925 11.8168C12.8 12.3085 12.275 12.7085 11.7417 12.7085H10.2C9.93333 12.7085 9.55833 12.6168 9.39167 12.4502L8.16667 11.4918C8.14167 12.0252 7.9 12.2502 7.30833 12.2502H6.90833C6.29167 12.2502 6.04167 12.0085 6.04167 11.4252V7.45018C6.04167 6.86685 6.29167 6.62518 6.90833 6.62518H7.31667C7.93333 6.62518 8.18333 6.86685 8.18333 7.45018V7.75018L9.8 5.35018C9.96667 5.09185 10.3917 4.90851 10.75 5.05018C11.1417 5.18351 11.3917 5.61685 11.3083 6.00018L11.1083 7.30018C11.0833 7.40851 11.1083 7.52518 11.1833 7.60018C11.25 7.67518 11.35 7.72518 11.4583 7.72518H13.0833C13.4 7.72518 13.6667 7.85018 13.825 8.07518C13.975 8.29185 14 8.56685 13.9 8.85018Z" fill="#7649B3"/>
</svg>
