<svg width="40" height="36" viewBox="0 0 40 36" fill="none" xmlns="http://www.w3.org/2000/svg">
<path d="M19.9259 35.6446C18.9522 35.6446 17.7836 35.2551 17.0046 34.4761C4.34567 23.3751 4.15092 23.1804 4.15092 22.9856L3.95617 22.7909C1.61913 20.4538 0.255859 17.143 0.255859 13.8322V13.4427C0.450613 6.4316 6.09845 0.978516 13.1096 0.978516C15.2519 0.978516 18.1732 2.14703 19.9259 4.48407C21.6787 2.14703 24.7948 0.978516 26.937 0.978516C33.9482 0.978516 39.4012 6.4316 39.7907 13.4427V13.8322C39.7907 17.3378 38.4275 20.4538 36.0904 22.9856L35.8957 23.1804C35.7009 23.3751 34.1429 24.7384 23.042 34.6708C22.0682 35.2551 21.0944 35.6446 19.9259 35.6446ZM7.07222 22.4014C7.85123 23.1804 11.7463 25.9069 18.9522 32.139C19.5364 32.7233 20.3154 32.7233 20.8997 32.139C28.3003 25.5174 32.5849 21.8171 33.5587 21.0381L33.7534 20.8433C35.7009 18.8958 36.6747 16.364 36.6747 13.8322V13.4427C36.4799 7.98963 32.1954 3.89981 26.7423 3.89981C25.379 3.89981 22.6525 4.87358 21.6787 7.01586C21.2892 7.79488 20.5102 8.18438 19.7312 8.18438C18.9522 8.18438 18.1732 7.79488 17.7836 7.01586C16.8099 5.06833 14.2781 3.89981 12.7201 3.89981C7.46172 3.89981 2.9824 8.18438 2.78765 13.4427V14.027C2.78765 16.5588 3.95617 19.0906 5.70895 20.8433L7.07222 22.4014Z" fill="black"/>
</svg>
