<svg width="22" height="25" viewBox="0 0 22 25" fill="none" xmlns="http://www.w3.org/2000/svg">
<path fill-rule="evenodd" clip-rule="evenodd" d="M4.9687 0.0500488H12.983C15.9369 0.0500488 17.5816 1.75217 17.5816 4.66874V14.5468C17.5816 17.5112 15.9369 19.175 12.983 19.175H4.9687C2.0617 19.175 0.369141 17.5112 0.369141 14.5468V4.66874C0.369141 1.75217 2.0617 0.0500488 4.9687 0.0500488ZM5.22655 4.50614V4.49658H8.08478C8.49693 4.49658 8.83161 4.83127 8.83161 5.2415C8.83161 5.66321 8.49693 5.9979 8.08478 5.9979H5.22655C4.81441 5.9979 4.48068 5.66321 4.48068 5.25202C4.48068 4.84083 4.81441 4.50614 5.22655 4.50614ZM5.22655 10.3201H12.7236C13.1347 10.3201 13.4694 9.98543 13.4694 9.57424C13.4694 9.16305 13.1347 8.82741 12.7236 8.82741H5.22655C4.81441 8.82741 4.48068 9.16305 4.48068 9.57424C4.48068 9.98543 4.81441 10.3201 5.22655 10.3201ZM5.22647 14.6902H12.7235C13.105 14.6519 13.3928 14.3258 13.3928 13.9443C13.3928 13.5522 13.105 13.2271 12.7235 13.1888H5.22647C4.93959 13.1602 4.66228 13.294 4.50928 13.5427C4.35628 13.7817 4.35628 14.0973 4.50928 14.3459C4.66228 14.585 4.93959 14.7284 5.22647 14.6902Z" fill="#7649B3"/>
<path d="M16.7229 22.47L16.7229 22.4699L16.7208 22.4665C16.5157 22.1384 16.4012 21.7502 16.4012 21.3375C16.4012 20.123 17.3866 19.1375 18.6012 19.1375C19.8157 19.1375 20.8012 20.123 20.8012 21.3375C20.8012 21.7487 20.6824 22.1379 20.4805 22.4682L20.4805 22.4682L20.4789 22.4709C20.1037 23.1069 19.4032 23.5375 18.6012 23.5375C17.7998 23.5375 17.1035 23.1074 16.7229 22.47ZM19.9267 21.1695L19.9267 21.1696L19.9276 21.1687C20.1585 20.9532 20.1718 20.5884 19.9596 20.3534L19.9596 20.3534L19.9574 20.351C19.7433 20.1216 19.377 20.1048 19.145 20.321C19.1449 20.3211 19.1448 20.3212 19.1447 20.3213L18.2715 21.13L18.0726 20.9311C17.8495 20.708 17.4829 20.708 17.2598 20.9311C17.0366 21.1542 17.0366 21.5208 17.2598 21.7439L17.8498 22.3339C17.9642 22.4484 18.111 22.5025 18.2562 22.5025C18.3948 22.5025 18.5387 22.4497 18.647 22.3493C18.6471 22.3492 18.6472 22.3492 18.6473 22.3491L19.9267 21.1695Z" fill="#7649B3" stroke="white" stroke-width="0.4"/>
<path d="M20.5693 18.6342C19.9975 18.2242 19.3081 18.0076 18.6 18.0076C16.7545 18.0076 15.25 19.5122 15.25 21.3576C15.25 21.9091 15.3872 22.4506 15.6473 22.9351C15.071 22.7205 14.2392 22.2706 13.4497 21.5922C12.6108 20.8712 11.8314 19.902 11.4507 18.6974L11.4507 18.6974L11.4503 18.6961C11.2915 18.2051 11.2 17.6759 11.2 17.1026C11.2 15.6671 12.3564 14.5076 13.78 14.5076C14.619 14.5076 15.3708 14.9155 15.8399 15.5424L16 15.7565L16.1601 15.5424C16.6292 14.9155 17.381 14.5076 18.22 14.5076C19.6436 14.5076 20.8 15.6671 20.8 17.1026C20.8 17.6519 20.716 18.1608 20.5693 18.6342Z" fill="#7649B3" stroke="white" stroke-width="0.4"/>
</svg>
