<svg width="14" height="20" viewBox="0 0 14 20" fill="none" xmlns="http://www.w3.org/2000/svg">
<path d="M12.16 4.8501H11.25C10.3419 4.90129 9.56368 4.20802 9.51 3.3001V3.2201C9.48427 2.7822 9.28522 2.37256 8.95685 2.08172C8.62848 1.79087 8.19781 1.64276 7.76 1.6701H1.5V1.3501C1.5 0.935884 1.16421 0.600098 0.75 0.600098C0.335786 0.600098 0 0.935884 0 1.3501V18.3501C0 18.7643 0.335786 19.1001 0.75 19.1001C1.16421 19.1001 1.5 18.7643 1.5 18.3501V10.0701H2.67C3.57807 10.0189 4.35632 10.7122 4.41 11.6201V11.6801C4.46368 12.588 5.24194 13.2813 6.15 13.2301H12.15C13.0581 13.2813 13.8363 12.588 13.89 11.6801V6.3801C13.8207 5.48679 13.0551 4.80963 12.16 4.8501Z" fill="#7649B3"/>
</svg>
