<svg width="22" height="23" viewBox="0 0 22 23" fill="none" xmlns="http://www.w3.org/2000/svg">
<path d="M6.15817 21.5624H3.15819C2.62776 21.5624 2.11906 21.3517 1.74399 20.9766C1.36892 20.6015 1.1582 20.0928 1.1582 19.5624V12.5624C1.1582 12.032 1.36892 11.5233 1.74399 11.1482C2.11906 10.7732 2.62776 10.5624 3.15819 10.5624H6.15817M13.1581 8.56246V4.56248C13.1581 3.76684 12.8421 3.00378 12.2795 2.44117C11.7168 1.87857 10.9538 1.5625 10.1581 1.5625L6.15817 10.5624V21.5624H17.4381C17.9204 21.5678 18.3885 21.3988 18.756 21.0864C19.1235 20.774 19.3658 20.3393 19.4381 19.8624L20.8181 10.8624C20.8616 10.5758 20.8422 10.2831 20.7614 10.0047C20.6806 9.72627 20.5402 9.46874 20.3499 9.24997C20.1597 9.03119 19.9242 8.85639 19.6597 8.73767C19.3951 8.61896 19.108 8.55917 18.8181 8.56246H13.1581Z" stroke="#CC1111" stroke-opacity="0.960784" stroke-width="2" stroke-linecap="round" stroke-linejoin="round"/>
</svg>
