<svg width="20" height="21" viewBox="0 0 20 21" fill="none" xmlns="http://www.w3.org/2000/svg">
<path d="M13.491 1.76685H6.50768C3.47435 1.76685 1.66602 3.57518 1.66602 6.60851V13.5835C1.66602 16.6252 3.47435 18.4335 6.50768 18.4335H13.4827C16.516 18.4335 18.3243 16.6252 18.3243 13.5918V6.60851C18.3327 3.57518 16.5243 1.76685 13.491 1.76685ZM11.5993 13.9585H7.49935C7.15768 13.9585 6.87435 13.6752 6.87435 13.3335C6.87435 12.9918 7.15768 12.7085 7.49935 12.7085H11.5993C12.666 12.7085 13.541 11.8418 13.541 10.7668C13.541 9.69185 12.6743 8.82518 11.5993 8.82518H7.37435L7.59102 9.04185C7.83268 9.28351 7.83268 9.68351 7.59102 9.92518C7.46602 10.0502 7.30768 10.1085 7.14935 10.1085C6.99102 10.1085 6.83268 10.0502 6.70768 9.92518L5.39935 8.61685C5.15768 8.37518 5.15768 7.97518 5.39935 7.73351L6.70768 6.42518C6.94935 6.18351 7.34935 6.18351 7.59102 6.42518C7.83268 6.66685 7.83268 7.06685 7.59102 7.30851L7.30768 7.58351H11.5993C13.3577 7.58351 14.791 9.01685 14.791 10.7752C14.791 12.5335 13.3577 13.9585 11.5993 13.9585Z" fill="#7649B3"/>
</svg>
