<svg width="60" height="60" viewBox="0 0 60 60" fill="none" xmlns="http://www.w3.org/2000/svg">
<path d="M26.879 42.1504V47.2255C26.879 51.5255 22.8789 55.0004 17.9539 55.0004C13.0289 55.0004 9.00391 51.5255 9.00391 47.2255V42.1504C9.00391 46.4504 13.0039 49.5004 17.9539 49.5004C22.8789 49.5004 26.879 46.4254 26.879 42.1504Z" stroke="#292D32" stroke-width="2.5" stroke-linecap="round" stroke-linejoin="round"/>
<path d="M26.875 35.2753C26.875 36.5253 26.525 37.6753 25.925 38.6753C24.45 41.1003 21.425 42.6253 17.925 42.6253C14.425 42.6253 11.4 41.0753 9.92496 38.6753C9.32496 37.6753 8.9751 36.5253 8.9751 35.2753C8.9751 33.1253 9.97504 31.2003 11.575 29.8003C13.2 28.3753 15.425 27.5254 17.9 27.5254C20.375 27.5254 22.6 28.4003 24.225 29.8003C25.875 31.1753 26.875 33.1253 26.875 35.2753Z" stroke="#292D32" stroke-width="2.5" stroke-linecap="round" stroke-linejoin="round"/>
<path d="M26.879 35.275V42.15C26.879 46.45 22.8789 49.5 17.9539 49.5C13.0289 49.5 9.00391 46.425 9.00391 42.15V35.275C9.00391 30.975 13.0039 27.5 17.9539 27.5C20.4289 27.5 22.654 28.3749 24.279 29.7749C25.879 31.1749 26.879 33.125 26.879 35.275Z" stroke="#292D32" stroke-width="2.5" stroke-linecap="round" stroke-linejoin="round"/>
<path d="M55 27.4249V32.575C55 33.95 53.9 35.0749 52.5 35.1249H47.6C44.9 35.1249 42.4251 33.15 42.2001 30.45C42.0501 28.875 42.65 27.3999 43.7 26.3749C44.625 25.4249 45.9 24.875 47.3 24.875H52.5C53.9 24.925 55 26.0499 55 27.4249Z" stroke="#292D32" stroke-width="2.5" stroke-linecap="round" stroke-linejoin="round"/>
<path d="M5 26.25V21.25C5 14.45 9.10001 9.69999 15.475 8.89999C16.125 8.79999 16.8 8.75 17.5 8.75H40C40.65 8.75 41.275 8.77497 41.875 8.87497C48.325 9.62497 52.5 14.4 52.5 21.25V24.875H47.3C45.9 24.875 44.625 25.425 43.7 26.375C42.65 27.4 42.05 28.875 42.2 30.45C42.425 33.15 44.8999 35.125 47.5999 35.125H52.5V38.75C52.5 46.25 47.5 51.25 40 51.25H33.75" stroke="#292D32" stroke-width="2.5" stroke-linecap="round" stroke-linejoin="round"/>
</svg>
