<svg width="27" height="16" viewBox="0 0 27 16" fill="none" xmlns="http://www.w3.org/2000/svg">
<path fill-rule="evenodd" clip-rule="evenodd" d="M12.9002 5.62913C12.2615 5.70573 11.614 5.65477 10.9952 5.4792C10.9266 5.4598 10.8666 5.41918 10.8225 5.36307C10.7785 5.30697 10.7534 5.23829 10.7509 5.16702C10.7484 5.09576 10.7686 5.02556 10.8086 4.9665C10.8485 4.90744 10.9062 4.86257 10.9733 4.8384C11.8422 4.52616 12.667 4.10267 13.427 3.57848C13.6428 3.42966 13.8908 3.33425 14.1507 3.30017C14.4105 3.26609 14.6748 3.29428 14.9216 3.38243L17.3178 4.23835L19.1469 3.56932L22.2033 8.46203L20.613 9.92151C20.5364 9.79271 20.4377 9.67842 20.3214 9.58394L14.7157 5.03293C14.1559 5.34986 13.5388 5.55252 12.9002 5.62913ZM11.4029 12.0262C11.4659 12.2114 11.4868 12.4083 11.4641 12.6026C11.7126 12.5382 11.9745 12.5479 12.2176 12.6305C12.4607 12.7131 12.6743 12.865 12.8322 13.0674C12.99 13.2699 13.0852 13.5141 13.1061 13.77C13.1269 14.0259 13.0725 14.2822 12.9494 14.5076L14.1386 15.362C14.2966 15.4756 14.4933 15.5217 14.6853 15.4903C14.8773 15.4588 15.049 15.3524 15.1625 15.1944C15.2761 15.0364 15.3222 14.8397 15.2907 14.6477C15.2593 14.4557 15.1529 14.284 14.9948 14.1705L12.6763 12.5045C12.624 12.4665 12.589 12.4092 12.5787 12.3454C12.5685 12.2816 12.5839 12.2162 12.6217 12.1637C12.6594 12.1112 12.7164 12.0758 12.7801 12.0651C12.8439 12.0544 12.9093 12.0695 12.9621 12.1068L15.9918 14.2836C16.17 14.4079 16.3899 14.4571 16.6041 14.4205C16.8182 14.3839 17.0093 14.2644 17.136 14.088C17.2628 13.9116 17.3149 13.6923 17.2813 13.4777C17.2476 13.2631 17.1308 13.0703 16.9561 12.9412L13.7348 10.6265C13.6838 10.588 13.6498 10.5311 13.6402 10.4679C13.6306 10.4047 13.6461 10.3402 13.6834 10.2882C13.7207 10.2363 13.7768 10.2009 13.8398 10.1898C13.9028 10.1787 13.9676 10.1927 14.0204 10.2288L17.6707 12.8515C17.8487 12.9794 18.0703 13.0314 18.2866 12.996C18.503 12.9606 18.6964 12.8406 18.8243 12.6626C18.9522 12.4846 19.0042 12.263 18.9688 12.0466C18.9334 11.8303 18.8135 11.6369 18.6355 11.509L14.7684 8.73064C14.7161 8.69255 14.6811 8.63533 14.6709 8.57149C14.6606 8.50765 14.6761 8.44241 14.7138 8.3899C14.7515 8.33739 14.8085 8.30193 14.8722 8.29126C14.936 8.28058 15.0014 8.29555 15.0542 8.3329L19.0604 11.2112C19.2261 11.3298 19.4314 11.3792 19.6329 11.3491C19.8343 11.3189 20.0162 11.2115 20.1398 11.0496C20.2635 10.8877 20.3193 10.6841 20.2955 10.4818C20.2717 10.2795 20.17 10.0943 20.0121 9.96564L14.6567 5.61798C13.4754 6.19141 12.1244 6.31021 10.8612 5.95184C10.6928 5.90409 10.5439 5.8041 10.4359 5.6663C10.328 5.52851 10.2666 5.36006 10.2606 5.18513C10.2546 5.01021 10.3043 4.83784 10.4025 4.69295C10.5006 4.54806 10.6423 4.43813 10.807 4.37892C11.4853 4.13515 12.1359 3.82016 12.7478 3.43923C11.9736 3.33165 11.1852 3.39656 10.4391 3.62935C9.38781 3.72398 8.33197 3.75884 7.27671 3.73378L4.07031 9.01046L4.83926 9.57499L5.68197 8.87933C5.87355 8.7212 6.10596 8.62052 6.35235 8.58891C6.59874 8.55729 6.84904 8.59606 7.07434 8.7007C7.29963 8.80533 7.49072 8.97156 7.62552 9.18022C7.76032 9.38887 7.83333 9.63141 7.83611 9.8798L7.92408 9.80739C8.13761 9.63108 8.4013 9.52662 8.67763 9.50884C8.95396 9.49106 9.22887 9.56085 9.46323 9.70833C9.69759 9.85581 9.87948 10.0734 9.98301 10.3303C10.0865 10.5871 10.1064 10.87 10.0399 11.1388C10.2347 11.1215 10.4309 11.1478 10.6143 11.2158C10.7977 11.2838 10.9637 11.3918 11.1001 11.532C11.2365 11.6722 11.3399 11.841 11.4029 12.0262ZM6.07144 11.3359L7.04746 10.5304C7.21509 10.3904 7.32051 10.1897 7.34069 9.97228C7.36086 9.75482 7.29415 9.53825 7.15513 9.36982C7.01611 9.20139 6.81608 9.09483 6.59874 9.07341C6.3814 9.052 6.16442 9.1175 5.9952 9.25555L5.01941 10.061C4.85366 10.2015 4.74992 10.4017 4.73065 10.6181C4.71137 10.8346 4.77811 11.0499 4.91642 11.2175C5.05473 11.3851 5.25348 11.4915 5.46965 11.5137C5.68582 11.5358 5.90201 11.4719 6.07144 11.3359ZM9.58146 10.901C9.56128 11.1185 9.45586 11.3191 9.28823 11.4591L7.52432 12.9151C7.3551 13.0531 7.13812 13.1186 6.92078 13.0972C6.70344 13.0758 6.50341 12.9692 6.36439 12.8008C6.22537 12.6324 6.15865 12.4157 6.17883 12.1983C6.199 11.9808 6.30442 11.7802 6.47206 11.6402L8.23597 10.1843C8.40519 10.0462 8.62217 9.98071 8.83951 10.0021C9.05685 10.0235 9.25688 10.1301 9.3959 10.2985C9.53492 10.467 9.60163 10.6835 9.58146 10.901ZM9.30369 14.2243L10.6839 13.0851C10.8516 12.9451 10.957 12.7445 10.9771 12.527C10.9973 12.3096 10.9306 12.0929 10.7916 11.9245C10.6526 11.7561 10.4525 11.6495 10.2352 11.6281C10.0179 11.6067 9.80088 11.6722 9.63167 11.8102L8.25144 12.9495C8.08367 13.0894 7.97814 13.2901 7.9579 13.5076C7.93766 13.7251 8.00437 13.9419 8.14344 14.1104C8.28251 14.2788 8.48262 14.3854 8.70004 14.4068C8.91746 14.4281 9.13449 14.3625 9.30369 14.2243ZM10.3539 13.9919L11.2686 13.2369C11.4376 13.0975 11.6552 13.0308 11.8734 13.0517C12.0916 13.0726 12.2925 13.1793 12.432 13.3483C12.5716 13.5174 12.6382 13.7349 12.6174 13.9531C12.5965 14.1712 12.4898 14.3723 12.3208 14.5118L11.4062 15.2667C11.237 15.4054 11.0198 15.4714 10.8021 15.4502C10.5844 15.429 10.384 15.3223 10.2448 15.1536C10.1055 14.985 10.0388 14.768 10.0593 14.5502C10.0798 14.3325 10.1857 14.1317 10.3539 13.9919Z" fill="#FB8308"/>
<path d="M7.58231 2.28996L2.98643 9.85299L0.0410156 8.06303L4.63666 0.5L7.58231 2.28996Z" fill="white"/>
<path d="M21.9437 0.614136L26.2995 7.58696L23.3744 9.41423L19.0186 2.44141L21.9437 0.614136Z" fill="white"/>
</svg>
