<svg width="17" height="17" viewBox="0 0 17 17" fill="none" xmlns="http://www.w3.org/2000/svg">
<ellipse cx="9.12988" cy="8.375" rx="4.96875" ry="7.125" fill="white"/>
<path fill-rule="evenodd" clip-rule="evenodd" d="M8.48828 0.125C3.93428 0.125 0.238281 3.821 0.238281 8.375C0.238281 12.929 3.93428 16.625 8.48828 16.625C13.0423 16.625 16.7383 12.929 16.7383 8.375C16.7383 3.821 13.0423 0.125 8.48828 0.125ZM9.31328 14.15H7.66328V12.5H9.31328V14.15ZM11.021 7.75625L10.2785 8.51525C9.68453 9.1175 9.31328 9.6125 9.31328 10.85H7.66328V10.4375C7.66328 9.53 8.03453 8.705 8.62853 8.10275L9.65153 7.06325C9.95678 6.76625 10.1383 6.35375 10.1383 5.9C10.1383 4.9925 9.39578 4.25 8.48828 4.25C7.58078 4.25 6.83828 4.9925 6.83828 5.9H5.18828C5.18828 4.07675 6.66503 2.6 8.48828 2.6C10.3115 2.6 11.7883 4.07675 11.7883 5.9C11.7883 6.626 11.4913 7.286 11.021 7.75625Z" fill="#FB8308"/>
</svg>
