<svg width="40" height="60" viewBox="0 0 40 60" fill="none" xmlns="http://www.w3.org/2000/svg">
<path d="M7.94252 59L16.2393 16.2722L16.2393 16.2722L16.2404 16.2662C16.3756 15.5467 16.7054 15.0358 17.2287 14.664C17.8325 14.2357 18.4212 14.0485 19.0127 14.0485C19.719 14.0485 20.3537 14.2002 20.9327 14.4959C21.482 14.7764 21.9335 15.1986 22.2901 15.7929L22.2948 15.8007L22.2996 15.8084L25.1993 20.4478L25.1994 20.448C26.2274 22.092 27.7189 23.6152 29.635 25.0286C31.5857 26.4676 33.9009 27.5721 36.5634 28.3554L37.8457 28.7327V27.3961V22.7475H38.409V59H37.8428V30.2987V29.488L37.0496 29.3203C34.6298 28.8087 32.2808 27.8492 30.0004 26.4312L7.94252 59ZM7.94252 59H9.05872L14.1624 35.9773L14.5033 34.4395L15.7499 35.4022L24.4084 42.0889L24.7971 42.3891V42.8803V59H25.6968V40.1858L19.8046 34.5719L19.4062 34.1923L19.5137 33.6526L21.9784 21.2739L22.3908 19.2025L23.7317 20.8343C25.6399 23.1562 27.7302 25.0176 29.9999 26.4309L7.94252 59ZM8.92715 14.8282L5.94943 29.92L1.76359 29.1262L4.71685 13.8677L8.92715 14.8282ZM23.7971 8.81249C22.7127 8.81249 21.8106 8.43863 21.0362 7.66425C20.2615 6.88955 19.888 5.98827 19.888 4.90624C19.888 3.82422 20.2615 2.92294 21.0362 2.14824C21.8106 1.37386 22.7127 1 23.7971 1C24.8815 1 25.7822 1.37379 26.5544 2.14753C27.3277 2.92242 27.7018 3.8245 27.7034 4.90768C27.7049 5.98855 27.3319 6.88903 26.5558 7.66354C25.7786 8.43917 24.8769 8.81249 23.7971 8.81249Z" stroke="black" stroke-width="2"/>
</svg>
