<svg width="40" height="60" viewBox="0 0 40 60" fill="none" xmlns="http://www.w3.org/2000/svg">
<path d="M7.94228 59L16.239 16.2722L16.239 16.2722L16.2402 16.2662C16.3753 15.5467 16.7052 15.0358 17.2284 14.664C17.8322 14.2357 18.4209 14.0485 19.0124 14.0485C19.7187 14.0485 20.3534 14.2002 20.9325 14.4959C21.4818 14.7764 21.9333 15.1986 22.2899 15.7929L22.2945 15.8007L22.2994 15.8084L25.199 20.4478L25.1992 20.448C26.2271 22.092 27.7187 23.6152 29.6347 25.0286C31.5854 26.4676 33.9007 27.5721 36.5632 28.3554L37.8454 28.7327V27.3961V22.7475H38.4087V59H37.8425V30.2987V29.488L37.0493 29.3203C34.6293 28.8087 32.2802 27.8491 29.9996 26.4309C27.7299 25.0176 25.6396 23.1562 23.7315 20.8343L22.3906 19.2025L21.9781 21.2739L19.5134 33.6526L19.406 34.1923L19.8044 34.5719L25.6966 40.1858V59H24.7969V42.8803V42.3891L24.4081 42.0889L15.7497 35.4022L14.5031 34.4395L14.1622 35.9773L9.05848 59H7.94228ZM8.92691 14.8282L5.94918 29.92L1.76334 29.1262L4.7166 13.8677L8.92691 14.8282ZM23.7969 8.81249C22.7125 8.81249 21.8104 8.43863 21.036 7.66425C20.2613 6.88955 19.8877 5.98827 19.8877 4.90624C19.8877 3.82422 20.2613 2.92294 21.036 2.14824C21.8104 1.37386 22.7125 1 23.7969 1C24.8812 1 25.782 1.37379 26.5542 2.14753C27.3275 2.92242 27.7016 3.8245 27.7031 4.90768C27.7047 5.98855 27.3317 6.88903 26.5556 7.66354C25.7784 8.43917 24.8766 8.81249 23.7969 8.81249Z" stroke="white" stroke-width="2"/>
</svg>
