<svg width="22" height="22" viewBox="0 0 22 22" fill="none" xmlns="http://www.w3.org/2000/svg">
<path d="M11.0002 1.83325C8.5985 1.83325 6.646 3.78575 6.646 6.18742C6.646 8.54325 8.4885 10.4499 10.8902 10.5324C10.9635 10.5233 11.0368 10.5233 11.0918 10.5324C11.1102 10.5324 11.1193 10.5324 11.1377 10.5324C11.1468 10.5324 11.1468 10.5324 11.156 10.5324C13.5027 10.4499 15.3452 8.54325 15.3543 6.18742C15.3543 3.78575 13.4018 1.83325 11.0002 1.83325Z" fill="#FB8308"/>
<path d="M15.6569 12.9799C13.0994 11.2749 8.92854 11.2749 6.35271 12.9799C5.18854 13.7499 4.54688 14.8041 4.54688 15.9316C4.54688 17.0591 5.18854 18.1041 6.34354 18.8741C7.62688 19.7358 9.31354 20.1666 11.0002 20.1666C12.6869 20.1666 14.3735 19.7358 15.6569 18.8741C16.8119 18.0949 17.4535 17.0499 17.4535 15.9133C17.4444 14.7949 16.8119 13.7408 15.6569 12.9799ZM13.136 15.1799L10.826 17.4899C10.716 17.5999 10.5694 17.6549 10.4227 17.6549C10.276 17.6549 10.1294 17.5908 10.0194 17.4899L8.86438 16.3349C8.64438 16.1149 8.64438 15.7483 8.86438 15.5283C9.08437 15.3083 9.45104 15.3083 9.67104 15.5283L10.4227 16.2799L12.3294 14.3733C12.5494 14.1533 12.916 14.1533 13.136 14.3733C13.3652 14.5933 13.3652 14.9599 13.136 15.1799Z" fill="#FB8308"/>
</svg>
