<svg width="64" height="64" viewBox="0 0 64 64" fill="none" xmlns="http://www.w3.org/2000/svg">
<path d="M55.5135 2H8.48649C6.76616 2 5.1163 2.6834 3.89985 3.89985C2.6834 5.1163 2 6.76616 2 8.48649V55.5135C2 57.2338 2.6834 58.8837 3.89985 60.1002C5.1163 61.3166 6.76616 62 8.48649 62H55.5135C57.2338 62 58.8837 61.3166 60.1002 60.1002C61.3166 58.8837 62 57.2338 62 55.5135V8.48649C62 6.76616 61.3166 5.1163 60.1002 3.89985C58.8837 2.6834 57.2338 2 55.5135 2Z" stroke="white" stroke-width="2.5" stroke-linecap="round" stroke-linejoin="round"/>
<path d="M18.8844 22.4131V34.3612C18.8844 36.5601 17.1006 38.3439 14.9016 38.3439C14.3786 38.3439 13.8607 38.2409 13.3775 38.0407C12.8943 37.8406 12.4553 37.5472 12.0855 37.1774C11.7156 36.8076 11.4223 36.3685 11.2221 35.8853C11.022 35.4021 10.9189 34.8842 10.9189 34.3612V33.038" stroke="white" stroke-width="2.5" stroke-linecap="round" stroke-linejoin="round"/>
<path d="M30.7205 31.7727C30.7205 29.5732 28.9374 27.79 26.7378 27.79C24.5382 27.79 22.7551 29.5732 22.7551 31.7727V34.3608C22.7551 36.5604 24.5382 38.3436 26.7378 38.3436C28.9374 38.3436 30.7205 36.5604 30.7205 34.3608V31.7727Z" stroke="white" stroke-width="2.5" stroke-linecap="round" stroke-linejoin="round"/>
<path d="M46.2801 37.4536C47.0066 38.065 47.7915 38.3439 49.5558 38.3439H50.4477C51.9023 38.3439 53.0812 37.1634 53.0812 35.7055C53.0812 34.2477 51.9023 33.0671 50.4477 33.0671H48.6606C48.3146 33.0667 47.972 32.9981 47.6525 32.8653C47.3329 32.7325 47.0427 32.538 46.7983 32.293C46.5539 32.048 46.3601 31.7573 46.2281 31.4374C46.0961 31.1176 46.0283 30.7748 46.0288 30.4288C46.0288 28.9709 47.2077 27.7904 48.6606 27.7904H49.5542C51.3185 27.7904 52.1033 28.0693 52.8298 28.6807M34.499 31.7731C34.499 29.5725 36.2828 27.7904 38.4817 27.7904C40.6806 27.7904 42.4644 29.5742 42.4644 31.7731V34.3612C42.4644 36.5601 40.6806 38.3439 38.4817 38.3439C37.4254 38.3439 36.4124 37.9243 35.6655 37.1774C34.9186 36.4305 34.499 35.4175 34.499 34.3612M34.499 38.3439V22.4131" stroke="white" stroke-width="2.5" stroke-linecap="round" stroke-linejoin="round"/>
</svg>
