<svg width="64" height="64" viewBox="0 0 64 64" fill="none" xmlns="http://www.w3.org/2000/svg">
<path d="M10.7521 19.3183C18.6008 23.1876 26.4495 27.0779 35.3993 29.2963C44.3313 31.5179 54.3287 32.0855 56.033 31.3038C57.7373 30.5044 51.1146 28.3379 48.0432 23.9692C44.9702 19.6005 45.4486 13.0313 44.7221 8.66258C43.9762 4.27606 42.0221 2.09172 39.395 2.00415C36.7485 1.89713 33.4274 3.86903 31.4036 6.65662C29.3604 9.44421 28.6339 13.0669 25.402 15.321C22.17 17.5589 16.47 18.4313 10.7521 19.3183ZM4.09206 21.3065C8.14128 24.9454 12.2083 28.6038 21.4063 31.9606C30.6042 35.3174 44.9524 38.3888 52.7135 38.619C60.4552 38.8509 61.592 36.2223 62.0347 37.2877C62.4612 38.3531 62.1595 43.1126 58.0406 44.6207C53.9022 46.1126 45.9286 44.3726 40.7264 47.285C35.5047 50.1797 33.0188 57.7267 29.3977 60.6035C25.7749 63.4625 20.9814 61.6154 19.4181 57.9213C17.837 54.2467 19.47 48.7056 18.3527 44.551C17.2338 40.4126 13.3613 37.6428 9.80995 35.2639C6.24235 32.8833 2.9926 30.8952 2.10394 28.6395C1.19745 26.3676 2.63584 23.8459 4.09206 21.3065Z" stroke="black" stroke-width="2.5" stroke-linecap="round" stroke-linejoin="round"/>
<path d="M38.0638 49.2734C30.961 49.2734 24.3729 47.5275 18.2993 44.0356M46.0536 19.9738C39.3898 20.8624 32.7302 19.3116 26.0751 15.3213" stroke="black" stroke-width="2.5" stroke-linecap="round" stroke-linejoin="round"/>
</svg>
