<svg width="18" height="19" viewBox="0 0 18 19" fill="none" xmlns="http://www.w3.org/2000/svg">
<path d="M16.0593 8.09244H9.28186C8.76765 8.09295 8.27464 8.29745 7.91104 8.66106C7.54743 9.02466 7.34294 9.51767 7.34243 10.0319V13.7147L5.58619 14.9689C5.51785 15.0176 5.46216 15.082 5.42372 15.1566C5.38529 15.2313 5.36523 15.314 5.36523 15.398C5.36523 15.4819 5.38529 15.5646 5.42372 15.6393C5.46216 15.7139 5.51785 15.7783 5.58619 15.8271L7.36363 17.0967C7.43296 17.556 7.66458 17.9753 8.01649 18.2785C8.36841 18.5817 8.81734 18.7488 9.28186 18.7494H16.0599C16.5741 18.7489 17.0671 18.5444 17.4308 18.1808C17.7944 17.8172 17.9989 17.3242 17.9994 16.8099V10.0312C17.9989 9.51702 17.7944 9.02401 17.4308 8.66041C17.0671 8.2968 16.5741 8.09231 16.0599 8.0918L16.0593 8.09244ZM13.7804 15.5024C13.6564 15.5024 13.5599 15.4632 13.5323 15.3559L13.3176 14.6063H12.0242L11.8095 15.3578C11.7812 15.4651 11.6854 15.5044 11.5607 15.5044C11.3627 15.5044 11.0972 15.3803 11.0972 15.1996C11.0994 15.1805 11.1033 15.1616 11.1088 15.1431L12.2016 11.5901C12.2444 11.5052 12.3124 11.4357 12.3963 11.3912C12.4803 11.3466 12.576 11.3292 12.6703 11.3413C12.885 11.3413 13.0939 11.4204 13.1447 11.5901L14.2375 15.1431C14.2435 15.1614 14.2474 15.1804 14.2491 15.1996C14.2439 15.3719 13.9784 15.5024 13.7804 15.5024Z" fill="#FB8308"/>
<path d="M12.1768 14.0257H13.1571L12.6653 12.29L12.1768 14.0257Z" fill="#FB8308"/>
<path d="M6.28823 10.0319C6.28787 9.35082 6.52087 8.69016 6.94842 8.15998C6.36918 8.16057 5.80372 7.9833 5.32847 7.65214C4.85323 7.9833 4.28777 8.16057 3.70853 8.15998C3.63206 8.15642 3.55991 8.12355 3.50706 8.06818C3.45421 8.01281 3.42472 7.93921 3.42472 7.86267C3.42472 7.78612 3.45421 7.71252 3.50706 7.65716C3.55991 7.60179 3.63206 7.56891 3.70853 7.56536C4.11499 7.56488 4.51366 7.45377 4.86177 7.24394C4.44369 6.79449 4.18271 6.22154 4.11801 5.61113H3.70788C3.66768 5.613 3.62751 5.6067 3.58981 5.5926C3.55211 5.5785 3.51766 5.5569 3.48854 5.52911C3.45943 5.50132 3.43625 5.46791 3.42042 5.43091C3.40458 5.3939 3.39642 5.35407 3.39642 5.31382C3.39642 5.27357 3.40458 5.23374 3.42042 5.19673C3.43625 5.15973 3.45943 5.12632 3.48854 5.09853C3.51766 5.07073 3.55211 5.04914 3.58981 5.03504C3.62751 5.02094 3.66768 5.01464 3.70788 5.01651H5.03084V4.29396C5.03084 4.21511 5.06216 4.13948 5.11792 4.08373C5.17368 4.02797 5.2493 3.99665 5.32815 3.99665C5.407 3.99665 5.48263 4.02797 5.53838 4.08373C5.59414 4.13948 5.62546 4.21511 5.62546 4.29396V5.01651H6.94842C6.98863 5.01464 7.0288 5.02094 7.0665 5.03504C7.1042 5.04914 7.13865 5.07073 7.16776 5.09853C7.19688 5.12632 7.22005 5.15973 7.23589 5.19673C7.25172 5.23374 7.25988 5.27357 7.25988 5.31382C7.25988 5.35407 7.25172 5.3939 7.23589 5.43091C7.22005 5.46791 7.19688 5.50132 7.16776 5.52911C7.13865 5.5569 7.1042 5.5785 7.0665 5.5926C7.0288 5.6067 6.98863 5.613 6.94842 5.61113H6.53894C6.47478 6.22245 6.21376 6.79638 5.79517 7.24651C6.14322 7.45649 6.54193 7.56762 6.94842 7.56793C7.02354 7.5679 7.09587 7.59633 7.15086 7.6475C7.20585 7.69867 7.23941 7.76878 7.24477 7.8437C7.79764 7.32733 8.52606 7.04033 9.28256 7.0408H10.6569V5.7847L12.4132 4.53052C12.4814 4.48167 12.537 4.41727 12.5753 4.34264C12.6137 4.26802 12.6337 4.18533 12.6337 4.10143C12.6337 4.01753 12.6137 3.93484 12.5753 3.86021C12.537 3.78559 12.4814 3.72118 12.4132 3.67234L10.6351 2.40273C10.5658 1.94341 10.3341 1.52413 9.98223 1.22092C9.63031 0.91771 9.18139 0.750639 8.71687 0.75L1.93944 0.75C1.42522 0.750511 0.932217 0.955008 0.568612 1.31861C0.205008 1.68222 0.000510556 2.17522 0 2.68944L0 9.46751C0.000510556 9.98172 0.205008 10.4747 0.568612 10.8383C0.932217 11.2019 1.42522 11.4064 1.93944 11.4069H6.28823V10.0319Z" fill="#FB8308"/>
<path d="M5.3288 6.8771C5.66242 6.532 5.87668 6.08907 5.94014 5.61328H4.71875C4.78216 6.08882 4.99591 6.53164 5.3288 6.8771Z" fill="white"/>
</svg>
