<svg width="38" height="38" viewBox="0 0 38 38" fill="none" xmlns="http://www.w3.org/2000/svg">
<path d="M10.704 36.4767H5.4816C4.55822 36.4767 3.67266 36.1098 3.01974 35.4569C2.36681 34.804 2 33.9184 2 32.9951V20.8095C2 19.8861 2.36681 19.0005 3.01974 18.3476C3.67266 17.6947 4.55822 17.3279 5.4816 17.3279H10.704M22.8896 13.8462V6.88305C22.8896 5.49798 22.3394 4.16964 21.36 3.19025C20.3806 2.21086 19.0523 1.66064 17.6672 1.66064L10.704 17.3279V36.4767H30.3402C31.1799 36.4862 31.9947 36.1919 32.6344 35.648C33.2742 35.1042 33.6959 34.3475 33.8218 33.5173L36.2241 17.8501C36.2999 17.3511 36.2662 16.8416 36.1255 16.3569C35.9848 15.8722 35.7404 15.4239 35.4092 15.0431C35.078 14.6622 34.668 14.3579 34.2075 14.1513C33.7471 13.9446 33.2472 13.8405 32.7425 13.8462H22.8896Z" stroke="black" stroke-width="2.63566" stroke-linecap="round" stroke-linejoin="round"/>
</svg>
