<svg width="57" height="57" viewBox="0 0 57 57" fill="none" xmlns="http://www.w3.org/2000/svg">
<circle cx="28.9303" cy="28.3292" r="27.9625" fill="#4A0080"/>
<circle cx="28.9625" cy="27.9625" r="27.9625" fill="#CC1111" fill-opacity="0.960784"/>
<path d="M23 39.9998H19.4C18.7635 39.9998 18.153 39.747 17.7029 39.2969C17.2529 38.8468 17 38.2364 17 37.5999V29.1999C17 28.5634 17.2529 27.953 17.7029 27.5029C18.153 27.0528 18.7635 26.7999 19.4 26.7999H23M31.3999 24.3999V19.6C31.3999 18.6452 31.0206 17.7295 30.3455 17.0544C29.6704 16.3793 28.7547 16 27.7999 16L23 26.7999V39.9998H36.5359C37.1147 40.0064 37.6763 39.8035 38.1173 39.4287C38.5584 39.0538 38.8491 38.5321 38.9359 37.9599L40.5918 27.1599C40.6441 26.816 40.6209 26.4648 40.5239 26.1306C40.4269 25.7965 40.2584 25.4875 40.0301 25.225C39.8018 24.9624 39.5191 24.7527 39.2017 24.6102C38.8843 24.4678 38.5397 24.396 38.1919 24.3999H31.3999Z" stroke="white" stroke-width="2" stroke-linecap="round" stroke-linejoin="round"/>
</svg>
