<svg width="15" height="17" viewBox="0 0 15 17" fill="none" xmlns="http://www.w3.org/2000/svg">
<path d="M12.3137 12.3137C11.5923 13.0351 10.1389 14.4886 9.04085 15.5866C8.2598 16.3676 6.99496 16.3675 6.21391 15.5865C5.13566 14.5082 3.70908 13.0817 2.94113 12.3137C0.352958 9.72554 0.352958 5.52929 2.94113 2.94113C5.52929 0.352958 9.72554 0.352958 12.3137 2.94113C14.9019 5.52929 14.9019 9.72554 12.3137 12.3137Z" stroke="black" stroke-width="1.5" stroke-linecap="round" stroke-linejoin="round"/>
<path d="M10.1127 7.62742C10.1127 9 9 10.1127 7.62742 10.1127C6.25483 10.1127 5.14214 9 5.14214 7.62742C5.14214 6.25483 6.25483 5.14214 7.62742 5.14214C9 5.14214 10.1127 6.25483 10.1127 7.62742Z" stroke="black" stroke-width="1.5" stroke-linecap="round" stroke-linejoin="round"/>
</svg>
