<svg width="53" height="53" viewBox="0 0 53 53" fill="none" xmlns="http://www.w3.org/2000/svg">
<path d="M40.1427 31.7137L21.2861 12.8572M36.9364 28.5074L11.8573 50.8531C11.221 51.4172 10.3932 51.7168 9.54327 51.6905C8.69334 51.6642 7.88561 51.3141 7.28542 50.7117L2.28816 45.7144C1.6858 45.1143 1.33564 44.3065 1.30935 43.4566C1.28306 42.6067 1.58263 41.7788 2.14674 41.1426L24.4913 16.0624L36.9364 28.5074ZM47.2126 5.78611C45.2906 3.88847 42.8375 2.61935 40.1781 2.14678C37.5188 1.6742 34.7787 2.02046 32.3205 3.13971C29.8623 4.25896 27.802 6.09841 26.4124 8.41453C25.0228 10.7306 24.3695 13.4142 24.5388 16.1099L36.89 28.461C39.5858 28.6304 42.2695 27.9769 44.5857 26.5872C46.9019 25.1975 48.7413 23.137 49.8605 20.6787C50.9796 18.2203 51.3257 15.48 50.8529 12.8205C50.38 10.1611 49.1106 7.70804 47.2126 5.78611Z" stroke="black" stroke-width="2.5" stroke-linecap="round" stroke-linejoin="round"/>
</svg>
