<svg width="53" height="53" viewBox="0 0 53 53" fill="none" xmlns="http://www.w3.org/2000/svg">
<path d="M40.1429 31.7137L21.2864 12.8572M36.9366 28.5074L11.8575 50.8531C11.2213 51.4172 10.3934 51.7168 9.54351 51.6905C8.69359 51.6642 7.88585 51.3141 7.28567 50.7117L2.2884 45.7144C1.68604 45.1143 1.33588 44.3065 1.30959 43.4566C1.2833 42.6067 1.58287 41.7788 2.14698 41.1426L24.4916 16.0624L36.9366 28.5074ZM47.2129 5.78611C45.2908 3.88847 42.8377 2.61935 40.1784 2.14678C37.5191 1.6742 34.7789 2.02046 32.3207 3.13971C29.8626 4.25896 27.8023 6.09841 26.4127 8.41453C25.0231 10.7306 24.3697 13.4142 24.5391 16.1099L36.8902 28.461C39.5861 28.6304 42.2697 27.9769 44.5859 26.5872C46.9021 25.1975 48.7416 23.137 49.8607 20.6787C50.9799 18.2203 51.3259 15.48 50.8531 12.8205C50.3803 10.1611 49.1108 7.70804 47.2129 5.78611Z" stroke="white" stroke-width="2.5" stroke-linecap="round" stroke-linejoin="round"/>
</svg>
