<svg width="60" height="60" viewBox="0 0 60 60" fill="none" xmlns="http://www.w3.org/2000/svg">
<path d="M30 38.75C35.525 38.75 40 34.275 40 28.75V15C40 9.475 35.525 5 30 5C24.475 5 20 9.475 20 15V28.75C20 34.275 24.475 38.75 30 38.75Z" stroke="#292D32" stroke-width="2.5" stroke-linecap="round" stroke-linejoin="round"/>
<path d="M10.875 24.125V28.375C10.875 38.925 19.45 47.5 30 47.5C40.55 47.5 49.125 38.925 49.125 28.375V24.125" stroke="#292D32" stroke-width="2.5" stroke-linecap="round" stroke-linejoin="round"/>
<path d="M26.5249 16.0748C28.7749 15.2498 31.2249 15.2498 33.4749 16.0748" stroke="#292D32" stroke-width="2.5" stroke-linecap="round" stroke-linejoin="round"/>
<path d="M28 21.3748C29.325 21.0248 30.7 21.0248 32.025 21.3748" stroke="#292D32" stroke-width="2.5" stroke-linecap="round" stroke-linejoin="round"/>
<path d="M30 47.5V55" stroke="#292D32" stroke-width="2.5" stroke-linecap="round" stroke-linejoin="round"/>
</svg>
