<svg width="60" height="60" viewBox="0 0 60 60" fill="none" xmlns="http://www.w3.org/2000/svg">
<path d="M30 38.75C35.525 38.75 40 34.275 40 28.75V15C40 9.475 35.525 5 30 5C24.475 5 20 9.475 20 15V28.75C20 34.275 24.475 38.75 30 38.75Z" stroke="white" stroke-width="2.5" stroke-linecap="round" stroke-linejoin="round"/>
<path d="M10.8755 24.125V28.375C10.8755 38.925 19.4505 47.5 30.0005 47.5C40.5505 47.5 49.1255 38.925 49.1255 28.375V24.125" stroke="white" stroke-width="2.5" stroke-linecap="round" stroke-linejoin="round"/>
<path d="M26.5244 16.0748C28.7744 15.2498 31.2244 15.2498 33.4744 16.0748" stroke="white" stroke-width="2.5" stroke-linecap="round" stroke-linejoin="round"/>
<path d="M28 21.3738C29.325 21.0238 30.7 21.0238 32.025 21.3738" stroke="white" stroke-width="2.5" stroke-linecap="round" stroke-linejoin="round"/>
<path d="M30 47.5V55" stroke="white" stroke-width="2.5" stroke-linecap="round" stroke-linejoin="round"/>
</svg>
