<svg width="18" height="18" viewBox="0 0 18 18" fill="none" xmlns="http://www.w3.org/2000/svg">
<path d="M9.41846 8.56513C9.36155 8.5095 9.29477 8.46498 9.22154 8.43385C9.07248 8.36852 8.9029 8.36852 8.75385 8.43385C8.67805 8.46476 8.60854 8.50925 8.54872 8.56513L6.90769 10.2062C6.66773 10.4464 6.66773 10.8356 6.90769 11.0759C7.02198 11.1932 7.1788 11.2593 7.34256 11.2593C7.50633 11.2593 7.66315 11.1932 7.77744 11.0759L8.3518 10.5015V12.7579C8.3518 13.0978 8.62731 13.3733 8.96718 13.3733C9.30705 13.3733 9.58256 13.0978 9.58256 12.7579V10.4851L10.1651 11.0595C10.2794 11.1765 10.4365 11.2417 10.6 11.24C10.7633 11.2408 10.9201 11.1757 11.0349 11.0595C11.2748 10.8192 11.2748 10.43 11.0349 10.1897L9.41846 8.56513Z" fill="black"/>
<path fill-rule="evenodd" clip-rule="evenodd" d="M12.0769 1H5.92308C3.20414 1 1 3.20414 1 5.92308V12.0769C1 14.7959 3.20414 17 5.92308 17H12.0769C13.3826 17 14.6348 16.4813 15.5581 15.5581C16.4813 14.6348 17 13.3826 17 12.0769V5.92308C17 3.20414 14.7959 1 12.0769 1ZM7.35897 2.23077H10.641C10.6149 2.29606 10.601 2.36559 10.6 2.4359V4.07692C10.6 4.64337 10.1408 5.10256 9.57436 5.10256H8.45026C7.88381 5.10256 7.42462 4.64337 7.42462 4.07692V2.4359C7.41587 2.36399 7.39359 2.29439 7.35897 2.23077ZM12.0523 15.7692C14.0896 15.7647 15.7401 14.1143 15.7446 12.0769L15.7692 5.92308C15.7647 3.88574 14.1143 2.23528 12.0769 2.23077H11.7651C11.7875 2.29711 11.8013 2.36605 11.8062 2.4359V4.07692C11.8062 5.3231 10.7959 6.33333 9.54974 6.33333H8.45026C7.20408 6.33333 6.19385 5.3231 6.19385 4.07692V2.4359C6.19871 2.36605 6.2125 2.29711 6.23487 2.23077H5.92308C3.88574 2.23528 2.23528 3.88574 2.23077 5.92308V12.0769C2.23528 14.1143 3.88574 15.7647 5.92308 15.7692H12.0523Z" fill="black"/>
</svg>
