<svg width="60" height="46" viewBox="0 0 60 46" fill="none" xmlns="http://www.w3.org/2000/svg">
<path d="M12.7992 40.1923L12.7931 40.1861C10.5333 37.9266 8.74068 35.244 7.51767 32.2916C6.29466 29.3392 5.66519 26.1748 5.66519 22.9791C5.66519 19.7835 6.29466 16.6191 7.51767 13.6667C8.74066 10.7143 10.5332 8.03182 12.7929 5.77228C12.793 5.77223 12.793 5.77218 12.7931 5.77214M12.7992 40.1923L12.7931 5.77214M12.7992 40.1923L12.8054 40.1983C13.0283 40.4135 13.206 40.671 13.3283 40.9557C13.4506 41.2403 13.515 41.5465 13.5177 41.8563C13.5204 42.1661 13.4613 42.4734 13.344 42.7601C13.2267 43.0469 13.0534 43.3074 12.8344 43.5265C12.6153 43.7456 12.3548 43.9188 12.068 44.0361L12.4467 44.9617L12.068 44.0361C11.7812 44.1535 11.474 44.2125 11.1642 44.2098C10.8544 44.2071 10.5482 44.1427 10.2635 44.0205C9.97885 43.8982 9.72138 43.7204 9.50614 43.4976L9.5001 43.4913L9.49395 43.4852C6.80104 40.7923 4.6649 37.5954 3.20751 34.0769C1.75011 30.5585 1 26.7875 1 22.9791C1 19.1708 1.75011 15.3998 3.20751 11.8813C4.6649 8.3629 6.80104 5.16598 9.49395 2.4731C9.9315 2.03573 10.5248 1.79004 11.1435 1.79004C11.7621 1.79004 12.3554 2.03569 12.7929 2.47299C12.793 2.47302 12.793 2.47306 12.793 2.47309C12.7931 2.47313 12.7931 2.47316 12.7931 2.4732C13.2304 2.91074 13.4761 3.50402 13.4761 4.12263C13.4761 4.74127 13.2304 5.33459 12.7931 5.77214M12.7992 40.1923L12.7931 5.77214M22.2228 11.8996L22.2226 11.8993C22.0089 11.6854 21.7526 11.5152 21.4653 11.3961C21.182 11.2787 20.8784 11.2183 20.5717 11.2183C20.2651 11.2183 19.9615 11.2787 19.6782 11.3961C19.395 11.5136 19.1376 11.6857 18.9209 11.9026L18.9206 11.9029C15.9836 14.8408 14.3337 18.8249 14.3337 22.9791C14.3337 27.1333 15.9836 31.1175 18.9206 34.0554L18.9208 34.0555C19.1374 34.2723 19.3947 34.4443 19.6778 34.5617C19.9609 34.6791 20.2644 34.7396 20.5709 34.7397C20.8774 34.7398 21.1809 34.6795 21.4642 34.5624C21.7474 34.4452 22.0047 34.2733 22.2215 34.0567C22.4383 33.84 22.6104 33.5828 22.7277 33.2997C22.8451 33.0165 22.9056 32.713 22.9057 32.4065C22.9058 32.1 22.8456 31.7965 22.7284 31.5133L23.6524 31.1309L22.7284 31.5133C22.6112 31.2302 22.4395 30.973 22.223 30.7562C22.2229 30.7561 22.2228 30.756 22.2227 30.7559M22.2228 11.8996L22.9301 15.9059C22.0013 16.8345 21.2646 17.9369 20.7619 19.1503C20.2593 20.3636 20.0006 21.6641 20.0006 22.9775C20.0006 24.2908 20.2593 25.5913 20.7619 26.8047C21.2646 28.018 22.0013 29.1205 22.9301 30.0491L22.2227 30.7559M22.2228 11.8996C22.6603 12.3371 22.906 12.9305 22.906 13.5492C22.906 14.1679 22.6603 14.7613 22.2228 15.1989M22.2228 11.8996V15.1989M22.2227 30.7559C21.2012 29.7345 20.3909 28.5219 19.8381 27.1874C19.2851 25.8527 19.0006 24.4222 19.0006 22.9775C19.0006 21.5328 19.2851 20.1022 19.8381 18.7676C20.3909 17.4329 21.2013 16.2203 22.2228 15.1989M22.2227 30.7559L22.2228 15.1989M50.506 43.4852L50.4999 43.4913L50.4939 43.4976C50.2786 43.7204 50.0211 43.8982 49.7365 44.0205C49.4518 44.1427 49.1456 44.2071 48.8358 44.2098C48.526 44.2125 48.2188 44.1535 47.932 44.0361L47.5533 44.9617L47.932 44.0361C47.6452 43.9188 47.3847 43.7456 47.1656 43.5265C46.9466 43.3074 46.7733 43.0469 46.656 42.7601C46.5387 42.4734 46.4796 42.1661 46.4823 41.8563C46.485 41.5465 46.5494 41.2403 46.6717 40.9557L45.7529 40.561L46.6717 40.9557C46.794 40.671 46.9717 40.4135 47.1946 40.1983L47.2008 40.1923L47.2069 40.1861C49.4667 37.9266 51.2593 35.244 52.4823 32.2916C53.7053 29.3392 54.3348 26.1748 54.3348 22.9791C54.3348 19.7835 53.7053 16.6191 52.4823 13.6667C51.2593 10.7143 49.4668 8.03182 47.2071 5.77228C46.7696 5.33472 46.5239 4.74134 46.5239 4.12263C46.5239 3.50402 46.7696 2.91074 47.2069 2.4732C47.6444 2.03577 48.2378 1.79004 48.8565 1.79004C49.4752 1.79004 50.0685 2.03573 50.506 2.4731C53.199 5.16598 55.3351 8.3629 56.7925 11.8813C58.2499 15.3998 59 19.1708 59 22.9791C59 26.7875 58.2499 30.5585 56.7925 34.0769C55.3351 37.5954 53.199 40.7923 50.506 43.4852ZM37.7767 11.9034L37.7774 11.9026C37.9941 11.6857 38.2515 11.5136 38.5347 11.3961C38.818 11.2787 39.1216 11.2183 39.4282 11.2183C39.7349 11.2183 40.0385 11.2787 40.3218 11.3961C40.605 11.5136 40.8624 11.6857 41.0791 11.9026L41.0796 11.9031C42.5348 13.3579 43.6891 15.0852 44.4767 16.9862C45.2643 18.8872 45.6696 20.9248 45.6696 22.9825C45.6696 25.0402 45.2643 27.0777 44.4767 28.9787C43.6891 30.8798 42.5348 32.607 41.0796 34.0618L41.0795 34.0619C40.6415 34.4999 40.0476 34.7459 39.4282 34.7459C38.8089 34.7459 38.215 34.4999 37.777 34.0619C37.3391 33.624 37.0931 33.03 37.0931 32.4107C37.0931 31.7914 37.3391 31.1974 37.777 30.7595L37.7772 30.7594C39.8393 28.6966 40.9978 25.8993 40.9978 22.9825C40.9978 20.0657 39.8393 17.2683 37.7772 15.2055L37.7767 15.205C37.5597 14.9883 37.3876 14.731 37.2702 14.4477C37.1528 14.1645 37.0923 13.8608 37.0923 13.5542C37.0923 13.2476 37.1528 12.944 37.2702 12.6607C37.3876 12.3774 37.5597 12.1201 37.7767 11.9034ZM30 20.6458C30.6188 20.6458 31.2123 20.8917 31.6499 21.3292C32.0875 21.7668 32.3333 22.3603 32.3333 22.9791V23.0125C32.3333 23.6313 32.0875 24.2248 31.6499 24.6624C31.2123 25.0999 30.6188 25.3458 30 25.3458C29.3812 25.3458 28.7877 25.0999 28.3501 24.6624C27.9125 24.2248 27.6667 23.6313 27.6667 23.0125V22.9791C27.6667 22.3603 27.9125 21.7668 28.3501 21.3292C28.7877 20.8917 29.3812 20.6458 30 20.6458Z" fill="black" stroke="white" stroke-width="2"/>
</svg>
