<svg width="60" height="46" viewBox="0 0 60 46" fill="none" xmlns="http://www.w3.org/2000/svg">
<path fill-rule="evenodd" clip-rule="evenodd" d="M13.5001 1.76599C14.125 2.39107 14.4761 3.23876 14.4761 4.12263C14.4761 5.0065 14.125 5.85419 13.5001 6.47928C11.3332 8.64599 9.61429 11.2183 8.44154 14.0494C7.26879 16.8804 6.66519 19.9148 6.66519 22.9791C6.66519 26.0435 7.26879 29.0778 8.44154 31.9089C9.61429 34.7399 11.3332 37.3123 13.5001 39.479C13.8185 39.7865 14.0724 40.1543 14.2471 40.561C14.4218 40.9676 14.5138 41.405 14.5176 41.8476C14.5215 42.2902 14.4371 42.7292 14.2695 43.1388C14.1019 43.5485 13.8544 43.9206 13.5415 44.2336C13.2285 44.5466 12.8563 44.7941 12.4467 44.9617C12.037 45.1293 11.5981 45.2136 11.1555 45.2098C10.7129 45.2059 10.2755 45.114 9.86883 44.9393C9.46215 44.7646 9.09434 44.5106 8.78685 44.1923C6.00108 41.4065 3.79128 38.0994 2.28363 34.4596C0.775979 30.8199 0 26.9188 0 22.9791C0 19.0395 0.775979 15.1384 2.28363 11.4986C3.79128 7.85889 6.00108 4.55172 8.78685 1.76599C9.41194 1.14109 10.2596 0.790039 11.1435 0.790039C12.0274 0.790039 12.8751 1.14109 13.5001 1.76599ZM46.4999 1.76599C47.1249 1.14109 47.9726 0.790039 48.8565 0.790039C49.7404 0.790039 50.5881 1.14109 51.2132 1.76599C53.9989 4.55172 56.2087 7.85889 57.7164 11.4986C59.224 15.1384 60 19.0395 60 22.9791C60 26.9188 59.224 30.8199 57.7164 34.4596C56.2087 38.0994 53.9989 41.4065 51.2132 44.1923C50.9057 44.5106 50.5378 44.7646 50.1312 44.9393C49.7245 45.114 49.2871 45.2059 48.8445 45.2098C48.4019 45.2136 47.963 45.1293 47.5533 44.9617C47.1437 44.7941 46.7715 44.5466 46.4585 44.2336C46.1456 43.9206 45.8981 43.5485 45.7305 43.1388C45.5629 42.7292 45.4785 42.2902 45.4824 41.8476C45.4862 41.405 45.5782 40.9676 45.7529 40.561C45.9276 40.1543 46.1815 39.7865 46.4999 39.479C48.6668 37.3123 50.3857 34.7399 51.5585 31.9089C52.7312 29.0778 53.3348 26.0435 53.3348 22.9791C53.3348 19.9148 52.7312 16.8804 51.5585 14.0494C50.3857 11.2183 48.6668 8.64599 46.4999 6.47928C45.875 5.85419 45.5239 5.0065 45.5239 4.12263C45.5239 3.23876 45.875 2.39107 46.4999 1.76599ZM22.9301 11.1926C23.555 11.8177 23.906 12.6653 23.906 13.5492C23.906 14.4331 23.555 15.2808 22.9301 15.9059C22.0013 16.8345 21.2646 17.9369 20.7619 19.1503C20.2593 20.3636 20.0006 21.6641 20.0006 22.9775C20.0006 24.2908 20.2593 25.5913 20.7619 26.8047C21.2646 28.018 22.0013 29.1205 22.9301 30.0491C23.2395 30.3588 23.485 30.7264 23.6524 31.1309C23.8198 31.5355 23.9059 31.9691 23.9057 32.4069C23.9056 32.8447 23.8192 33.2782 23.6515 33.6827C23.4838 34.0871 23.2381 34.4545 22.9284 34.764C22.6187 35.0735 22.2511 35.319 21.8465 35.4864C21.442 35.6538 21.0084 35.7399 20.5706 35.7397C20.1327 35.7395 19.6992 35.6532 19.2948 35.4855C18.8904 35.3178 18.5229 35.0721 18.2134 34.7624C15.0889 31.6369 13.3337 27.3985 13.3337 22.9791C13.3337 18.5598 15.0889 14.3213 18.2134 11.1959C18.523 10.886 18.8906 10.6401 19.2953 10.4724C19.6999 10.3046 20.1337 10.2183 20.5717 10.2183C21.0098 10.2183 21.4435 10.3046 21.8482 10.4724C22.2529 10.6401 22.6205 10.8827 22.9301 11.1926ZM37.0699 11.1959C37.3795 10.886 37.7471 10.6401 38.1518 10.4724C38.5565 10.3046 38.9902 10.2183 39.4283 10.2183C39.8663 10.2183 40.3001 10.3046 40.7047 10.4724C41.1094 10.6401 41.477 10.886 41.7866 11.1959C43.3347 12.7436 44.5627 14.5811 45.4005 16.6035C46.2384 18.6258 46.6696 20.7934 46.6696 22.9825C46.6696 25.1715 46.2384 27.3391 45.4005 29.3615C44.5627 31.3838 43.3347 33.2213 41.7866 34.769C41.1611 35.3945 40.3128 35.7459 39.4283 35.7459C38.5437 35.7459 37.6954 35.3945 37.0699 34.769C36.4445 34.1436 36.0931 33.2953 36.0931 32.4107C36.0931 31.5262 36.4445 30.6779 37.0699 30.0524C38.9446 28.1771 39.9978 25.6341 39.9978 22.9825C39.9978 20.3308 38.9446 17.7878 37.0699 15.9125C36.76 15.603 36.5142 15.2353 36.3464 14.8307C36.1787 14.426 36.0923 13.9923 36.0923 13.5542C36.0923 13.1162 36.1787 12.6824 36.3464 12.2778C36.5142 11.8731 36.76 11.5055 37.0699 11.1959ZM30 19.6458C30.884 19.6458 31.7319 19.997 32.357 20.6221C32.9821 21.2472 33.3333 22.0951 33.3333 22.9791V23.0125C33.3333 23.8965 32.9821 24.7444 32.357 25.3695C31.7319 25.9946 30.884 26.3458 30 26.3458C29.116 26.3458 28.2681 25.9946 27.643 25.3695C27.0179 24.7444 26.6667 23.8965 26.6667 23.0125V22.9791C26.6667 22.0951 27.0179 21.2472 27.643 20.6221C28.2681 19.997 29.116 19.6458 30 19.6458Z" fill="white"/>
<path d="M50.4999 43.4913L50.506 43.4852C53.199 40.7923 55.3351 37.5954 56.7925 34.0769C58.2499 30.5585 59 26.7875 59 22.9791C59 19.1708 58.2499 15.3998 56.7925 11.8813C55.3351 8.3629 53.199 5.16598 50.506 2.4731C50.0685 2.03573 49.4752 1.79004 48.8565 1.79004C48.2379 1.79004 47.6446 2.03569 47.2071 2.47299C47.207 2.47306 47.2069 2.47313 47.2069 2.4732M50.4999 43.4913L46.4999 1.76599L47.2069 2.4732M50.4999 43.4913L50.4939 43.4976M50.4999 43.4913L50.4939 43.4976M47.2069 2.4732C46.7696 2.91074 46.5239 3.50402 46.5239 4.12263C46.5239 4.74127 46.7696 5.33459 47.2069 5.77214M47.2069 2.4732L47.2069 5.77214M47.2069 5.77214C47.207 5.77218 47.207 5.77223 47.2071 5.77228L46.5005 6.47868L47.2069 5.77214ZM47.2069 5.77214C49.4667 8.03171 51.2593 10.7143 52.4823 13.6667M47.2069 5.77214L52.4823 13.6667M50.4939 43.4976C50.2786 43.7204 50.0212 43.8982 49.7365 44.0205C49.4518 44.1428 49.1456 44.2071 48.8358 44.2098C48.526 44.2125 48.2188 44.1535 47.932 44.0361C47.6452 43.9188 47.3847 43.7456 47.1656 43.5265C46.9466 43.3074 46.7733 43.0469 46.656 42.7601C46.5387 42.4734 46.4796 42.1661 46.4823 41.8563C46.485 41.5465 46.5494 41.2403 46.6717 40.9557C46.794 40.671 46.9717 40.4135 47.1946 40.1983L47.2008 40.1923M50.4939 43.4976L47.2008 40.1923M47.2008 40.1923L47.2069 40.1861M47.2008 40.1923L47.2069 40.1861M47.2069 40.1861C49.4667 37.9266 51.2593 35.244 52.4823 32.2916M47.2069 40.1861L52.4823 32.2916M22.2228 11.8996L22.2226 11.8993C22.0089 11.6854 21.7526 11.5152 21.4653 11.3961C21.182 11.2787 20.8784 11.2183 20.5717 11.2183C20.2651 11.2183 19.9615 11.2787 19.6782 11.3961C19.395 11.5136 19.1376 11.6857 18.9209 11.9026L18.9206 11.9029C15.9836 14.8408 14.3337 18.8249 14.3337 22.9791C14.3337 27.1333 15.9836 31.1175 18.9206 34.0554L18.9208 34.0555C19.1374 34.2723 19.3947 34.4443 19.6778 34.5617C19.9609 34.6791 20.2644 34.7396 20.5709 34.7397C20.8774 34.7398 21.181 34.6795 21.4642 34.5624C21.7474 34.4452 22.0047 34.2733 22.2215 34.0567C22.4383 33.84 22.6104 33.5828 22.7277 33.2997C22.8451 33.0165 22.9056 32.713 22.9057 32.4065C22.9058 32.1 22.8456 31.7965 22.7284 31.5133C22.6112 31.2302 22.4395 30.973 22.223 30.7562C22.2229 30.7561 22.2228 30.756 22.2227 30.7559M22.2228 11.8996L22.2227 30.7559M22.2228 11.8996C22.6603 12.3371 22.906 12.9305 22.906 13.5492C22.906 14.1678 22.6603 14.7612 22.223 15.1987M22.2228 11.8996L22.223 15.1987M22.2227 30.7559C21.2012 29.7345 20.3909 28.5219 19.8381 27.1874C19.2851 25.8527 19.0006 24.4222 19.0006 22.9775C19.0006 21.5328 19.2851 20.1022 19.8381 18.7676C20.391 17.4329 21.2014 16.2202 22.223 15.1987M22.2227 30.7559L22.223 15.1987M52.4823 32.2916C53.7053 29.3392 54.3348 26.1748 54.3348 22.9791M52.4823 32.2916L54.3348 22.9791M54.3348 22.9791C54.3348 19.7835 53.7053 16.6191 52.4823 13.6667M54.3348 22.9791L52.4823 13.6667M12.7931 40.1861L12.7992 40.1923L12.8054 40.1983C13.0283 40.4135 13.206 40.671 13.3283 40.9557C13.4506 41.2403 13.515 41.5465 13.5177 41.8563C13.5204 42.1661 13.4613 42.4734 13.344 42.7601C13.2267 43.0469 13.0534 43.3074 12.8344 43.5265C12.6153 43.7456 12.3548 43.9188 12.068 44.0361C11.7812 44.1535 11.474 44.2125 11.1642 44.2098C10.8544 44.2071 10.5482 44.1428 10.2635 44.0205C9.97885 43.8982 9.72138 43.7204 9.50614 43.4976L9.5001 43.4913L9.49395 43.4852C6.80104 40.7923 4.6649 37.5954 3.20751 34.0769C1.75011 30.5585 1 26.7875 1 22.9791C1 19.1708 1.75011 15.3998 3.20751 11.8813C4.6649 8.3629 6.80104 5.16598 9.49395 2.4731C9.9315 2.03573 10.5248 1.79004 11.1435 1.79004C11.7621 1.79004 12.3554 2.03569 12.7929 2.47299C12.793 2.47302 12.793 2.47306 12.793 2.47309C12.7931 2.47313 12.7931 2.47316 12.7931 2.4732C13.2304 2.91074 13.4761 3.50402 13.4761 4.12263C13.4761 4.74134 13.2304 5.33472 12.7929 5.77228C10.5332 8.03182 8.74066 10.7143 7.51767 13.6667C6.29466 16.6191 5.66519 19.7835 5.66519 22.9791C5.66519 26.1748 6.29466 29.3392 7.51767 32.2916C8.74068 35.244 10.5333 37.9266 12.7931 40.1861ZM37.7767 11.9034L37.7774 11.9026C37.9941 11.6857 38.2515 11.5136 38.5347 11.3961C38.818 11.2787 39.1216 11.2183 39.4282 11.2183C39.7349 11.2183 40.0385 11.2787 40.3218 11.3961C40.605 11.5136 40.8624 11.6857 41.0791 11.9026L41.0796 11.9031C42.5348 13.3579 43.6891 15.0852 44.4767 16.9862C45.2643 18.8872 45.6696 20.9248 45.6696 22.9825C45.6696 25.0402 45.2643 27.0777 44.4767 28.9787C43.6891 30.8798 42.5348 32.607 41.0796 34.0618L41.0795 34.0619C40.6415 34.4999 40.0476 34.7459 39.4282 34.7459C38.8089 34.7459 38.215 34.4999 37.777 34.0619C37.3391 33.624 37.0931 33.03 37.0931 32.4107C37.0931 31.7914 37.3391 31.1974 37.777 30.7595L37.7772 30.7594C39.8393 28.6966 40.9978 25.8993 40.9978 22.9825C40.9978 20.0657 39.8393 17.2683 37.7772 15.2055L37.7767 15.205C37.5597 14.9883 37.3876 14.731 37.2702 14.4477C37.1528 14.1645 37.0923 13.8608 37.0923 13.5542C37.0923 13.2476 37.1528 12.944 37.2702 12.6607C37.3876 12.3774 37.5597 12.1201 37.7767 11.9034ZM30 20.6458C30.6188 20.6458 31.2123 20.8917 31.6499 21.3292C32.0875 21.7668 32.3333 22.3603 32.3333 22.9791V23.0125C32.3333 23.6313 32.0875 24.2248 31.6499 24.6624C31.2123 25.0999 30.6188 25.3458 30 25.3458C29.3812 25.3458 28.7877 25.0999 28.3501 24.6624C27.9125 24.2248 27.6667 23.6313 27.6667 23.0125V22.9791C27.6667 22.3603 27.9125 21.7668 28.3501 21.3292C28.7877 20.8917 29.3812 20.6458 30 20.6458Z" stroke="#CC1111" stroke-opacity="0.960784" stroke-width="2"/>
</svg>
