<svg width="503" height="12" viewBox="0 0 503 12" fill="none" xmlns="http://www.w3.org/2000/svg">
<line y1="5.5" x2="226" y2="5.5" stroke="#D9DCE0"/>
<line x1="277" y1="5.5" x2="503" y2="5.5" stroke="#D9DCE0"/>
<path d="M247.895 11.105C246.925 11.105 246.04 10.88 245.24 10.43C244.44 9.97 243.805 9.335 243.335 8.525C242.875 7.705 242.645 6.785 242.645 5.765C242.645 4.745 242.875 3.83 243.335 3.02C243.805 2.2 244.44 1.565 245.24 1.115C246.04 0.654999 246.925 0.424999 247.895 0.424999C248.875 0.424999 249.765 0.654999 250.565 1.115C251.365 1.565 251.995 2.195 252.455 3.005C252.915 3.815 253.145 4.735 253.145 5.765C253.145 6.795 252.915 7.715 252.455 8.525C251.995 9.335 251.365 9.97 250.565 10.43C249.765 10.88 248.875 11.105 247.895 11.105ZM247.895 9.92C248.625 9.92 249.28 9.75 249.86 9.41C250.45 9.07 250.91 8.585 251.24 7.955C251.58 7.325 251.75 6.595 251.75 5.765C251.75 4.925 251.58 4.195 251.24 3.575C250.91 2.945 250.455 2.46 249.875 2.12C249.295 1.78 248.635 1.61 247.895 1.61C247.155 1.61 246.495 1.78 245.915 2.12C245.335 2.46 244.875 2.945 244.535 3.575C244.205 4.195 244.04 4.925 244.04 5.765C244.04 6.595 244.205 7.325 244.535 7.955C244.875 8.585 245.335 9.07 245.915 9.41C246.505 9.75 247.165 9.92 247.895 9.92ZM260.452 11L257.962 6.725H256.312V11H254.947V0.545H258.322C259.112 0.545 259.777 0.68 260.317 0.95C260.867 1.22 261.277 1.585 261.547 2.045C261.817 2.505 261.952 3.03 261.952 3.62C261.952 4.34 261.742 4.975 261.322 5.525C260.912 6.075 260.292 6.44 259.462 6.62L262.087 11H260.452ZM256.312 5.63H258.322C259.062 5.63 259.617 5.45 259.987 5.09C260.357 4.72 260.542 4.23 260.542 3.62C260.542 3 260.357 2.52 259.987 2.18C259.627 1.84 259.072 1.67 258.322 1.67H256.312V5.63Z" fill="#4D4D4D"/>
</svg>
