<svg width="16" height="16" viewBox="0 0 16 16" fill="none" xmlns="http://www.w3.org/2000/svg">
<rect x="2.28809" y="2.40625" width="11.3438" height="9.28125" fill="white"/>
<path d="M15.3134 2.54914V10.7718C15.3134 11.8867 14.4075 12.7926 13.2926 12.7926H11.2485V15.1154C11.2485 15.487 10.8072 15.6728 10.5517 15.3941L7.95019 12.8158C7.95019 12.8158 7.95019 12.7926 7.92697 12.7926H2.39875C1.28381 12.7926 0.37793 11.8867 0.37793 10.7718V2.54914C0.37793 1.4342 1.28381 0.52832 2.39875 0.52832H13.3158C14.4075 0.52832 15.3134 1.4342 15.3134 2.54914ZM11.3879 10.493C11.3879 8.47223 10.273 6.7766 8.73994 6.31204C9.32064 5.98685 9.71551 5.40616 9.71551 4.6861C9.71551 3.66407 8.87931 2.82787 7.85728 2.82787C6.83526 2.82787 5.99906 3.66407 5.99906 4.6861C5.99906 5.38293 6.39393 5.98685 6.97463 6.31204C5.44159 6.79983 4.32666 8.47223 4.32666 10.493H11.3879Z" fill="#FB8308"/>
</svg>
