<svg width="64" height="64" viewBox="0 0 64 64" fill="none" xmlns="http://www.w3.org/2000/svg">
<path d="M8.48649 2C6.76616 2 5.1163 2.6834 3.89985 3.89985C2.6834 5.1163 2 6.76616 2 8.48649V55.5135C2 57.2338 2.6834 58.8837 3.89985 60.1002C5.1163 61.3166 6.76616 62 8.48649 62H55.5135C57.2338 62 58.8837 61.3166 60.1002 60.1002C61.3166 58.8837 62 57.2338 62 55.5135V8.48649C62 6.76616 61.3166 5.1163 60.1002 3.89985C58.8837 2.6834 57.2338 2 55.5135 2H8.48649Z" stroke="black" stroke-width="2.5" stroke-linecap="round" stroke-linejoin="round"/>
<path d="M11.9487 29.3246V10.1084H18.2406C21.7952 10.1084 24.6785 12.9981 24.6785 16.5625C24.6785 20.1268 21.7952 23.0165 18.2406 23.0165H11.9487M11.9487 53.8922V34.6776L24.6785 53.8922V34.6776" stroke="black" stroke-width="2.5" stroke-linecap="round" stroke-linejoin="round"/>
<path d="M31.9999 33.2244C32.6716 33.2244 33.2161 32.6799 33.2161 32.0082C33.2161 31.3365 32.6716 30.792 31.9999 30.792C31.3282 30.792 30.7837 31.3365 30.7837 32.0082C30.7837 32.6799 31.3282 33.2244 31.9999 33.2244Z" fill="black"/>
<path d="M32 37.5884V53.8922M32 10.1084V26.4122M52.0514 22.8803V22.9581C52.0514 24.6462 51.3808 26.2651 50.1871 27.4588C48.9935 28.6524 47.3746 29.323 45.6865 29.323C44.8506 29.323 44.023 29.1584 43.2508 28.8385C42.4785 28.5186 41.7769 28.0498 41.1858 27.4588C40.5948 26.8677 40.126 26.1661 39.8061 25.3939C39.4863 24.6216 39.3216 23.794 39.3216 22.9581V16.4733C39.3216 14.7852 39.9922 13.1663 41.1858 11.9726C42.3795 10.779 43.9984 10.1084 45.6865 10.1084C47.3746 10.1084 48.9935 10.779 50.1871 11.9726C51.3808 13.1663 52.0514 14.7852 52.0514 16.4733V16.5527M52.0514 47.4479V47.5273C52.0514 48.3632 51.8867 49.1908 51.5669 49.963C51.247 50.7353 50.7782 51.4369 50.1871 52.028C49.5961 52.619 48.8944 53.0878 48.1222 53.4077C47.35 53.7275 46.5223 53.8922 45.6865 53.8922C43.9984 53.8922 42.3795 53.2216 41.1858 52.028C39.9922 50.8343 39.3216 49.2154 39.3216 47.5273V41.0408C39.3216 39.3528 39.9922 37.7338 41.1858 36.5402C42.3795 35.3465 43.9984 34.676 45.6865 34.676C46.5225 34.676 47.3503 34.8407 48.1226 35.1606C48.8949 35.4806 49.5966 35.9496 50.1877 36.5408C50.7788 37.132 51.2475 37.8338 51.5673 38.6062C51.8871 39.3786 52.0516 40.2065 52.0514 41.0425V41.1203" stroke="black" stroke-width="2.5" stroke-linecap="round" stroke-linejoin="round"/>
</svg>
