<svg width="24" height="24" viewBox="0 0 24 24" fill="none" xmlns="http://www.w3.org/2000/svg">
<path d="M15.7996 3.11877C16.5313 3.11873 17.2354 3.39831 17.7678 3.9003C18.3002 4.40229 18.6207 5.08875 18.6636 5.81922L18.6684 5.98752V15.55H19.3855C20.0042 15.55 20.5139 16.0205 20.5751 16.6229L20.5809 16.7453V18.4188C20.5809 19.1505 20.3013 19.8546 19.7993 20.387C19.2973 20.9194 18.6109 21.2398 17.8804 21.2827L17.7121 21.2875H8.14961C7.41788 21.2876 6.71379 21.008 6.1814 20.506C5.64901 20.004 5.32857 19.3175 5.28564 18.5871L5.28086 18.4188V8.85627H3.60742C3.3115 8.85641 3.02605 8.74677 2.80631 8.54858C2.58656 8.35038 2.44815 8.07773 2.41785 7.78336L2.41211 7.66096V5.98752C2.41207 5.25579 2.69165 4.5517 3.19364 4.01931C3.69563 3.48692 4.38209 3.16648 5.11256 3.12356L5.28086 3.11877H15.7996ZM18.6684 17.4625H10.0621V18.4188C10.0621 18.7535 10.0047 19.0757 9.89955 19.375H17.7121C17.9657 19.375 18.2089 19.2743 18.3883 19.0949C18.5676 18.9156 18.6684 18.6724 18.6684 18.4188V17.4625ZM11.9746 11.725H10.0621C9.81838 11.7253 9.58395 11.8186 9.40673 11.9859C9.2295 12.1532 9.12285 12.3819 9.10856 12.6252C9.09428 12.8685 9.17344 13.1081 9.32987 13.295C9.48631 13.4819 9.70821 13.602 9.95023 13.6308L10.0621 13.6375H11.9746C12.2183 13.6373 12.4528 13.5439 12.63 13.3766C12.8072 13.2093 12.9139 12.9806 12.9282 12.7373C12.9424 12.494 12.8633 12.2544 12.7068 12.0675C12.5504 11.8806 12.3285 11.7605 12.0865 11.7317L11.9746 11.725ZM13.8871 7.90002H10.0621C9.8085 7.90002 9.56527 8.00077 9.38594 8.1801C9.20661 8.35944 9.10586 8.60266 9.10586 8.85627C9.10586 9.10989 9.20661 9.35311 9.38594 9.53244C9.56527 9.71178 9.8085 9.81252 10.0621 9.81252H13.8871C14.1407 9.81252 14.3839 9.71178 14.5633 9.53244C14.7426 9.35311 14.8434 9.10989 14.8434 8.85627C14.8434 8.60266 14.7426 8.35944 14.5633 8.1801C14.3839 8.00077 14.1407 7.90002 13.8871 7.90002ZM5.28086 5.03127C5.02725 5.03127 4.78402 5.13202 4.60469 5.31135C4.42536 5.49069 4.32461 5.73391 4.32461 5.98752V6.94377H5.28086V5.03127Z" fill="#7649B3"/>
</svg>
