<svg width="18" height="18" viewBox="0 0 18 18" fill="none" xmlns="http://www.w3.org/2000/svg">
<path d="M16.5 6.75001V11.25C16.5 13.125 16.125 14.4375 15.285 15.285L10.5 10.5L16.2975 4.70251C16.4325 5.29501 16.5 5.97001 16.5 6.75001Z" stroke="#292D32" stroke-width="1.5" stroke-linecap="round" stroke-linejoin="round"/>
<path d="M16.2975 4.7025L4.70249 16.2975C2.44499 15.78 1.5 14.22 1.5 11.25V6.75C1.5 3 3 1.5 6.75 1.5H11.25C14.22 1.5 15.78 2.445 16.2975 4.7025Z" stroke="#292D32" stroke-width="1.5" stroke-linecap="round" stroke-linejoin="round"/>
<path d="M15.2849 15.285C14.4374 16.125 13.1249 16.5 11.2499 16.5H6.7499C5.9699 16.5 5.29489 16.4325 4.70239 16.2975L10.4999 10.5L15.2849 15.285Z" stroke="#292D32" stroke-width="1.5" stroke-linecap="round" stroke-linejoin="round"/>
<path d="M4.67995 5.98504C5.18995 3.78754 8.48996 3.78754 8.99996 5.98504C9.29246 7.27504 8.48245 8.37004 7.76995 9.04504C7.25245 9.54004 6.43496 9.54004 5.90996 9.04504C5.19746 8.37004 4.37995 7.27504 4.67995 5.98504Z" stroke="#292D32" stroke-width="1.5"/>
<path d="M6.82108 6.52502H6.82781" stroke="#292D32" stroke-width="2" stroke-linecap="round" stroke-linejoin="round"/>
</svg>
