<svg width="20" height="21" viewBox="0 0 20 21" fill="none" xmlns="http://www.w3.org/2000/svg">
<path d="M14.334 10.3833C12.1257 10.3833 10.334 12.175 10.334 14.3833C10.334 15.1333 10.5423 15.8416 10.9173 16.4416C11.609 17.6 12.8757 18.3833 14.334 18.3833C15.7923 18.3833 17.0673 17.6 17.7507 16.4416C18.1173 15.8416 18.334 15.1333 18.334 14.3833C18.334 12.175 16.5423 10.3833 14.334 10.3833ZM16.3173 13.8583L14.184 15.825C14.0673 15.9333 13.909 15.9916 13.759 15.9916C13.6007 15.9916 13.4423 15.9333 13.3173 15.8083L12.334 14.825C12.0923 14.5833 12.0923 14.1833 12.334 13.9416C12.5757 13.7 12.9757 13.7 13.2173 13.9416L13.7757 14.5L15.4673 12.9333C15.7173 12.7 16.1173 12.7166 16.3507 12.9666C16.584 13.225 16.5673 13.625 16.3173 13.8583Z" fill="#7649B3"/>
<path d="M18.3327 7.32508C18.3327 8.31675 18.1743 9.23341 17.8993 10.0834C17.8493 10.2584 17.641 10.3084 17.491 10.2001C16.5827 9.52508 15.4743 9.16675 14.3327 9.16675C11.441 9.16675 9.08268 11.5251 9.08268 14.4167C9.08268 15.3167 9.31602 16.2001 9.75768 16.9834C9.89102 17.2167 9.73268 17.5167 9.48268 17.4251C7.47435 16.7417 3.41602 14.2501 2.09935 10.0834C1.82435 9.23341 1.66602 8.31675 1.66602 7.32508C1.66602 4.75008 3.74102 2.66675 6.29935 2.66675C7.80768 2.66675 9.15768 3.40008 9.99935 4.52508C10.841 3.40008 12.191 2.66675 13.6993 2.66675C16.2577 2.66675 18.3327 4.75008 18.3327 7.32508Z" fill="#7649B3"/>
</svg>
