<svg width="20" height="21" viewBox="0 0 20 21" fill="none" xmlns="http://www.w3.org/2000/svg">
<path d="M10.741 5.49988H4.25768C2.83268 5.49988 1.66602 6.66654 1.66602 8.09154V17.5582C1.66602 18.7665 2.53268 19.2832 3.59102 18.6915L6.86602 16.8665C7.21602 16.6749 7.78268 16.6749 8.12435 16.8665L11.3993 18.6915C12.466 19.2749 13.3327 18.7665 13.3327 17.5582V8.09154C13.3327 6.66654 12.166 5.49988 10.741 5.49988Z" fill="#7649B3"/>
<path d="M18.3329 4.85827V14.3249C18.3329 15.5333 17.4662 16.0416 16.4079 15.4583L14.7995 14.5583C14.6662 14.4833 14.5829 14.3416 14.5829 14.1916V8.0916C14.5829 5.97493 12.8579 4.24994 10.7412 4.24994H7.34954C7.04121 4.24994 6.82454 3.92493 6.96621 3.65827C7.39954 2.83327 8.26621 2.2666 9.25788 2.2666H15.7412C17.1662 2.2666 18.3329 3.43327 18.3329 4.85827Z" fill="#7649B3"/>
</svg>
