<svg width="17" height="17" viewBox="0 0 17 17" fill="none" xmlns="http://www.w3.org/2000/svg">
<circle cx="8.5" cy="8.5" r="8.5" fill="#FB8308"/>
<path d="M7.48098 9.80689C7.00851 9.80689 6.54665 9.66678 6.15381 9.40429C5.76096 9.1418 5.45477 8.76871 5.27396 8.3322C5.09316 7.89569 5.04585 7.41537 5.13802 6.95198C5.2302 6.48859 5.45772 6.06293 5.79181 5.72884C6.1259 5.39475 6.55155 5.16724 7.01494 5.07506C7.47833 4.98289 7.95866 5.0302 8.39517 5.211C8.83167 5.39181 9.20476 5.698 9.46725 6.09084C9.72975 6.48369 9.86984 6.94555 9.86984 7.41802C9.87155 7.73221 9.81094 8.04362 9.6915 8.33422C9.57205 8.62483 9.39615 8.88885 9.17398 9.11102C8.95181 9.33319 8.68779 9.50909 8.39719 9.62853C8.10658 9.74798 7.79517 9.8086 7.48098 9.80689ZM10.662 9.80689H10.2379L10.079 9.64806C10.4064 9.26475 10.6469 8.81519 10.7842 8.33019C10.9215 7.8452 10.9523 7.33625 10.8745 6.83824C10.7464 6.11322 10.3886 5.44862 9.85373 4.94263C9.31892 4.43665 8.63552 4.11613 7.90452 4.02842C7.0091 3.913 6.10401 4.15193 5.38224 4.69429C4.66048 5.23665 4.17914 6.03951 4.04086 6.93168C3.90258 7.82386 4.1183 8.73476 4.64202 9.47016C5.16574 10.2056 5.95604 10.7073 6.84439 10.8683C7.34239 10.9462 7.85135 10.9154 8.33634 10.7781C8.82134 10.6408 9.27089 10.4002 9.6542 10.0729L9.81303 10.2317V10.6559L12.0398 12.8827C12.0921 12.9349 12.1541 12.9764 12.2223 13.0046C12.2905 13.0329 12.3637 13.0474 12.4375 13.0474C12.5114 13.0474 12.5845 13.0329 12.6528 13.0046C12.721 12.9764 12.783 12.9349 12.8353 12.8827C12.8875 12.8305 12.9289 12.7685 12.9572 12.7002C12.9855 12.632 13 12.5589 13 12.485C13 12.4111 12.9855 12.338 12.9572 12.2698C12.9289 12.2015 12.8875 12.1395 12.8353 12.0873L10.662 9.80689Z" fill="white"/>
</svg>
