<svg width="18" height="18" viewBox="0 0 18 18" fill="none" xmlns="http://www.w3.org/2000/svg">
<path fill-rule="evenodd" clip-rule="evenodd" d="M14.3198 12.9058L17.7068 16.2928C18.0977 16.6828 18.0977 17.3168 17.7068 17.7068C17.3168 18.0977 16.6838 18.0977 16.2928 17.7068L12.9058 14.3198C11.5508 15.3728 9.84886 15.9998 7.99989 15.9998C3.58195 15.9998 0 12.4178 0 7.99989C0 3.58195 3.58195 0 7.99989 0C12.4178 0 15.9998 3.58195 15.9998 7.99989C15.9998 9.84886 15.3728 11.5508 14.3198 12.9058ZM2 7.99992C2 11.3139 4.68596 13.9998 7.99992 13.9998C11.3139 13.9998 13.9998 11.3139 13.9998 7.99992C13.9998 4.68596 11.3139 2 7.99992 2C4.68596 2 2 4.68596 2 7.99992Z" fill="white"/>
</svg>
