<svg width="58" height="60" viewBox="0 0 58 60" fill="none" xmlns="http://www.w3.org/2000/svg">
<mask id="path-1-inside-1_296_4809" fill="white">
<path fill-rule="evenodd" clip-rule="evenodd" d="M4.44696 4.75862C7.44283 1.71931 11.647 0 16.5339 0H31.0932C41.5332 0 48.0752 3.79241 51.8449 8.56138C53.9056 11.1662 55.5152 14.5076 55.869 18.0166V18.0331L55.8732 18.0703V18.089L55.8752 18.0931V18.1055L55.8814 18.1676V18.1738C55.9725 19.4359 55.6808 20.6359 55.1014 21.6641C55.9801 22.2254 56.7032 22.999 57.204 23.9135C57.7049 24.828 57.9672 25.8539 57.967 26.8966V57.931C57.967 58.4798 57.749 59.006 57.361 59.394C56.973 59.782 56.4467 60 55.898 60C55.3493 60 54.823 59.782 54.435 59.394C54.047 59.006 53.829 58.4798 53.829 57.931V26.8966C53.829 26.3478 53.6111 25.8216 53.223 25.4336C52.835 25.0456 52.3088 24.8276 51.7601 24.8276C51.2113 24.8276 50.6851 25.0456 50.2971 25.4336C49.9091 25.8216 49.6911 26.3478 49.6911 26.8966V27.6062C49.6911 28.1549 49.4731 28.6812 49.0851 29.0692C48.6971 29.4572 48.1709 29.6752 47.6221 29.6752C47.0734 29.6752 46.5472 29.4572 46.1592 29.0692C45.7711 28.6812 45.5532 28.1549 45.5532 27.6062V26.8966C45.5532 25.7959 45.8387 24.7634 46.3414 23.8676C45.9177 23.5658 45.54 23.2041 45.2201 22.7938C44.3118 21.6476 43.8504 20.1703 43.5297 19.1379L43.4842 18.9993L43.3477 18.569C43.0761 17.7349 42.6594 16.9553 42.1166 16.2662C41.4132 15.3766 40.1366 14.1745 37.7056 13.349C39.2987 21.2359 43.2339 35.1372 44.8208 40.6365C44.9838 41.2008 45.0244 41.7933 44.9399 42.3744C44.8554 42.9556 44.6477 43.512 44.3308 44.0065C44.0138 44.5009 43.5949 44.9219 43.1021 45.2413C42.6093 45.5607 42.0539 45.7712 41.4732 45.8586C28.9021 47.7703 20.8435 47.8366 8.24765 45.871C7.66598 45.7807 7.1104 45.5669 6.61825 45.2439C6.1261 44.921 5.70881 44.4964 5.39441 43.9987C5.08002 43.5011 4.87583 42.9419 4.79556 42.3587C4.71528 41.7756 4.76079 41.182 4.92903 40.6179C5.66765 38.129 6.92352 33.8317 8.21455 29.1248C6.77513 28.3852 5.46393 27.4191 4.3311 26.2634C1.37455 23.2448 -0.00131207 19.291 0.0338603 15.4572C0.0605174 11.4532 1.64219 7.61624 4.44489 4.75655M51.7414 18.3703L51.7456 18.5152V18.5834L51.7559 18.7097C51.7341 19.212 51.5301 19.6891 51.1821 20.052C50.8341 20.4149 50.3659 20.6386 49.8649 20.6814C49.3477 20.7228 49.0621 20.6503 48.9049 20.5841C48.7284 20.5059 48.5756 20.3824 48.4621 20.2262C48.0814 19.7441 47.8187 18.9931 47.4339 17.76L47.289 17.309C46.8665 16 46.2142 14.7768 45.3628 13.6966C43.7656 11.6772 40.8525 9.38276 35.4297 8.57586L32.6925 8.16828L33.0752 10.9076C34.0601 17.9483 39.0628 35.6069 40.8401 41.7683C28.6745 43.6179 21.0442 43.6779 8.89938 41.7807C9.73317 38.9752 11.2166 33.8917 12.6752 28.4959L13.1656 26.6793L11.4049 26.0172C9.8532 25.4485 8.447 24.5426 7.28765 23.3648C5.1649 21.1986 4.14696 18.331 4.17386 15.4966C4.19007 12.5661 5.34442 9.75667 7.39317 7.66138C9.53869 5.48896 12.6483 4.13793 16.5339 4.13793H31.0932C40.4283 4.13793 45.7083 7.47103 48.6008 11.129C50.2683 13.2393 51.4766 15.8317 51.7456 18.3703"/>
</mask>
<path fill-rule="evenodd" clip-rule="evenodd" d="M4.44696 4.75862C7.44283 1.71931 11.647 0 16.5339 0H31.0932C41.5332 0 48.0752 3.79241 51.8449 8.56138C53.9056 11.1662 55.5152 14.5076 55.869 18.0166V18.0331L55.8732 18.0703V18.089L55.8752 18.0931V18.1055L55.8814 18.1676V18.1738C55.9725 19.4359 55.6808 20.6359 55.1014 21.6641C55.9801 22.2254 56.7032 22.999 57.204 23.9135C57.7049 24.828 57.9672 25.8539 57.967 26.8966V57.931C57.967 58.4798 57.749 59.006 57.361 59.394C56.973 59.782 56.4467 60 55.898 60C55.3493 60 54.823 59.782 54.435 59.394C54.047 59.006 53.829 58.4798 53.829 57.931V26.8966C53.829 26.3478 53.6111 25.8216 53.223 25.4336C52.835 25.0456 52.3088 24.8276 51.7601 24.8276C51.2113 24.8276 50.6851 25.0456 50.2971 25.4336C49.9091 25.8216 49.6911 26.3478 49.6911 26.8966V27.6062C49.6911 28.1549 49.4731 28.6812 49.0851 29.0692C48.6971 29.4572 48.1709 29.6752 47.6221 29.6752C47.0734 29.6752 46.5472 29.4572 46.1592 29.0692C45.7711 28.6812 45.5532 28.1549 45.5532 27.6062V26.8966C45.5532 25.7959 45.8387 24.7634 46.3414 23.8676C45.9177 23.5658 45.54 23.2041 45.2201 22.7938C44.3118 21.6476 43.8504 20.1703 43.5297 19.1379L43.4842 18.9993L43.3477 18.569C43.0761 17.7349 42.6594 16.9553 42.1166 16.2662C41.4132 15.3766 40.1366 14.1745 37.7056 13.349C39.2987 21.2359 43.2339 35.1372 44.8208 40.6365C44.9838 41.2008 45.0244 41.7933 44.9399 42.3744C44.8554 42.9556 44.6477 43.512 44.3308 44.0065C44.0138 44.5009 43.5949 44.9219 43.1021 45.2413C42.6093 45.5607 42.0539 45.7712 41.4732 45.8586C28.9021 47.7703 20.8435 47.8366 8.24765 45.871C7.66598 45.7807 7.1104 45.5669 6.61825 45.2439C6.1261 44.921 5.70881 44.4964 5.39441 43.9987C5.08002 43.5011 4.87583 42.9419 4.79556 42.3587C4.71528 41.7756 4.76079 41.182 4.92903 40.6179C5.66765 38.129 6.92352 33.8317 8.21455 29.1248C6.77513 28.3852 5.46393 27.4191 4.3311 26.2634C1.37455 23.2448 -0.00131207 19.291 0.0338603 15.4572C0.0605174 11.4532 1.64219 7.61624 4.44489 4.75655M51.7414 18.3703L51.7456 18.5152V18.5834L51.7559 18.7097C51.7341 19.212 51.5301 19.6891 51.1821 20.052C50.8341 20.4149 50.3659 20.6386 49.8649 20.6814C49.3477 20.7228 49.0621 20.6503 48.9049 20.5841C48.7284 20.5059 48.5756 20.3824 48.4621 20.2262C48.0814 19.7441 47.8187 18.9931 47.4339 17.76L47.289 17.309C46.8665 16 46.2142 14.7768 45.3628 13.6966C43.7656 11.6772 40.8525 9.38276 35.4297 8.57586L32.6925 8.16828L33.0752 10.9076C34.0601 17.9483 39.0628 35.6069 40.8401 41.7683C28.6745 43.6179 21.0442 43.6779 8.89938 41.7807C9.73317 38.9752 11.2166 33.8917 12.6752 28.4959L13.1656 26.6793L11.4049 26.0172C9.8532 25.4485 8.447 24.5426 7.28765 23.3648C5.1649 21.1986 4.14696 18.331 4.17386 15.4966C4.19007 12.5661 5.34442 9.75667 7.39317 7.66138C9.53869 5.48896 12.6483 4.13793 16.5339 4.13793H31.0932C40.4283 4.13793 45.7083 7.47103 48.6008 11.129C50.2683 13.2393 51.4766 15.8317 51.7456 18.3703" fill="white"/>
<path d="M51.8449 8.56138L51.0604 9.1815L51.0606 9.18181L51.8449 8.56138ZM55.869 18.0166H56.869V17.9663L56.864 17.9162L55.869 18.0166ZM55.869 18.0331H54.869V18.0885L54.8751 18.1435L55.869 18.0331ZM55.8732 18.0703H56.8732V18.015L56.8671 17.96L55.8732 18.0703ZM55.8732 18.089H54.8732V18.3248L54.9786 18.5358L55.8732 18.089ZM55.8752 18.0931H56.8752V17.8572L56.7698 17.6462L55.8752 18.0931ZM55.8752 18.1055H54.8752V18.1554L54.8802 18.2051L55.8752 18.1055ZM55.8814 18.1676H56.8814V18.1177L56.8765 18.068L55.8814 18.1676ZM55.8814 18.1738H54.8814V18.2098L54.884 18.2457L55.8814 18.1738ZM55.1014 21.6641L54.2302 21.1733L53.7658 21.9976L54.5631 22.5069L55.1014 21.6641ZM57.967 26.8966L56.967 26.8963V26.8966H57.967ZM45.5532 27.6062L44.5532 27.6062L45.5532 27.6062ZM46.3414 23.8676L47.2135 24.357L47.6529 23.574L46.9216 23.0531L46.3414 23.8676ZM45.2201 22.7938L46.0087 22.1789L46.0038 22.1727L45.2201 22.7938ZM43.5297 19.1379L44.4847 18.8413L44.4823 18.8336L44.4798 18.826L43.5297 19.1379ZM43.4842 18.9993L42.531 19.3018L42.5341 19.3113L43.4842 18.9993ZM43.3477 18.569L44.3008 18.2665L44.2985 18.2594L43.3477 18.569ZM42.1166 16.2662L42.9022 15.6475L42.901 15.646L42.1166 16.2662ZM37.7056 13.349L38.0271 12.4021L36.3812 11.8432L36.7254 13.547L37.7056 13.349ZM44.8208 40.6365L43.86 40.9138L43.8601 40.9141L44.8208 40.6365ZM41.4732 45.8586L41.3243 44.8698L41.3228 44.87L41.4732 45.8586ZM8.24765 45.871L8.40183 44.883L8.40112 44.8829L8.24765 45.871ZM4.92903 40.6179L5.88732 40.9037L5.88771 40.9024L4.92903 40.6179ZM8.21455 29.1248L9.17893 29.3893L9.39368 28.6064L8.67156 28.2354L8.21455 29.1248ZM4.3311 26.2634L3.61669 26.9632L3.61697 26.9635L4.3311 26.2634ZM0.0338603 15.4572L1.03382 15.4664L1.03384 15.4639L0.0338603 15.4572ZM51.7456 18.5152H52.7456V18.5009L52.7452 18.4866L51.7456 18.5152ZM51.7456 18.5834H50.7456V18.6244L50.7489 18.6652L51.7456 18.5834ZM51.7559 18.7097L52.755 18.753L52.7577 18.6904L52.7526 18.6279L51.7559 18.7097ZM49.8649 20.6814L49.9446 21.6782L49.95 21.6778L49.8649 20.6814ZM48.9049 20.5841L48.4997 21.4983L48.5082 21.5021L48.5168 21.5058L48.9049 20.5841ZM48.4621 20.2262L49.2711 19.6384L49.2594 19.6222L49.2469 19.6065L48.4621 20.2262ZM47.4339 17.76L48.3885 17.4621L48.386 17.4543L47.4339 17.76ZM47.289 17.309L48.2412 17.0032L48.2407 17.0017L47.289 17.309ZM45.3628 13.6966L46.1482 13.0776L46.1471 13.0762L45.3628 13.6966ZM35.4297 8.57586L35.2824 9.56496L35.2825 9.56497L35.4297 8.57586ZM32.6925 8.16828L32.8398 7.17918L31.517 6.98222L31.7021 8.30666L32.6925 8.16828ZM33.0752 10.9076L32.0849 11.046L32.0849 11.0461L33.0752 10.9076ZM40.8401 41.7683L40.9904 42.7569L42.1166 42.5857L41.8009 41.4911L40.8401 41.7683ZM8.89938 41.7807L7.94082 41.4958L7.61498 42.5922L8.74503 42.7687L8.89938 41.7807ZM12.6752 28.4959L13.6406 28.7568L13.6407 28.7565L12.6752 28.4959ZM13.1656 26.6793L14.131 26.9399L14.3677 26.063L13.5176 25.7433L13.1656 26.6793ZM11.4049 26.0172L11.7569 25.0812L11.749 25.0783L11.4049 26.0172ZM7.28765 23.3648L6.57342 24.0647L6.575 24.0663L7.28765 23.3648ZM4.17386 15.4966L5.17382 15.506L5.17385 15.5021L4.17386 15.4966ZM7.39317 7.66138L6.68166 6.95868L6.67817 6.96226L7.39317 7.66138ZM48.6008 11.129L49.3854 10.509L49.3852 10.5087L48.6008 11.129ZM5.15914 5.46062C7.94937 2.62993 11.8884 1 16.5339 1V-1C11.4056 -1 6.93629 0.80869 3.73479 4.05662L5.15914 5.46062ZM16.5339 1H31.0932V-1H16.5339V1ZM31.0932 1C41.2668 1 47.5036 4.68178 51.0604 9.1815L52.6294 7.94126C48.6469 2.90305 41.7996 -1 31.0932 -1V1ZM51.0606 9.18181C53.0299 11.6711 54.5434 14.837 54.8741 18.1169L56.864 17.9162C56.4871 14.1782 54.7813 10.6613 52.6292 7.94095L51.0606 9.18181ZM54.869 18.0166V18.0331H56.869V18.0166H54.869ZM54.8751 18.1435L54.8793 18.1807L56.8671 17.96L56.8629 17.9227L54.8751 18.1435ZM54.8732 18.0703V18.089H56.8732V18.0703H54.8732ZM54.9786 18.5358L54.9806 18.54L56.7698 17.6462L56.7678 17.6421L54.9786 18.5358ZM54.8752 18.0931V18.1055H56.8752V18.0931H54.8752ZM54.8802 18.2051L54.8864 18.2672L56.8765 18.068L56.8703 18.0059L54.8802 18.2051ZM54.8814 18.1676V18.1738H56.8814V18.1676H54.8814ZM54.884 18.2457C54.9605 19.3062 54.7159 20.3111 54.2302 21.1733L55.9727 22.155C56.6456 20.9606 56.9844 19.5655 56.8789 18.1018L54.884 18.2457ZM54.5631 22.5069C55.3002 22.9777 55.9068 23.6267 56.327 24.3938L58.0811 23.4332C57.4996 22.3714 56.66 21.4731 55.6398 20.8214L54.5631 22.5069ZM56.327 24.3938C56.7471 25.161 56.9672 26.0216 56.967 26.8963L58.967 26.8968C58.9673 25.6862 58.6626 24.495 58.0811 23.4332L56.327 24.3938ZM56.967 26.8966V57.931H58.967V26.8966H56.967ZM56.967 57.931C56.967 58.2145 56.8543 58.4864 56.6539 58.6869L58.0681 60.1011C58.6436 59.5256 58.967 58.745 58.967 57.931H56.967ZM56.6539 58.6869C56.4534 58.8874 56.1815 59 55.898 59V61C56.7119 61 57.4925 60.6767 58.0681 60.1011L56.6539 58.6869ZM55.898 59C55.6145 59 55.3426 58.8874 55.1421 58.6869L53.7279 60.1011C54.3035 60.6767 55.0841 61 55.898 61V59ZM55.1421 58.6869C54.9417 58.4864 54.829 58.2145 54.829 57.931H52.829C52.829 58.745 53.1524 59.5256 53.7279 60.1011L55.1421 58.6869ZM54.829 57.931V26.8966H52.829V57.931H54.829ZM54.829 26.8966C54.829 26.0826 54.5057 25.302 53.9302 24.7265L52.5159 26.1407C52.7164 26.3411 52.829 26.613 52.829 26.8966H54.829ZM53.9302 24.7265C53.3546 24.1509 52.574 23.8276 51.7601 23.8276V25.8276C52.0436 25.8276 52.3155 25.9402 52.5159 26.1407L53.9302 24.7265ZM51.7601 23.8276C50.9461 23.8276 50.1655 24.1509 49.59 24.7265L51.0042 26.1407C51.2047 25.9402 51.4766 25.8276 51.7601 25.8276V23.8276ZM49.59 24.7265C49.0144 25.302 48.6911 26.0826 48.6911 26.8966H50.6911C50.6911 26.613 50.8037 26.3411 51.0042 26.1407L49.59 24.7265ZM48.6911 26.8966V27.6062H50.6911V26.8966H48.6911ZM48.6911 27.6062C48.6911 27.8897 48.5785 28.1616 48.378 28.3621L49.7922 29.7763C50.3678 29.2007 50.6911 28.4201 50.6911 27.6062H48.6911ZM48.378 28.3621C48.1775 28.5625 47.9056 28.6752 47.6221 28.6752V30.6752C48.4361 30.6752 49.2167 30.3518 49.7922 29.7763L48.378 28.3621ZM47.6221 28.6752C47.3386 28.6752 47.0667 28.5625 46.8663 28.3621L45.452 29.7763C46.0276 30.3518 46.8082 30.6752 47.6221 30.6752V28.6752ZM46.8663 28.3621C46.6658 28.1616 46.5532 27.8897 46.5532 27.6062L44.5532 27.6062C44.5532 28.4201 44.8765 29.2007 45.452 29.7763L46.8663 28.3621ZM46.5532 27.6062V26.8966H44.5532V27.6062H46.5532ZM46.5532 26.8966C46.5532 25.9711 46.7927 25.1067 47.2135 24.357L45.4694 23.3782C44.8846 24.4202 44.5532 25.6207 44.5532 26.8966H46.5532ZM46.9216 23.0531C46.5766 22.8074 46.2691 22.5129 46.0087 22.1789L44.4315 23.4087C44.8108 23.8952 45.2588 24.3242 45.7613 24.6821L46.9216 23.0531ZM46.0038 22.1727C45.229 21.1949 44.8129 19.898 44.4847 18.8413L42.5747 19.4346C42.8879 20.4427 43.3946 22.1002 44.4363 23.4149L46.0038 22.1727ZM44.4798 18.826L44.4343 18.6873L42.5341 19.3113L42.5796 19.4499L44.4798 18.826ZM44.4374 18.6969L44.3008 18.2665L42.3945 18.8714L42.531 19.3018L44.4374 18.6969ZM44.2985 18.2594C43.9905 17.3133 43.5178 16.4291 42.9022 15.6475L41.331 16.8849C41.8009 17.4815 42.1617 18.1564 42.3968 18.8785L44.2985 18.2594ZM42.901 15.646C42.0888 14.6187 40.6565 13.2949 38.0271 12.4021L37.384 14.2959C39.6167 15.054 40.7375 16.1344 41.3322 16.8864L42.901 15.646ZM36.7254 13.547C38.3281 21.4815 42.2758 35.4241 43.86 40.9138L45.7816 40.3593C44.1919 34.8503 40.2693 20.9902 38.6858 13.151L36.7254 13.547ZM43.8601 40.9141C43.9835 41.3415 44.0143 41.7903 43.9503 42.2306L45.9295 42.5183C46.0345 41.7962 45.984 41.06 45.7815 40.359L43.8601 40.9141ZM43.9503 42.2306C43.8863 42.6708 43.729 43.0923 43.4889 43.4668L45.1726 44.5461C45.5664 43.9318 45.8245 43.2405 45.9295 42.5183L43.9503 42.2306ZM43.4889 43.4668C43.2488 43.8413 42.9315 44.1602 42.5582 44.4022L43.646 46.0805C44.2583 45.6836 44.7788 45.1605 45.1726 44.5461L43.4889 43.4668ZM42.5582 44.4022C42.1849 44.6441 41.7642 44.8035 41.3243 44.8698L41.622 46.8475C42.3436 46.7389 43.0337 46.4773 43.646 46.0805L42.5582 44.4022ZM41.3228 44.87C28.8475 46.7671 20.8918 46.832 8.40183 44.883L8.09347 46.8591C20.7953 48.8411 28.9567 48.7735 41.6235 46.8473L41.3228 44.87ZM8.40112 44.8829C7.96052 44.8145 7.53967 44.6525 7.16688 44.4078L6.06962 46.08C6.68112 46.4812 7.37144 46.7469 8.09418 46.8592L8.40112 44.8829ZM7.16688 44.4078C6.79408 44.1632 6.47799 43.8416 6.23984 43.4646L4.54899 44.5328C4.93963 45.1512 5.45813 45.6787 6.06962 46.08L7.16688 44.4078ZM6.23984 43.4646C6.00169 43.0877 5.84702 42.6641 5.78621 42.2224L3.8049 42.4951C3.90464 43.2197 4.15835 43.9145 4.54899 44.5328L6.23984 43.4646ZM5.78621 42.2224C5.72541 41.7806 5.75988 41.331 5.88732 40.9037L3.97075 40.3321C3.76171 41.033 3.70516 41.7705 3.8049 42.4951L5.78621 42.2224ZM5.88771 40.9024C6.62749 38.4096 7.88544 34.1052 9.17893 29.3893L7.25017 28.8603C5.96159 33.5582 4.70782 37.8484 3.97036 40.3334L5.88771 40.9024ZM8.67156 28.2354C7.32745 27.5448 6.10306 26.6426 5.04524 25.5634L3.61697 26.9635C4.8248 28.1957 6.22282 29.2257 7.75754 30.0143L8.67156 28.2354ZM5.04552 25.5637C2.29006 22.7504 1.00086 19.0589 1.03382 15.4664L-0.966098 15.4481C-1.00348 19.5232 0.459043 23.7392 3.61669 26.9632L5.04552 25.5637ZM1.03384 15.4639C1.05877 11.7193 2.53796 8.13092 5.15908 5.45651L3.73071 4.0566C0.746415 7.10157 -0.937733 11.1871 -0.966117 15.4506L1.03384 15.4639ZM50.7419 18.3989L50.746 18.5437L52.7452 18.4866L52.741 18.3418L50.7419 18.3989ZM50.7456 18.5152V18.5834H52.7456V18.5152H50.7456ZM50.7489 18.6652L50.7593 18.7914L52.7526 18.6279L52.7422 18.5017L50.7489 18.6652ZM50.7569 18.6663C50.7456 18.9258 50.6402 19.1723 50.4604 19.3598L51.9038 20.7442C52.4201 20.2059 52.7226 19.4981 52.755 18.753L50.7569 18.6663ZM50.4604 19.3598C50.2806 19.5473 50.0387 19.6629 49.7798 19.685L49.95 21.6778C50.693 21.6143 51.3876 21.2825 51.9038 20.7442L50.4604 19.3598ZM49.7851 19.6846C49.3932 19.7159 49.2737 19.6544 49.2929 19.6625L48.5168 21.5058C48.8506 21.6463 49.3021 21.7296 49.9446 21.6782L49.7851 19.6846ZM49.3101 19.6699C49.2946 19.663 49.2811 19.6522 49.2711 19.6384L47.6531 20.814C47.8701 21.1127 48.1621 21.3487 48.4997 21.4983L49.3101 19.6699ZM49.2469 19.6065C49.0047 19.2997 48.7905 18.7503 48.3885 17.4621L46.4793 18.0579C46.8469 19.2359 47.1582 20.1886 47.6773 20.846L49.2469 19.6065ZM48.386 17.4543L48.2412 17.0032L46.3369 17.6147L46.4817 18.0657L48.386 17.4543ZM48.2407 17.0017C47.7816 15.5798 47.0731 14.251 46.1482 13.0776L44.5774 14.3156C45.3554 15.3026 45.9513 16.4202 46.3374 17.6162L48.2407 17.0017ZM46.1471 13.0762C44.3911 10.8561 41.2496 8.43084 35.5769 7.58675L35.2825 9.56497C40.4554 10.3347 43.1401 12.4983 44.5785 14.3169L46.1471 13.0762ZM35.577 7.58677L32.8398 7.17918L32.5452 9.15737L35.2824 9.56496L35.577 7.58677ZM31.7021 8.30666L32.0849 11.046L34.0656 10.7692L33.6829 8.02989L31.7021 8.30666ZM32.0849 11.0461C33.0821 18.1755 38.1123 35.9198 39.8792 42.0454L41.8009 41.4911C40.0133 35.294 35.038 17.7211 34.0656 10.7691L32.0849 11.0461ZM40.6898 40.7796C28.62 42.6147 21.0925 42.6734 9.05372 40.7927L8.74503 42.7687C20.9959 44.6825 28.7291 44.6211 40.9904 42.7569L40.6898 40.7796ZM9.85794 42.0656C10.6931 39.2555 12.179 34.1635 13.6406 28.7568L11.7099 28.2349C10.2542 33.62 8.77325 38.6948 7.94082 41.4958L9.85794 42.0656ZM13.6407 28.7565L14.131 26.9399L12.2001 26.4187L11.7098 28.2353L13.6407 28.7565ZM13.5176 25.7433L11.7569 25.0812L11.0529 26.9533L12.8136 27.6153L13.5176 25.7433ZM11.749 25.0783C10.3362 24.5605 9.05589 23.7357 8.00031 22.6633L6.575 24.0663C7.83811 25.3495 9.37017 26.3365 11.0608 26.9562L11.749 25.0783ZM8.00189 22.6649C6.07997 20.7037 5.14922 18.0983 5.17382 15.506L3.17391 15.4871C3.14471 18.5637 4.24982 21.6936 6.57342 24.0647L8.00189 22.6649ZM5.17385 15.5021C5.18862 12.8311 6.24078 10.2703 8.10817 8.3605L6.67817 6.96226C4.44805 9.24303 3.19152 12.3012 3.17388 15.491L5.17385 15.5021ZM8.10467 8.36407C10.0453 6.39912 12.8905 5.13793 16.5339 5.13793V3.13793C12.4062 3.13793 9.03209 4.5788 6.68167 6.95869L8.10467 8.36407ZM16.5339 5.13793H31.0932V3.13793H16.5339V5.13793ZM31.0932 5.13793C40.1613 5.13793 45.1364 8.35995 47.8163 11.7492L49.3852 10.5087C46.2803 6.58211 40.6954 3.13793 31.0932 3.13793V5.13793ZM47.8161 11.749C49.3933 13.7449 50.5062 16.1638 50.7511 18.4757L52.74 18.265C52.447 15.4997 51.1433 12.7337 49.3854 10.509L47.8161 11.749Z" fill="#CC1111" fill-opacity="0.960784" mask="url(#path-1-inside-1_296_4809)"/>
</svg>
