<svg width="17" height="18" viewBox="0 0 17 18" fill="none" xmlns="http://www.w3.org/2000/svg">
<circle cx="8.94141" cy="8.8125" r="3.9375" fill="white"/>
<path d="M16.135 10.9552C15.9748 10.7077 15.7471 10.4602 15.4521 10.3035C15.216 10.188 15.0642 9.99825 14.9293 9.7755C14.4993 9.066 14.7523 8.13375 15.4689 7.713C16.312 7.24275 16.5818 6.195 16.0928 5.37825L15.5279 4.40475C15.0474 3.588 13.9935 3.29925 13.1588 3.77775C12.4168 4.17375 11.4641 3.90975 11.0341 3.2085C10.8992 2.9775 10.8234 2.73 10.8402 2.4825C10.8655 2.16075 10.7643 1.8555 10.6126 1.608C10.3006 1.0965 9.73573 0.75 9.11183 0.75H7.92304C7.30756 0.7665 6.74268 1.0965 6.43072 1.608C6.27053 1.8555 6.17779 2.16075 6.19465 2.4825C6.21151 2.73 6.13563 2.9775 6.00073 3.2085C5.57075 3.90975 4.61803 4.17375 3.88452 3.77775C3.0414 3.29925 1.99594 3.588 1.50693 4.40475L0.942046 5.37825C0.46147 6.195 0.731267 7.24275 1.56595 7.713C2.2826 8.13375 2.53553 9.066 2.11398 9.7755C1.97065 9.99825 1.81889 10.188 1.58281 10.3035C1.29615 10.4602 1.04322 10.7077 0.908321 10.9552C0.596369 11.4667 0.613231 12.1102 0.925184 12.6465L1.50693 13.6365C1.81889 14.1645 2.40063 14.4945 3.00768 14.4945C3.29434 14.4945 3.63158 14.412 3.90138 14.247C4.11216 14.1068 4.36509 14.0572 4.64332 14.0572C5.478 14.0572 6.17779 14.742 6.19465 15.5588C6.19465 16.5075 6.97032 17.25 7.94833 17.25H9.09497C10.0645 17.25 10.8402 16.5075 10.8402 15.5588C10.8655 14.742 11.5653 14.0572 12.4 14.0572C12.6698 14.0572 12.9227 14.1068 13.1419 14.247C13.4117 14.412 13.7405 14.4945 14.0356 14.4945C14.6342 14.4945 15.216 14.1645 15.5279 13.6365L16.1181 12.6465C16.4216 12.0937 16.4469 11.4667 16.135 10.9552" fill="#FB8308"/>
<path d="M8.53625 12C6.83239 12 5.4541 10.6726 5.4541 9.00531C5.4541 7.33805 6.83239 6 8.53625 6C10.2401 6 11.5858 7.33805 11.5858 9.00531C11.5858 10.6726 10.2401 12 8.53625 12" fill="white"/>
<path d="M8.53625 12C6.83239 12 5.4541 10.6726 5.4541 9.00531C5.4541 7.33805 6.83239 6 8.53625 6C10.2401 6 11.5858 7.33805 11.5858 9.00531C11.5858 10.6726 10.2401 12 8.53625 12" stroke="#3E2048" stroke-width="1.125"/>
</svg>
