<svg width="40" height="36" viewBox="0 0 40 36" fill="none" xmlns="http://www.w3.org/2000/svg">
<path d="M24.7048 2.40096L24.7048 2.40099L24.7135 2.39706C25.1237 2.21158 25.6059 2.28591 25.943 2.59071L25.9453 2.59277L38.2999 13.7115L38.3015 13.7129C38.5457 13.9319 38.6821 14.2382 38.6821 14.5696C38.6821 14.8913 38.5449 15.2034 38.2967 15.4306C38.2959 15.4313 38.2951 15.432 38.2943 15.4328L25.9487 26.5433C25.9483 26.5437 25.9478 26.5441 25.9473 26.5445C25.6096 26.8453 25.1269 26.9238 24.7009 26.7365C24.2892 26.5555 24.0213 26.1444 24.0213 25.6883V20.7466V19.4288H22.7035H15.2907C10.4704 19.4288 6.56005 23.3389 6.56005 28.1591C6.56005 30.9306 7.74625 32.612 8.68606 33.5018L8.68601 33.5018L8.69606 33.5111C8.97279 33.7677 9.03098 33.9757 9.03098 34.0504C9.03098 34.1608 8.93719 34.2537 8.82764 34.2537C8.81904 34.2537 8.81196 34.2535 8.80632 34.2532C7.44677 33.5056 1.78292 29.9364 1.78292 21.982C1.78292 15.2048 7.27752 9.71036 14.0552 9.71036H22.7035H24.0213V8.39253V3.45089C24.0213 3.00019 24.2923 2.58387 24.7048 2.40096Z" stroke="black" stroke-width="2.63566"/>
</svg>
