<svg width="54" height="48" viewBox="0 0 54 48" fill="none" xmlns="http://www.w3.org/2000/svg">
<path d="M46.65 14.225C46.65 15.275 46.575 16.3 46.45 17.275C45.3 16.775 44.05 16.5 42.725 16.5C39.675 16.5 36.975 17.975 35.3 20.225C33.6 17.975 30.9 16.5 27.85 16.5C22.725 16.5 18.575 20.675 18.575 25.85C18.575 32.55 22.125 37.6749 26.075 41.1499C25.95 41.2249 25.825 41.25 25.7 41.3C24.95 41.575 23.7 41.575 22.95 41.3C16.475 39.075 2 29.875 2 14.225C2 7.32498 7.54998 1.75 14.4 1.75C18.475 1.75 22.075 3.69998 24.325 6.72498C26.6 3.69998 30.2 1.75 34.25 1.75C41.1 1.75 46.65 7.32498 46.65 14.225Z" stroke="white" stroke-width="2.5" stroke-linecap="round" stroke-linejoin="round"/>
<path d="M52.0002 25.85C52.0002 37.55 41.1752 44.45 36.3252 46.1C35.7502 46.3 34.8252 46.3 34.2502 46.1C32.1752 45.4 29.0002 43.725 26.0752 41.15C22.1252 37.675 18.5752 32.55 18.5752 25.85C18.5752 20.675 22.7252 16.5 27.8502 16.5C30.9002 16.5 33.6002 17.975 35.3002 20.225C36.9752 17.975 39.6752 16.5 42.7252 16.5C44.0502 16.5 45.3002 16.775 46.4502 17.275C49.7252 18.725 52.0002 22 52.0002 25.85Z" stroke="white" stroke-width="2.5" stroke-linecap="round" stroke-linejoin="round"/>
</svg>
