<svg width="17" height="17" viewBox="0 0 17 17" fill="none" xmlns="http://www.w3.org/2000/svg">
<circle cx="8.5" cy="8.5" r="8.5" fill="#FB8308"/>
<g clip-path="url(#clip0_64_2552)">
<path d="M3.91667 9.41683C4.42293 9.41683 4.83333 9.00642 4.83333 8.50016C4.83333 7.9939 4.42293 7.5835 3.91667 7.5835C3.41041 7.5835 3 7.9939 3 8.50016C3 9.00642 3.41041 9.41683 3.91667 9.41683Z" fill="white"/>
<path d="M8.49967 9.41683C9.00593 9.41683 9.41634 9.00642 9.41634 8.50016C9.41634 7.9939 9.00593 7.5835 8.49967 7.5835C7.99341 7.5835 7.58301 7.9939 7.58301 8.50016C7.58301 9.00642 7.99341 9.41683 8.49967 9.41683Z" fill="white"/>
<path d="M13.0837 9.41683C13.5899 9.41683 14.0003 9.00642 14.0003 8.50016C14.0003 7.9939 13.5899 7.5835 13.0837 7.5835C12.5774 7.5835 12.167 7.9939 12.167 8.50016C12.167 9.00642 12.5774 9.41683 13.0837 9.41683Z" fill="white"/>
</g>
<defs>
<clipPath id="clip0_64_2552">
<rect width="11" height="11" fill="white" transform="translate(3 3)"/>
</clipPath>
</defs>
</svg>
