<svg width="60" height="60" viewBox="0 0 60 60" fill="none" xmlns="http://www.w3.org/2000/svg">
<path d="M55 21.25C55 30.225 47.725 37.5 38.75 37.5C38.325 37.5 37.875 37.475 37.45 37.45C36.825 29.525 30.475 23.175 22.55 22.55C22.525 22.125 22.5 21.675 22.5 21.25C22.5 12.275 29.775 5 38.75 5C47.725 5 55 12.275 55 21.25Z" stroke="#292D32" stroke-width="2.5" stroke-linecap="round" stroke-linejoin="round"/>
<path d="M37.5 38.75C37.5 47.725 30.225 55 21.25 55C12.275 55 5 47.725 5 38.75C5 29.775 12.275 22.5 21.25 22.5C21.675 22.5 22.125 22.525 22.55 22.55C30.475 23.175 36.825 29.525 37.45 37.45C37.475 37.875 37.5 38.325 37.5 38.75Z" stroke="#292D32" stroke-width="2.5" stroke-linecap="round" stroke-linejoin="round"/>
<path d="M13.975 5H7.5C6.125 5 5 6.125 5 7.5V13.975C5 16.2 7.69998 17.325 9.27498 15.75L15.75 9.27498C17.3 7.69998 16.2 5 13.975 5Z" stroke="#292D32" stroke-width="2.5" stroke-linecap="round" stroke-linejoin="round"/>
<path d="M46.025 54.9997H52.5C53.875 54.9997 55 53.8747 55 52.4997V46.0247C55 43.7997 52.3 42.6747 50.725 44.2497L44.2501 50.7247C42.7001 52.2997 43.8 54.9997 46.025 54.9997Z" stroke="#292D32" stroke-width="2.5" stroke-linecap="round" stroke-linejoin="round"/>
</svg>
